<svg id="Layer_1" data-name="Layer 1" xmlns="http://www.w3.org/2000/svg" xmlns:xlink="http://www.w3.org/1999/xlink" viewBox="0 0 862.01 199"><defs><style>.cls-1{fill:none;}.cls-2{clip-path:url(#clip-path);}.cls-3{fill:#5ec3aa;}.cls-4{fill:#6ce1b9;}.cls-4,.cls-5,.cls-6,.cls-7{fill-rule:evenodd;}.cls-5{fill:#5356f6;}.cls-6{fill:#272ac1;}.cls-7{fill:#191a58;}</style><clipPath id="clip-path" transform="translate(-231 -285)"><rect class="cls-1" x="231" y="294" width="194" height="190"/></clipPath></defs><g class="cls-2"><path class="cls-3" d="M354.6,294l-33.8,54.2c1.9,2.4,3.6,5,5.3,7.5,1.1,1.6,2.1,3.3,3.1,4.9,1.4,2.3,2.8,4.6,4.2,6.8s2.8,4.6,4.2,7c1.1,1.8,2.1,3.6,3.2,5.3,1.4,2.3,3.5,5.4,6.3,6.3a5.79,5.79,0,0,0,3.9.1,50.37,50.37,0,0,0,8.2-7.1c1.4-1.5,2.8-2.9,4.1-4.5,3.7-4.6,7.2-9.3,10.4-14.2s6.3-10,9.4-15c3.3-5.3,6.6-10.6,9.9-16s6.6-10.6,9.8-15.9c4.1-6.6,8.1-13.1,12.2-19.7C415,294,361.3,294.2,354.6,294Z" transform="translate(-231 -285)"/><path class="cls-4" d="M263,339.2h43.2c10.7,0,15.9,8.2,20.8,15.7,1.1,1.6,2.1,3.3,3.1,4.9,1.4,2.3,2.8,4.6,4.2,6.8s2.8,4.6,4.2,7c1.1,1.8,2.1,3.6,3.2,5.3,1.4,2.3,3.5,5.4,6.3,6.3,1.4.5,3.5.7,4.7-.3a27.48,27.48,0,0,1-8.4,5.4,41.43,41.43,0,0,1-11.5,3.5,55.35,55.35,0,0,1-22.2-.7,44.77,44.77,0,0,1-5.2-1.6c-10.4-3.9-15.8-10.4-21.4-18a71.47,71.47,0,0,1-4.4-6.8Z" transform="translate(-231 -285)"/><path class="cls-5" d="M301.2,406.5a53.46,53.46,0,0,0,6.8,2.1,72.11,72.11,0,0,0,28.9.9c1.4-.2,2.7-.5,4.1-.8L291,484H231l56.5-85.2A51.08,51.08,0,0,0,301.2,406.5Z" transform="translate(-231 -285)"/><path class="cls-6" d="M425,458.7H381.6c-10.7,0-15.9-8.3-20.9-15.7-1.1-1.6-2.1-3.3-3.1-4.9-1.4-2.3-2.8-4.6-4.2-6.8s-2.8-4.7-4.2-7c-1.1-1.8-2.1-3.6-3.2-5.3-1.4-2.3-3.5-5.4-6.3-6.3-1.4-.5-3.5-.7-4.7.3a27.48,27.48,0,0,1,8.4-5.4,42.09,42.09,0,0,1,11.6-3.5,55.84,55.84,0,0,1,22.3.7,53.39,53.39,0,0,1,5.3,1.6c10.4,3.9,15.8,10.4,21.4,18a71.47,71.47,0,0,1,4.4,6.8Z" transform="translate(-231 -285)"/></g><path class="cls-7" d="M1092.2,409.2H994.5a35.64,35.64,0,0,0,11,19.6,38.26,38.26,0,0,0,53.2-.5c1.7-1.6,3-2.2,5.3-1.3,6.2,2.4,12.6,4.5,19.1,6.8a59.2,59.2,0,0,1-22,20.5c-35.1,19-78.4.8-87.9-38-5.9-24.1-2.4-47.1,16.7-65.2,17.3-16.3,38-21.1,60.6-13.9s36.4,23.2,41.3,46.4C1093.5,391.9,1093.2,400.4,1092.2,409.2Zm-62.9-52.6c-16.5.8-33.4,15.2-34.5,30h74.3C1066.9,371.9,1051.7,355.5,1029.3,356.6ZM942.5,324A13.5,13.5,0,1,1,956,310.5,13.7,13.7,0,0,1,942.5,324ZM887.4,431.9c-3.2,10.9-9.2,20.1-19.5,25.7-18.5,10-41.4,2.1-50.3-18-3.6-8.2-5.7-17.1-8.2-25.8-7.1-24.9-14-49.8-21-74.7a9,9,0,0,1-.4-1.9h23.2q2.55,8.7,5.1,17.7c6.8,23.9,13.5,47.9,20.4,71.8,1.6,5.5,4.3,10.3,10.3,12.1,6.7,2.1,13.2-.9,16.6-8a88.23,88.23,0,0,0,4.9-14.2c7.3-25.6,14.6-51.3,21.8-76.9.6-2.1,1.5-2.8,3.7-2.7,6.7.1,13.4.1,20.7.1-2,6.9-3.8,13.5-5.6,20C901.7,382,894.7,407,887.4,431.9ZM769,459h-6a13,13,0,0,1-13-13V285h22V447s.6,12,12,12H769ZM610.6,416.1c-4.9-19.8-3.3-39.6,9.5-56.7,14.8-19.9,35.1-28.5,59.5-24.2,27.1,4.8,43.7,21.7,49.8,48.6a17.73,17.73,0,0,1,.5,3.2c.2,3.6.4,7.3.6,10.9.3,22.1-8,40-26.2,52.8C669.5,475.3,620.8,457.5,610.6,416.1Zm96.6-28.2c-3.2-14.9-12.1-25.2-26.7-29.6-14.9-4.4-28.2-.8-39.1,10.3-11.3,11.5-12.5,26-9.5,40.6,5.2,25.9,35.2,38.4,57.7,24.4,13.1-8.1,18.7-20.3,18.5-35.5C707.8,394.7,707.9,391.2,707.2,387.9ZM588.7,459c-3.9,0-7.4-1.7-8.9-4.4l-25.2-45.2a11.1,11.1,0,0,0-16.1,2.5L514,454.6c-1.5,2.6-5,4.3-8.9,4.3H485l36-62.5L490.3,337h21.4c4.1,0,7.7,1.9,9.1,4.7l17.9,37.8a10.43,10.43,0,0,0,8.7,4.4,11.17,11.17,0,0,0,8-3.2l17.8-39c1.3-2.9,5-4.8,9.1-4.8h20.4l-31,59.5L608,459Zm364.1-.1H930.7V337.2h22.1Z" transform="translate(-231 -285)"/></svg>