<?xml version="1.0" encoding="utf-8"?>
<!-- Generator: Adobe Illustrator 26.0.3, SVG Export Plug-In . SVG Version: 6.00 Build 0)  -->
<svg version="1.1" id="_x34_" xmlns="http://www.w3.org/2000/svg" xmlns:xlink="http://www.w3.org/1999/xlink" x="0px" y="0px"
	 viewBox="0 0 1600 1200" style="enable-background:new 0 0 1600 1200;" xml:space="preserve">
<style type="text/css">
	.st0{fill:#AACEEE;}
	.st1{fill:#FFFFFF;}
	.st2{fill:#35385B;}
	.st3{fill:#F98F4A;}
	.st4{fill:#227756;}
	.st5{fill:#54578C;}
	.st6{fill:#181B3F;}
	.st7{fill:#F9C19E;}
	.st8{fill:#0A0A09;}
	.st9{fill:#07498B;}
</style>
<g id="Background_3_">
	<rect x="0.04" y="0.17" class="st0" width="1600" height="1199.83"/>
</g>
<g id="Screen">
	<g>
		<rect x="431.43" y="314.77" class="st0" width="598.61" height="468.31"/>
		<path class="st1" d="M1032.54,785.58H428.93v-473.3h603.61V785.58z M433.93,780.58h593.61v-463.3H433.93V780.58z"/>
	</g>
	<g>
		<g>
			<rect x="513.04" y="337.17" class="st1" width="66" height="4"/>
		</g>
		<g>
			<rect x="513.04" y="361.17" class="st1" width="139" height="4"/>
		</g>
		<g>
			<rect x="513.04" y="385.17" class="st1" width="139" height="4"/>
		</g>
	</g>
</g>
<g id="Dotted_line">
	<path class="st1" d="M386.54,635.17h-5v-12h5V635.17z M386.54,611.17h-5v-12h5V611.17z M386.54,587.17h-5v-12h5V587.17z
		 M386.54,563.17h-5v-12h5V563.17z M372.04,553.67h-12v-5h12V553.67z M348.04,553.67h-12.5v-4.5h2.5v-0.5h10V553.67z M340.54,537.17
		h-5v-12h5V537.17z M340.54,513.17h-5v-12h5V513.17z M340.54,489.17h-5v-12h5V489.17z M340.54,465.17h-5v-12h5V465.17z
		 M340.54,441.17h-5v-12h5V441.17z M340.54,417.17h-5v-12h5V417.17z M340.54,393.17h-5v-12h5V393.17z M340.54,369.17h-5v-12h5
		V369.17z M340.54,345.17h-5v-12h5V345.17z M340.54,321.17h-5v-12h5V321.17z M340.54,297.17h-5v-12h5V297.17z M340.54,273.17h-5v-12
		h5V273.17z M983.04,260.67h-12v-5h12V260.67z M959.04,260.67h-12v-5h12V260.67z M935.04,260.67h-12v-5h12V260.67z M911.04,260.67
		h-12v-5h12V260.67z M887.04,260.67h-12v-5h12V260.67z M863.04,260.67h-12v-5h12V260.67z M839.04,260.67h-12v-5h12V260.67z
		 M815.04,260.67h-12v-5h12V260.67z M791.04,260.67h-12v-5h12V260.67z M767.04,260.67h-12v-5h12V260.67z M743.04,260.67h-12v-5h12
		V260.67z M719.04,260.67h-12v-5h12V260.67z M695.04,260.67h-12v-5h12V260.67z M671.04,260.67h-12v-5h12V260.67z M647.04,260.67h-12
		v-5h12V260.67z M623.04,260.67h-12v-5h12V260.67z M599.04,260.67h-12v-5h12V260.67z M575.04,260.67h-12v-5h12V260.67z
		 M551.04,260.67h-12v-5h12V260.67z M527.04,260.67h-12v-5h12V260.67z M503.04,260.67h-12v-5h12V260.67z M479.04,260.67h-12v-5h12
		V260.67z M455.04,260.67h-12v-5h12V260.67z M431.04,260.67h-12v-5h12V260.67z M407.04,260.67h-12v-5h12V260.67z M383.04,260.67h-12
		v-5h12V260.67z M359.04,260.67h-12v-5h12V260.67z"/>
</g>
<g id="Wall_3_">
	<path class="st1" d="M1409.6,326.44h-72.35c-1.05,0-1.91-0.86-1.91-1.91v-34.22c0-1.05,0.86-1.91,1.91-1.91v-4
		c-3.26,0-5.91,2.65-5.91,5.91v34.22c0,1.05-0.86,1.91-1.91,1.91h-72.35c-1.05,0-1.91-0.86-1.91-1.91v-3.91h-4v3.91
		c0,3.26,2.65,5.91,5.91,5.91h35.2v0.98c1.05,0,1.91,0.86,1.91,1.91v34.22c0,1.05-0.86,1.91-1.91,1.91h-72.35v4h72.35
		c1.75,0,3.32-0.77,4.4-1.98c1.04,0.92,2.41,1.49,3.91,1.49h30.29c-0.33,0.73-0.51,1.54-0.51,2.4v34.22h4v-34.22
		c0-1.05,0.86-1.91,1.91-1.91h72.35v-4h-30.29c0.33-0.73,0.51-1.54,0.51-2.4v-34.22c0-0.85-0.19-1.67-0.51-2.4h31.27V326.44z
		 M1298.68,367.05v-34.22c0-1.05,0.86-1.91,1.91-1.91h72.35c1.05,0,1.91,0.86,1.91,1.91v34.22c0,1.05-0.86,1.91-1.91,1.91h-72.35
		C1299.54,368.96,1298.68,368.11,1298.68,367.05z"/>
	<path class="st1" d="M233.54,597.67h-74c-1.1,0-2-0.9-2-2v-35c0-1.1,0.9-2,2-2v-4c-3.31,0-6,2.69-6,6v35c0,0.89,0.2,1.74,0.55,2.5
		h-32.05c-3.31,0-6,2.69-6,6v35c0,3.31,2.69,6,6,6h31.05c-0.35,0.76-0.55,1.61-0.55,2.5v35h4v-35c0-1.1,0.9-2,2-2h74v-4h-31.05
		c0.35-0.76,0.55-1.61,0.55-2.5v-35c0-0.89-0.2-1.74-0.55-2.5h32.05V597.67z M120.04,639.17v-35c0-1.1,0.9-2,2-2h74c1.1,0,2,0.9,2,2
		v35c0,1.1-0.9,2-2,2h-74C120.93,641.17,120.04,640.27,120.04,639.17z"/>
</g>
<g id="Laptop">
	<g>
		<path d="M726.07,1022.86h157.82c7.31,0,12.44-7.2,10.06-14.11l-57.73-167.41c-1.48-4.29-5.52-7.17-10.06-7.17H668.34
			c-7.31,0-12.44,7.2-10.06,14.11l57.73,167.41C717.49,1019.98,721.53,1022.86,726.07,1022.86z"/>
	</g>
	<g>
		<path class="st2" d="M712.12,1022.86h157.82c7.31,0,12.44-7.2,10.06-14.11l-57.73-167.41c-1.48-4.29-5.52-7.17-10.06-7.17H654.4
			c-7.31,0-12.44,7.2-10.06,14.11l57.73,167.41C703.54,1019.98,707.58,1022.86,712.12,1022.86z"/>
	</g>
	<g>
		<path d="M1039.66,1022.86H719.87c-4.36,0-7.9,3.54-7.9,7.9l0,0c0,4.36,3.54,7.9,7.9,7.9h319.79c4.36,0,7.89-3.52,7.9-7.88l0,0
			C1047.57,1026.42,1044.03,1022.86,1039.66,1022.86z"/>
	</g>
	<g>
		
			<ellipse transform="matrix(0.9518 -0.3068 0.3068 0.9518 -246.8453 276.5274)" class="st1" cx="756.13" cy="923.4" rx="11.15" ry="18.13"/>
	</g>
</g>
<g id="Chart_3_">
	<g>
		<polygon points="961.34,581.8 744.43,581.8 744.43,386.17 748.43,386.17 748.43,577.8 961.34,577.8 		"/>
	</g>
	<g>
		<rect x="789.6" y="413.69" class="st3" width="26.28" height="133.27"/>
	</g>
	<g>
		<rect x="853.41" y="468.59" class="st2" width="26.28" height="78.36"/>
	</g>
	<g>
		<rect x="916.29" y="442.31" class="st4" width="26.28" height="104.64"/>
	</g>
	<g>
		<rect x="778.33" y="544.96" width="176.44" height="4"/>
	</g>
	<g>
		<polygon points="727.66,388.17 765.05,388.17 746.12,366.11 		"/>
	</g>
	<g>
		<polygon points="961.34,561.34 961.34,598.73 983.39,579.81 		"/>
	</g>
</g>
<g id="Chart_2_">
	<g>
		<circle class="st1" cx="575.96" cy="515.59" r="14.08"/>
	</g>
	<g>
		<polygon points="575.96,517.59 382.04,517.59 382.04,291.17 386.04,291.17 386.04,513.59 575.96,513.59 		"/>
	</g>
	<g>
		<g>
			<path class="st1" d="M575.94,542.95c-3.96,0-7.9-0.87-11.59-2.6l1.7-3.62c11.65,5.46,25.58,0.43,31.04-11.22l3.62,1.7
				c-3.1,6.61-8.59,11.62-15.46,14.1C582.22,542.4,579.07,542.95,575.94,542.95z"/>
		</g>
		<g>
			<path class="st1" d="M554.83,505.68l-3.62-1.7c3.1-6.61,8.59-11.62,15.46-14.1c6.87-2.48,14.29-2.14,20.9,0.96l-1.7,3.62
				c-5.64-2.65-11.98-2.94-17.84-0.82C562.16,495.76,557.48,500.04,554.83,505.68z"/>
		</g>
	</g>
	<g>
		<g>
			<rect x="282.48" y="203.67" class="st0" width="202.89" height="197.48"/>
			<path class="st1" d="M487.88,403.65H279.98V201.17h207.89V403.65z M284.98,398.65h197.89V206.17H284.98V398.65z"/>
		</g>
		<g>
			<g>
				<g>
					<path class="st3" d="M399.73,333.76c-4.74,2.4-10.11,3.75-15.79,3.75c-19.39,0-35.11-15.72-35.11-35.11
						c0-18.74,14.67-34.04,33.16-35.06v-44.7c-43.16,1.04-77.84,36.35-77.84,79.76c0,44.07,35.72,79.79,79.79,79.79
						c13.38,0,25.99-3.29,37.06-9.12L399.73,333.76z"/>
				</g>
			</g>
			<g>
				<path class="st4" d="M463.72,302.23h-44.68c-0.1-19.31-15.77-34.93-35.11-34.93c-0.65,0-1.3,0.02-1.95,0.05v-44.7
					c0.65-0.02,1.3-0.03,1.95-0.03C427.94,222.62,463.62,258.24,463.72,302.23z"/>
			</g>
			<g>
				<path class="st2" d="M463.72,302.23v0.18c0,30.68-17.32,57.33-42.72,70.67l-21.27-39.31c11.45-5.77,19.31-17.65,19.31-31.36
					v-0.18H463.72z"/>
			</g>
		</g>
	</g>
</g>
<g id="Chart_1_">
	<g>
		<rect x="307.58" y="628.18" class="st0" width="246.91" height="114.99"/>
		<path class="st1" d="M556.99,745.67H305.08V625.68h251.91V745.67z M310.08,740.67h241.91V630.68H310.08V740.67z"/>
	</g>
	<g>
		<rect x="368.95" y="645.81" class="st5" width="160.14" height="19.75"/>
	</g>
	<g>
		<rect x="368.95" y="687.55" width="93.12" height="4"/>
	</g>
	<g>
		<rect x="368.95" y="712.95" width="52.91" height="4"/>
	</g>
	<g>
		<circle class="st3" cx="328.04" cy="665.57" r="9.88"/>
	</g>
	<g>
		<circle class="st5" cx="328.04" cy="705.07" r="9.88"/>
	</g>
	<g>
		<rect x="343.56" y="628.18" class="st1" width="5" height="114.99"/>
	</g>
</g>
<g id="Chart">
	<g>
		<rect x="879.83" y="223.81" class="st0" width="233.36" height="163"/>
		<path class="st1" d="M1115.7,389.31H877.33v-168h238.36V389.31z M882.33,384.31h228.36v-158H882.33V384.31z"/>
	</g>
	<g>
		<g>
			<path class="st0" d="M957.5,270.5c0,8.41-3.72,15.96-9.6,21.09c-4.91,4.27-11.32,6.86-18.34,6.86c-7.02,0-13.43-2.59-18.34-6.86
				c-5.88-5.13-9.6-12.67-9.6-21.09c0-15.43,12.51-27.95,27.95-27.95C944.99,242.55,957.5,255.07,957.5,270.5z"/>
			<path class="st1" d="M929.55,300.44c-7.22,0-14.21-2.61-19.66-7.35c-6.54-5.7-10.29-13.93-10.29-22.59
				c0-16.51,13.43-29.95,29.95-29.95s29.95,13.43,29.95,29.95c0,8.66-3.75,16.9-10.29,22.59
				C943.76,297.83,936.78,300.44,929.55,300.44z M929.55,244.55c-14.31,0-25.95,11.64-25.95,25.95c0,7.51,3.25,14.64,8.92,19.58
				c4.72,4.11,10.77,6.37,17.03,6.37c6.26,0,12.31-2.26,17.03-6.37c5.67-4.93,8.92-12.07,8.92-19.58
				C955.5,256.19,943.86,244.55,929.55,244.55z"/>
		</g>
		<g>
			<circle class="st1" cx="929.56" cy="266.29" r="8.85"/>
		</g>
		<g>
			<path class="st1" d="M947.9,291.59c-4.91,4.27-11.32,6.86-18.34,6.86c-7.02,0-13.43-2.59-18.34-6.86
				c1-9.25,8.83-16.45,18.34-16.45C939.07,275.14,946.9,282.34,947.9,291.59z"/>
		</g>
	</g>
	<g>
		<rect x="970.83" y="259.61" class="st1" width="60.55" height="4"/>
	</g>
	<g>
		<rect x="970.83" y="277.39" class="st1" width="120.59" height="4"/>
	</g>
	<g>
		<g>
			<path class="st0" d="M957.5,340.12c0,8.41-3.72,15.96-9.6,21.09c-4.91,4.27-11.32,6.86-18.34,6.86c-7.02,0-13.43-2.59-18.34-6.86
				c-5.88-5.13-9.6-12.67-9.6-21.09c0-15.43,12.51-27.95,27.95-27.95C944.99,312.18,957.5,324.69,957.5,340.12z"/>
			<path class="st1" d="M929.55,370.07c-7.22,0-14.21-2.61-19.66-7.35c-6.54-5.7-10.29-13.93-10.29-22.59
				c0-16.51,13.43-29.95,29.95-29.95s29.95,13.43,29.95,29.95c0,8.66-3.75,16.9-10.29,22.59
				C943.76,367.46,936.78,370.07,929.55,370.07z M929.55,314.18c-14.31,0-25.95,11.64-25.95,25.95c0,7.51,3.25,14.64,8.92,19.58
				c4.72,4.11,10.77,6.37,17.03,6.37c6.26,0,12.31-2.26,17.03-6.37c5.67-4.93,8.92-12.07,8.92-19.58
				C955.5,325.82,943.86,314.18,929.55,314.18z"/>
		</g>
		<g>
			<circle class="st1" cx="929.56" cy="335.91" r="8.85"/>
		</g>
		<g>
			<path class="st1" d="M947.9,361.21c-4.91,4.27-11.32,6.86-18.34,6.86c-7.02,0-13.43-2.59-18.34-6.86
				c1-9.25,8.83-16.45,18.34-16.45C939.07,344.76,946.9,351.96,947.9,361.21z"/>
		</g>
	</g>
	<g>
		<rect x="970.83" y="329.24" class="st1" width="60.55" height="4"/>
	</g>
	<g>
		<rect x="970.83" y="347.01" class="st1" width="120.59" height="4"/>
	</g>
</g>
<g id="Plant_3_">
	<g>
		<g>
			<path class="st4" d="M351.36,853.91c-20.32-30.68-51.09-46.08-68.73-34.4c-16.59,10.99-15.65,42.03,1.43,71.21l20.93-4.31
				l-11.43,18.16c19.99,25.02,46.69,36.62,62.65,26.05C373.84,918.93,371.67,884.59,351.36,853.91z"/>
		</g>
		<g>
			<path class="st4" d="M381.03,745.57c-9.03,0-17.05,4.6-22.21,11.76l12.82,19.23l-17.96-7.78c-0.53,2.34-0.82,4.79-0.82,7.31
				c0,16.85,12.61,30.51,28.17,30.51s28.17-13.66,28.17-30.51S396.59,745.57,381.03,745.57z"/>
		</g>
		<g>
			<path class="st4" d="M454.27,881.71c0,0,7.96,0,15.42,0c3.59-11.4,0.45-23.86-8.88-31.12c-12.28-9.55-30.62-6.52-40.97,6.79
				s-8.79,31.83,3.49,41.38c12.28,9.55,30.62,6.52,40.97-6.79c0.19-0.24,0.37-0.49,0.55-0.74L454.27,881.71z"/>
		</g>
		<g>
			<path d="M377.65,997.98c-11.07-71.21-34.73-115.29-52.62-139.72c-19.37-26.44-36.35-36.2-36.52-36.3l1.96-3.49
				c0.71,0.4,17.74,10.15,37.6,37.18c18.23,24.81,42.31,69.53,53.53,141.71L377.65,997.98z"/>
		</g>
		<g>
			<rect x="377.63" y="747.92" width="4" height="256.32"/>
		</g>
		<g>
			<path d="M381.63,1014.57h-4c0-59.13,72.42-157.58,75.51-161.74l3.21,2.38C455.6,856.21,381.63,956.76,381.63,1014.57z"/>
		</g>
		<g>
			<rect x="314.13" y="841.99" transform="matrix(0.0674 -0.9977 0.9977 0.0674 -535.6757 1114.9066)" width="28.81" height="4"/>
		</g>
	</g>
	<g>
		<polygon class="st1" points="456.85,999.54 450.04,1034.26 449.33,1037.87 308.07,1037.87 305.77,1026.11 300.56,999.54 		"/>
	</g>
	<g>
		<polygon points="450.04,1034.26 449.33,1037.87 308.07,1037.87 305.77,1026.11 		"/>
	</g>
</g>
<g id="Woman_2_">
	<g>
		<polygon class="st6" points="1268.04,1044.06 1035.04,1044.06 1043.24,1007.09 1053.66,960.17 1256.04,951.17 1259.21,975.71 		
			"/>
	</g>
	<g>
		<g>
			
				<rect x="646.27" y="565.61" transform="matrix(0.6995 -0.7146 0.7146 0.6995 -227.5827 646.6425)" class="st5" width="17.78" height="56.68"/>
		</g>
		<g>
			<path d="M682.34,599.95L789.96,705.3c5.81,5.69,5.91,15.01,0.22,20.83v0c-5.69,5.81-15.01,5.91-20.83,0.22L661.74,621
				c-5.81-5.69-5.91-15.01-0.22-20.83v0C667.2,594.36,676.53,594.26,682.34,599.95z"/>
		</g>
		<g>
			<g>
				<path d="M504.7,446.66c38.2-39.03,100.81-39.69,139.84-1.49c39.03,38.2,39.69,100.81,1.49,139.84
					c-38.2,39.03-100.81,39.69-139.84,1.49S466.5,485.69,504.7,446.66z M519.35,573.06c31.6,30.93,82.3,30.39,113.23-1.21
					c30.93-31.6,30.39-82.3-1.21-113.23s-82.3-30.39-113.23,1.21C487.21,491.43,487.75,542.12,519.35,573.06z"/>
			</g>
		</g>
	</g>
	<g>
		<g>
			<path class="st7" d="M1138.9,625.14l0.07-0.33c0,0-14.24,1.13-19.89,0.9c-23.94-0.96-10.58-39.08-10.58-39.08
				c-3.37-1.49-6.8-3.93-9.32-5.92c-1.8-1.44-1.49-4.26,0.58-5.28c6.39-3.14,12.77-7.16,12.77-7.16
				c2.7-30.72,17.47-35.97,17.47-35.97l73.95,3.24l1.64,69.59c-2.9,16.82,3.21,89.31,3.21,89.31l-82.16-3.07l9.18-50.19l0.08-0.39
				L1138.9,625.14z"/>
		</g>
		<g>
			<path d="M1116.82,597.8c-2.8,0-6.33-0.45-10.59-1.83l0.92-2.85c10.59,3.43,16.01,0.53,16.06,0.5l1.49,2.6
				C1124.54,596.32,1121.89,597.8,1116.82,597.8z"/>
		</g>
		<g>
			<path class="st1" d="M1117.32,565.63c0,0,0.39,3.58,3.54,5.8c0.99,0.7,2.25,1.26,3.86,1.54c2.53,0.44,6.88,0.32,9.43-4.44
				c0,0-4.05-7.01-10.64-6.01C1121.64,562.79,1119.56,563.72,1117.32,565.63z"/>
		</g>
		<g>
			<path d="M1117.32,565.63c0,0,0.39,3.58,3.54,5.8c2.71,0.39,5.21-1.28,5.64-3.78c0.37-2.16-0.91-4.25-3-5.13
				C1121.64,562.79,1119.56,563.72,1117.32,565.63z"/>
		</g>
		<g>
			<path d="M1139.22,559.49c-3.38-1.88-10.6-5.23-16.42-3.36c-0.69,0.22-1.44,0.07-2.02-0.37c-0.01-0.01-0.03-0.02-0.04-0.03
				c-1.52-1.16-1.02-3.55,0.83-4.03c4.17-1.08,12.79-1.95,18.43,6.94C1140.34,559.16,1139.76,559.79,1139.22,559.49z"/>
		</g>
		<path d="M1306.89,511.51l0.47-2.96c-0.56-0.09-55.09-8.22-78.23,25.4c-6.65-41.83-50.65-31.82-60.16-29.14
			c-0.61-14.72-12.82-22.05-13.36-22.36l-1.52,2.59c0.11,0.06,9.57,5.78,11.54,16.84c-3.21-5.81-9.07-10.47-9.07-10.47
			c-23.07-16.01-39.07,3.78-41.49,14.5c-1.29,5.69-1.34,10.44-0.49,14.41c-4.02-7.97-3.62-16.89-3.61-17.02l-3-0.17
			c-0.05,0.9-1.02,21.85,14.89,29.72c14.36,10.25,41.14,5.77,41.14,5.77c-20.72,39.74,8.26,52.54,8.26,52.54
			c-0.23-8.7,3.15-13.51,6.97-15.26c8.94-4.09,12.98,2.94,13.58,6.68c1.94,12.07-6.15,16.31-9.67,20.86
			c-3.8,4.92,2.75,8.52,5.28,9.57c5.28,2.2,9.99,3.33,14.21,3.63c8.24,2.15,15.47,3.55,21.59,3.55c5,0,9.28-0.93,12.77-3.15
			c5.44-3.46,8.81-8.2,10.03-14.09c1.33-6.45-0.11-13.25-2.15-18.86c12.96,11.59,30.04,12.98,30.93,13.04l0.22-2.99
			c-0.2-0.02-16.93-1.39-29.29-12.47c20.25,9.83,38.58,9.95,46.85,4.45c18.11-12.04,13.42-38.02,8.57-49.64
			c-16.39-39.22-54.01-15.11-67.64-4.59C1257.92,504.22,1306.37,511.42,1306.89,511.51z M1236.65,580.14
			c2.26,5.57,4.39,13.69,1.15,19.98c-2.32,4.51-7.14,7.49-14.34,8.93C1232.19,600.41,1235.51,586.72,1236.65,580.14z
			 M1244.07,602.31c-1.05,5.07-3.98,9.17-8.7,12.17c-4.79,3.05-11.85,3.49-23.2,1.25c2.47-0.69,4.7-1.71,6.71-3
			c11.03-1.05,18.29-4.82,21.6-11.25c3.64-7.08,1.62-15.72-0.75-21.8C1242.52,585.49,1245.71,594.35,1244.07,602.31z"/>
		<g>
			<path d="M1138.96,624.82c6.1-0.88,17.44-3.86,24.33-10.14c-0.21,0.58-5.08,17.63-27.48,26.51L1138.96,624.82z"/>
		</g>
		<g>
			<g>
				<circle class="st8" cx="1175.08" cy="603.25" r="4"/>
			</g>
			<g>
				<circle class="st5" cx="1175.74" cy="602.5" r="4"/>
			</g>
		</g>
		<g>
			<path class="st3" d="M1240.71,579.21l-3.8-1.24c8.46-26.03-8.57-43.31-8.74-43.48l2.82-2.84
				C1231.76,532.42,1249.92,550.86,1240.71,579.21z"/>
		</g>
	</g>
	<g>
		<path class="st7" d="M778.04,640.17l-13,40c-2.95-0.85-8.45-6.18-13.37-10.88c-3.56-3.39-6.82-6.46-8.6-7.28
			c-33.37-15.29-42.03-42.84-42.03-42.84c-30.01,4.45-39-9-39-9l54.82-17.42l23.18,18.42l29.89,22.81L778.04,640.17z"/>
	</g>
	<g>
		<path class="st7" d="M663.62,622.54c0,0-11.23,10.23-7.89,18.01c0,0,1.11,4.45,10,6.67c0,0-4.45,8.89,7.78,13.34
			c0,0,0,7.78,10,8.89c0,0-1.11,5.56,5.56,5.56c6.67,0,22.23-3.33,22.23-3.33s1.11-5.56-4.45-7.78c0,0,5.56-8.89-6.67-11.11
			c0,0,6.67-8.89-7.78-10c0,0,7.78-7.78-5.56-10l-12.23-1.11L663.62,622.54z"/>
	</g>
	<g>
		<path d="M778.04,640.17l-13,40c-2.95-0.85-8.45-6.18-13.37-10.88l18.26-35.31L778.04,640.17z"/>
	</g>
	<g>
		<polygon points="1259.21,975.71 1143.04,990.17 1123.04,925.17 1256.04,951.17 		"/>
	</g>
	<g>
		<path class="st3" d="M1331.88,894.47l-51.62-188.09c-4.32-15.72-15.22-28.81-29.92-35.88l-39.46-18.99
			c-89.85,43.66-76.3-2.7-76.3-2.7l-57.42,9.73L961.4,694.7l-186.95-61.8l-16.78,70.36l156.42,62.04
			c23.13,9.18,47.65,14.38,72.52,15.38l61.43,2.48c0,0,0,10,12,65c7.99,36.61-18,123-18,123s78.68-16.73,90-17l12,34l104-28l55-14
			C1343.04,935.17,1331.88,894.47,1331.88,894.47z"/>
	</g>
	<g>
		<g>
			<path class="st7" d="M1135.04,962.17l-18.16,3.25l-9.43,1.52l-54.21,30.27c-8.67,3.75-15.84-2.4-15.84-2.4
				c-10.2,0.48-14.4-5.22-14.4-5.22c-9.36,1.62-13.83-5.65-13.83-5.65c-5.79,3.3-10.26,4.96-13.7,5.64c-5.1,1-8.06-5.62-4-8.86
				l6.88-5.5l41.04-30.23c-31.05,4.4-36.18-8.53-36.18-8.53l53.95-15.11c21.15-5.91,39.36,0.9,39.36,0.9l14.23-3.47l8.75-2.14
				L1135.04,962.17z"/>
		</g>
		<g>
			<rect x="1006.25" y="972.59" transform="matrix(0.8385 -0.5449 0.5449 0.8385 -365.351 715.4674)" width="36.17" height="3"/>
		</g>
		<g>
			<rect x="1021.19" y="981.93" transform="matrix(0.8406 -0.5417 0.5417 0.8406 -368.1146 716.131)" width="22.7" height="3"/>
		</g>
		<g>
			<rect x="1035.69" y="988.95" transform="matrix(0.7347 -0.6784 0.6784 0.7347 -395.4459 969.7165)" width="12.82" height="3"/>
		</g>
	</g>
	<g>
		<path d="M670.02,648.35c-7.97,0-11.11-2.22-11.32-2.38l1.79-2.41l-0.9,1.2l0.88-1.22c0.08,0.05,7.94,5.26,31.6-2.31l0.91,2.86
			C682.81,647.35,675.34,648.35,670.02,648.35z"/>
	</g>
	<g>
		<path d="M675.27,661.21c-3.5,0-6.23-1.06-8.18-3.14c-4.02-4.29-3.07-11.32-3.03-11.61l2.97,0.42l-1.49-0.21l1.49,0.21
			c-0.01,0.06-0.78,5.92,2.26,9.15c1.57,1.67,3.98,2.39,7.14,2.14c0.06-0.01,14.81-2.01,23.51-5.88l1.22,2.74
			c-9.09,4.04-23.79,6.03-24.41,6.12C676.23,661.19,675.74,661.21,675.27,661.21z"/>
	</g>
	<g>
		<path d="M683.57,671.18l-0.2-0.02c-8.05-0.89-10.93-7.13-11.32-10.3l2.98-0.38c0.04,0.28,1,6.74,8.48,7.68
			c1.66-0.27,13.42-2.26,22.47-5.88l1.11,2.79c-10.04,4.02-22.79,6.01-23.33,6.09L683.57,671.18z"/>
	</g>
	<g>
		<path d="M1047.55,789.89c-3.91-34.91,0.97-62.31,1.02-62.58l3.94,0.72c-0.05,0.27-4.82,27.12-0.98,61.42L1047.55,789.89z"/>
	</g>
	<g>
		
			<rect x="755.72" y="665.97" transform="matrix(0.6871 -0.7265 0.7265 0.6871 -252.8125 761.4453)" class="st1" width="4" height="16.59"/>
	</g>
	<g>
		<polygon points="1135.04,962.17 1116.88,965.42 1110.74,918.77 1119.49,916.63 		"/>
	</g>
	<g>
		<polygon points="1142.77,990.56 1115.47,914.96 1235.72,872 1218.26,814.36 1222.09,813.2 1240.65,874.49 1120.6,917.37 
			1145.3,985.78 1256.54,957.23 1257.53,961.1 		"/>
	</g>
</g>
<g id="Table_3_">
	<g>
		<rect x="206.36" y="1071.17" width="1197.77" height="43"/>
	</g>
	<g>
		<rect x="168.74" y="1038.17" class="st9" width="1273" height="38"/>
	</g>
	<g>
		<rect x="148.24" y="1112.17" width="1314" height="5"/>
	</g>
</g>
</svg>
