<svg xmlns="http://www.w3.org/2000/svg" viewBox="0 0 4680 3120"><defs><style>.cls-1,.cls-10,.cls-23{fill:#fff;}.cls-2{fill:#ccebeb;}.cls-2,.cls-7{opacity:0.7;}.cls-3{fill:#b3b3b3;}.cls-4{fill:#a8c9ef;}.cls-5{opacity:0.5;}.cls-6{fill:#5a5a5a;}.cls-22,.cls-8,.cls-9{fill:#f8cd61;}.cls-12,.cls-8,.cls-9{stroke:#fff;}.cls-10,.cls-11,.cls-12,.cls-23,.cls-8,.cls-9{stroke-miterlimit:10;}.cls-10,.cls-11,.cls-12,.cls-8{stroke-width:1.7px;}.cls-9{stroke-width:1.35px;}.cls-10{stroke:#f8cd61;}.cls-11{fill:none;stroke:#a8c9ef;}.cls-12,.cls-35{fill:#51bfa6;}.cls-13{fill:#7f302e;}.cls-14{fill:#f09087;}.cls-15{fill:#f7ab9d;}.cls-16{fill:#ef515f;}.cls-17{fill:#f7c34d;}.cls-18{fill:#f4a531;}.cls-19{fill:#7061c6;}.cls-20{fill:#635bb5;}.cls-21{fill:#662826;}.cls-23{stroke:#000;stroke-width:0.93px;}.cls-24{fill:#383163;}.cls-25{fill:#103257;}.cls-26{fill:#0b253a;}.cls-27{fill:#e34a3d;}.cls-28{fill:#c14030;}.cls-29{fill:#231f20;}.cls-30{fill:#3e3a3b;}.cls-31{fill:#9c8ce0;}.cls-32{fill:#0d375f;}.cls-33{fill:#081528;}.cls-34{fill:#114e77;}.cls-36{fill:#15bc91;}.cls-37{fill:#e2e2e2;}.cls-38{fill:#183956;}.cls-39{fill:#b65640;}</style></defs><title>05</title><g id="_05" data-name="05"><rect id="_05-2" data-name="05" class="cls-1" width="4680" height="3120"/><path class="cls-2" d="M824.13,2591.59S223,1208.48,1208.05,970.63C1765.87,836,1868.91,1254.07,3174.56,845.81c595.84-186.32,1181.52,500,943.23,1045.35-184.91,423.19-37.92,716.51-37.92,716.51Z"/><path class="cls-3" d="M4198.37,2614.52c0,25.12-832,45.48-1858.37,45.48s-1858.37-20.36-1858.37-45.48S1313.65,2569,2340,2569,4198.37,2589.4,4198.37,2614.52Z"/><path class="cls-4" d="M2192.79,989.37c-1.93-56.4,44.81-103.15,178.53-107.71,72-2.43,148.89,10.7,228,39.2l40.08,38.84,47.38-1.6,90.26-240.19c-92.08-50.09-210.75-78.3-330.25-83.94l-5.92-174-193.34,6.55,6,177.22c-259.84,41.07-382,195.17-376,372.38,14.21,418.85,650.88,266.59,657,445.43,1.86,54.75-48.39,93.6-180.46,98.1-130.49,4.4-273.78-35.92-375.9-98.61l-47.41,1.61,3.61,106.51-52.87,130.62c95.56,61.33,250.19,102.84,411.62,108.64l5.85,172.33,193.35-6.57-6.05-178.8c250-45.53,367.42-197.9,361.63-368.66C2833.77,1011.12,2198.61,1161.69,2192.79,989.37Z"/><g class="cls-5"><path class="cls-4" d="M2438.85,1797l6,178.79-193.33,6.56-5.86-172.31c-161.44-5.8-316.08-47.31-411.63-108.65l96.66-238.73c102.12,62.71,245.44,103,375.91,98.58,132.08-4.47,182.32-43.32,180.49-98-6.08-178.87-642.76-26.6-657-445.45-6-177.2,116.17-331.33,376-372.38l-6-177.22,193.34-6.55,5.92,174c119.5,5.65,238.17,33.85,330.22,84L2639.42,959.7c-109.89-54.39-217.2-79.77-315.49-76.44-133.73,4.56-180.48,51.33-178.56,107.71,5.83,172.33,641,21.77,655.12,437.38C2806.25,1599.1,2688.81,1751.5,2438.85,1797Z"/></g><ellipse class="cls-6" cx="2553.72" cy="2598.85" rx="365.41" ry="39.92"/><ellipse class="cls-6" cx="1790.69" cy="2598.85" rx="365.41" ry="39.92"/><g class="cls-7"><path class="cls-8" d="M3604.16,1491.12c25.39-7.18,52.78-38.16,68.13-80.51s14.2-83.69-.68-105.47l2.46-6.78-19.55-7.09c-29.79-10.8-70.15,25.11-90.13,80.21s-12,108.53,17.77,119.33l19.55,7.09Z"/><path class="cls-8" d="M3594.14,1422.47l1.1-3.06L3555.55,1405q-.27,1.65-.51,3.27Z"/><path class="cls-8" d="M3556.4,1400.33l39.09,14.17,1.11-3L3557,1397.1C3556.8,1398.18,3556.6,1399.25,3556.4,1400.33Z"/><path class="cls-8" d="M3576.35,1344.93l-1.56,2.89,36.95,13.4,1.1-3.06Z"/><path class="cls-8" d="M3580.5,1337.73c-.57.93-1.13,1.89-1.69,2.84l38.43,13.94,1.11-3.06Z"/><path class="cls-8" d="M3573,1351.39c-.48,1-.94,2-1.41,2.95l37.71,13.67,1.11-3Z"/><path class="cls-8" d="M3601.71,1497.9c-29.8-10.8-37.76-64.23-17.77-119.33s60.33-91,90.13-80.21,37.75,64.23,17.77,119.34S3631.5,1508.71,3601.71,1497.9Z"/><path class="cls-1" d="M3605.48,1487.48a19.53,19.53,0,0,1-1.95-.81c24.53,6.56,57.69-25.73,75.11-73.77s12.66-94.05-10.38-104.75c.68.18,1.37.4,2,.63,24.7,9,30.23,56.21,12.33,105.56S3630.18,1496.44,3605.48,1487.48Z"/><path class="cls-8" d="M3603.53,1486.67c-23-10.69-27.77-56.72-10.34-104.76s50.57-80.3,75.07-73.76c23,10.7,27.8,56.73,10.38,104.75S3628.06,1493.23,3603.53,1486.67Z"/><path class="cls-8" d="M3639.91,1574.37a133.65,133.65,0,1,0,141.31,125.53A133.66,133.66,0,0,0,3639.91,1574.37Z"/><path class="cls-8" d="M3621,1634.57l-3.37-57c1.27-.29,2.54-.56,3.82-.82l3.4,57.56Z"/><path class="cls-8" d="M3745,1616.08l2.26,38.24-3.85.23-2.53-42.65C3742.29,1613.26,3743.65,1614.66,3745,1616.08Z"/><path class="cls-8" d="M3616.23,1633.09l-3.85.23-3.17-53.48c1.27-.38,2.53-.77,3.81-1.12Z"/><path class="cls-8" d="M3736.34,1652.75l-2.81-47.45c1.38,1.16,2.74,2.33,4.08,3.54l2.58,43.68Z"/><path class="cls-8" d="M3641,1591.88a133.65,133.65,0,1,0,141.31,125.53A133.65,133.65,0,0,0,3641,1591.88Z"/><path class="cls-1" d="M3527.61,1729.85c0,.87.07,1.74.12,2.61A121.33,121.33,0,1,0,3770,1718.13c-.05-.87-.1-1.73-.2-2.6a121.31,121.31,0,0,1-242.15,14.32Z"/><path class="cls-8" d="M3641.68,1604.18a118.75,118.75,0,1,0,128.08,111.35A121.29,121.29,0,0,0,3641.68,1604.18Z"/><path class="cls-1" d="M3675.12,1709a10.11,10.11,0,0,0-8.26,6,52.05,52.05,0,0,0-4.07,12.92q-1.48,7.65-2.81,16.55a70,70,0,0,1-4.6,16.68,38.44,38.44,0,0,1-9.49,13.51q-6.24,5.71-17.4,7.1a35.17,35.17,0,0,1-14.81-1.14,32.54,32.54,0,0,1-12.09-6.79,42,42,0,0,1-9-11.49,64.28,64.28,0,0,1-5.84-15.21l-26.42,3.27-2.63-21.28,26.77-3.31a90.34,90.34,0,0,1,3.77-24.14,79.55,79.55,0,0,1,9.72-21.09l24.26,8.34a74.81,74.81,0,0,0-6.43,11.33,78.46,78.46,0,0,0-6.74,24.14,47.64,47.64,0,0,0,0,10.81q1.08,8.68,4.78,13.18a9.92,9.92,0,0,0,9.38,3.79,10.26,10.26,0,0,0,8.44-6,49.43,49.43,0,0,0,4-12.91q1.4-7.65,2.63-16.53a73.24,73.24,0,0,1,4.33-16.73,36.8,36.8,0,0,1,9.12-13.55q6-5.7,17-7.06,14.37-1.77,24.85,6.65t15.17,24.41l25.71-3.18,2.63,21.28-25,3.09a90.14,90.14,0,0,1-2,21.3,80.16,80.16,0,0,1-6.4,18.79l-24.57-7.94q2.22-5.31,4-10.84a103.69,103.69,0,0,0,2.81-10.79,75.92,75.92,0,0,0,1.37-10.07,46.25,46.25,0,0,0-.16-8.53q-.87-7.1-3.9-11.13A8.24,8.24,0,0,0,3675.12,1709Z"/><path class="cls-9" d="M3675.7,1701.18a10.1,10.1,0,0,0-8.26,6,51.57,51.57,0,0,0-4.08,12.93q-1.49,7.65-2.81,16.54a69.54,69.54,0,0,1-4.6,16.68,38.32,38.32,0,0,1-9.49,13.51q-6.23,5.71-17.39,7.1a34.91,34.91,0,0,1-14.82-1.14,32.69,32.69,0,0,1-12.09-6.79,42.07,42.07,0,0,1-9-11.49,64.72,64.72,0,0,1-5.84-15.21l-26.42,3.27-2.62-21.28,26.77-3.31a90.19,90.19,0,0,1,3.76-24.13,79.32,79.32,0,0,1,9.73-21.1l24.25,8.35a76,76,0,0,0-6.43,11.32,79.11,79.11,0,0,0-4.44,12.16,77.72,77.72,0,0,0-2.3,12,47,47,0,0,0,0,10.8q1.08,8.69,4.78,13.18a9.91,9.91,0,0,0,9.38,3.79,10.27,10.27,0,0,0,8.44-6,49.71,49.71,0,0,0,4-12.91q1.39-7.64,2.64-16.52a73.18,73.18,0,0,1,4.32-16.74,36.83,36.83,0,0,1,9.13-13.55q6-5.7,17-7.06,14.35-1.77,24.85,6.65t15.17,24.41l25.71-3.18,2.63,21.28-25,3.09a90.14,90.14,0,0,1-2,21.3,80,80,0,0,1-6.41,18.79l-24.56-7.94q2.22-5.31,4-10.84a103.58,103.58,0,0,0,2.8-10.79,75.7,75.7,0,0,0,1.37-10.07,47.22,47.22,0,0,0-.15-8.53q-.89-7.1-3.9-11.13A8.24,8.24,0,0,0,3675.7,1701.18Z"/></g><g class="cls-7"><path class="cls-8" d="M1219.9,1555.45a112.83,112.83,0,1,0-21.72-158A112.82,112.82,0,0,0,1219.9,1555.45Z"/><path class="cls-8" d="M1265.06,1527.21,1236,1565.6c-1-.51-1.94-1-2.9-1.57l29.4-38.79Z"/><path class="cls-8" d="M1175.41,1471.05l19.53-25.77,2.6,2L1175.75,1476C1175.6,1474.34,1175.49,1472.7,1175.41,1471.05Z"/><path class="cls-8" d="M1267.3,1530.77l2.6,2-27.32,36c-1-.45-2-.89-3-1.37Z"/><path class="cls-8" d="M1201.09,1452.28l-24.25,32c-.25-1.49-.48-3-.67-4.51l22.32-29.43Z"/><path class="cls-8" d="M1228.84,1543.65a112.83,112.83,0,1,0-21.71-158A112.84,112.84,0,0,0,1228.84,1543.65Z"/><path class="cls-1" d="M1377.24,1517.32c.47-.56.91-1.15,1.35-1.73a102.38,102.38,0,1,0-163.18-123.69c-.44.58-.88,1.17-1.3,1.77a102.37,102.37,0,0,1,163.13,123.65Z"/><path class="cls-8" d="M1235.12,1535.36a100.25,100.25,0,1,0-21-141.69A102.4,102.4,0,0,0,1235.12,1535.36Z"/><path class="cls-1" d="M1271.22,1449.76a8.55,8.55,0,0,0,8.58.7,43.53,43.53,0,0,0,9.7-6.06q5.16-4.08,10.89-9.07a58.79,58.79,0,0,1,12.1-8.17,32.39,32.39,0,0,1,13.5-3.46q7.14-.26,15,5a29.49,29.49,0,0,1,8.87,8.86,27.34,27.34,0,0,1,4,11,35.52,35.52,0,0,1-.55,12.3,54.49,54.49,0,0,1-4.6,13l18.73,12.39-10,15.09-19-12.56a76.27,76.27,0,0,1-15.67,13.42,67.1,67.1,0,0,1-17.81,8.19l-11-18.65a64.37,64.37,0,0,0,10.34-3.74,65.71,65.71,0,0,0,9.52-5.37,64.78,64.78,0,0,0,8-6.42,40.21,40.21,0,0,0,5.94-6.92q4.08-6.17,4.17-11.08a8.34,8.34,0,0,0-3.94-7.57,8.64,8.64,0,0,0-8.7-.79,42,42,0,0,0-9.64,6.1q-5.08,4.14-10.76,9.15a61.77,61.77,0,0,1-12,8.36,31.05,31.05,0,0,1-13.28,3.69q-7,.33-14.8-4.82-10.18-6.75-12.29-17.9t3.67-24l-18.23-12.06,10-15.09,17.73,11.73a76.24,76.24,0,0,1,12.95-12.59,67.91,67.91,0,0,1,14.42-8.54l11.39,18.57q-4.34,2.19-8.5,4.78a87.39,87.39,0,0,0-7.72,5.38,62.37,62.37,0,0,0-6.4,5.71,38.42,38.42,0,0,0-4.58,5.55q-3.33,5-3.61,9.28A7,7,0,0,0,1271.22,1449.76Z"/><path class="cls-8" d="M1266.55,1454.48a8.53,8.53,0,0,0,8.57.7,43.57,43.57,0,0,0,9.71-6.06q5.14-4.09,10.88-9.07a58.85,58.85,0,0,1,12.11-8.17,32.15,32.15,0,0,1,13.49-3.46q7.14-.26,15,5a29.61,29.61,0,0,1,8.88,8.85,27.57,27.57,0,0,1,4,11,35.53,35.53,0,0,1-.55,12.3,54.49,54.49,0,0,1-4.6,13l18.73,12.39-10,15.09-19-12.56a76.47,76.47,0,0,1-15.66,13.42,67.24,67.24,0,0,1-17.81,8.19l-11-18.66a63.6,63.6,0,0,0,10.33-3.73,66.55,66.55,0,0,0,17.57-11.79,39.77,39.77,0,0,0,5.94-6.92q4.08-6.17,4.17-11.08a8.38,8.38,0,0,0-3.93-7.58,8.66,8.66,0,0,0-8.7-.78,42,42,0,0,0-9.65,6.1q-5.09,4.14-10.76,9.15a61.7,61.7,0,0,1-12,8.36,31.09,31.09,0,0,1-13.29,3.69q-7,.33-14.8-4.82-10.18-6.75-12.29-17.9t3.67-24L1227.52,1423l10-15.09,17.72,11.73a76.23,76.23,0,0,1,13-12.59,67.91,67.91,0,0,1,14.42-8.54l11.39,18.57c-2.89,1.46-5.73,3.05-8.49,4.78a85.33,85.33,0,0,0-7.72,5.38,63.59,63.59,0,0,0-6.41,5.71,39.09,39.09,0,0,0-4.58,5.55,19.6,19.6,0,0,0-3.61,9.28A7,7,0,0,0,1266.55,1454.48Z"/><path class="cls-8" d="M1078.87,1417.05a166,166,0,0,1,24,4c6.34,1.48,12.57,3.25,18.77,5.17,2.11-6.13,4.37-12.22,6.9-18.21a166.1,166.1,0,0,1,10.93-21.68,167.39,167.39,0,0,1-4,24c-1.49,6.33-3.26,12.57-5.17,18.77,6.13,2.1,12.21,4.35,18.2,6.89a165.48,165.48,0,0,1,21.68,10.93,164.61,164.61,0,0,1-24-4c-6.34-1.49-12.57-3.26-18.76-5.18-2.11,6.13-4.36,12.21-6.9,18.2a163,163,0,0,1-10.93,21.68,164.4,164.4,0,0,1,4-23.95c1.48-6.33,3.26-12.57,5.17-18.77-6.12-2.11-12.2-4.36-18.19-6.9A165.52,165.52,0,0,1,1078.87,1417.05Z"/><path class="cls-8" d="M1176.72,765.14A133.65,133.65,0,1,0,1291.58,615,133.64,133.64,0,0,0,1176.72,765.14Z"/><path class="cls-8" d="M1238.13,779.6l-56.56,7.52c-.39-1.24-.75-2.49-1.1-3.75l57.15-7.6Z"/><path class="cls-8" d="M1210.63,657.28l38-5,.51,3.83-42.35,5.63C1208,660.19,1209.31,658.73,1210.63,657.28Z"/><path class="cls-8" d="M1237,784.46l.52,3.83-53.11,7.06c-.47-1.23-1-2.46-1.39-3.71Z"/><path class="cls-8" d="M1247.84,663.24l-47.12,6.27c1-1.46,2.13-2.91,3.23-4.33l43.38-5.77Z"/><path class="cls-8" d="M1194.1,762.82A133.66,133.66,0,1,0,1309,612.72,133.67,133.67,0,0,0,1194.1,762.82Z"/><path class="cls-1" d="M1340,865.77c.87-.08,1.73-.19,2.59-.31a121.32,121.32,0,1,0-32-240.53c-.86.11-1.72.23-2.57.38a121.32,121.32,0,0,1,32,240.46Z"/><path class="cls-8" d="M1206.31,761.2A118.75,118.75,0,1,0,1308,625.31,121.29,121.29,0,0,0,1206.31,761.2Z"/><path class="cls-1" d="M1308.44,720.17A10.13,10.13,0,0,0,1315,728a52.2,52.2,0,0,0,13.19,3.12q7.74.92,16.71,1.59a70.16,70.16,0,0,1,17,3.37,38.38,38.38,0,0,1,14.16,8.48q6.15,5.79,8.35,16.83a34.84,34.84,0,0,1-.05,14.85,32.63,32.63,0,0,1-5.89,12.56,41.89,41.89,0,0,1-10.8,9.79,64.86,64.86,0,0,1-14.74,6.94l5.19,26.11-21,4.18-5.26-26.46a90,90,0,0,1-24.35-2,79.13,79.13,0,0,1-21.74-8.15l6.54-24.8A75.67,75.67,0,0,0,1304,780a78.39,78.39,0,0,0,12.45,3.53,77,77,0,0,0,12.12,1.42,47.39,47.39,0,0,0,10.78-.77q8.58-1.71,12.79-5.73a9.92,9.92,0,0,0,3.1-9.63,10.27,10.27,0,0,0-6.6-8,49.19,49.19,0,0,0-13.17-3q-7.73-.84-16.67-1.43a73.66,73.66,0,0,1-17-3.08,37,37,0,0,1-14.18-8.11q-6.12-5.62-8.28-16.48-2.82-14.21,4.81-25.28t23.23-16.91l-5-25.4,21-4.18,4.91,24.71a89.8,89.8,0,0,1,21.39.39,80.09,80.09,0,0,1,19.21,5l-6.12,25.07q-5.48-1.82-11.11-3.16a104.84,104.84,0,0,0-11-2,75.15,75.15,0,0,0-10.14-.63,45.87,45.87,0,0,0-8.5.78q-7,1.39-10.81,4.7A8.23,8.23,0,0,0,1308.44,720.17Z"/><path class="cls-9" d="M1300.57,720.17a10.13,10.13,0,0,0,6.56,7.81,52.2,52.2,0,0,0,13.19,3.12q7.74.92,16.71,1.59a70.16,70.16,0,0,1,17,3.37,38.38,38.38,0,0,1,14.16,8.48q6.15,5.79,8.35,16.83a34.84,34.84,0,0,1,0,14.85,32.63,32.63,0,0,1-5.89,12.56,41.89,41.89,0,0,1-10.8,9.79,64.86,64.86,0,0,1-14.74,6.94l5.19,26.11-21,4.18-5.26-26.46a90,90,0,0,1-24.35-2,79.13,79.13,0,0,1-21.74-8.15l6.54-24.8a75.67,75.67,0,0,0,11.77,5.59,78.39,78.39,0,0,0,12.45,3.53,77,77,0,0,0,12.12,1.42,47.39,47.39,0,0,0,10.78-.77q8.58-1.71,12.79-5.73a9.92,9.92,0,0,0,3.1-9.63,10.27,10.27,0,0,0-6.6-8,49.19,49.19,0,0,0-13.17-3q-7.72-.84-16.67-1.43a73.66,73.66,0,0,1-17-3.08,37,37,0,0,1-14.18-8.11q-6.12-5.62-8.28-16.48-2.82-14.21,4.81-25.28t23.23-16.91l-5-25.4,21-4.18,4.91,24.71a89.8,89.8,0,0,1,21.39.39,80.09,80.09,0,0,1,19.21,5l-6.12,25.07q-5.48-1.82-11.11-3.16a104.84,104.84,0,0,0-11-2,75.15,75.15,0,0,0-10.14-.63,45.87,45.87,0,0,0-8.5.78q-7,1.39-10.81,4.7A8.25,8.25,0,0,0,1300.57,720.17Z"/><path class="cls-8" d="M1158.17,1679.11c20.09,8.59,46.41,28.61,71.26,55.75s42.49,55.11,49.28,75.88l13.83,15.09-15.26,14c-14.5,13.28-59.43-12.18-100.35-56.86s-62.34-91.67-47.84-105l15.26-14Z"/><path class="cls-8" d="M1164.26,1768.26l21.75-19.92,2.34,2.56-21.89,20C1165.71,1770.05,1165,1769.16,1164.26,1768.26Z"/><path class="cls-8" d="M1180.75,1742.6l2.34,2.56-21.55,19.73c-.72-.92-1.44-1.82-2.14-2.73Z"/><path class="cls-8" d="M1175.93,1735.29l2.34,2.55-22,20.17c-.7-.94-1.38-1.87-2.06-2.81Z"/><path class="cls-8" d="M1225.41,1825.83c-1-.66-1.94-1.32-2.93-2l21.84-20,2.33,2.55Z"/><path class="cls-8" d="M1232.46,1830.4c-1-.62-2-1.25-3-1.91l20.4-18.67,2.34,2.55Z"/><path class="cls-8" d="M1144.35,1664c-14.5,13.27,6.92,60.26,47.84,104.94s85.85,70.15,100.35,56.87-6.93-60.26-47.85-104.95S1158.84,1650.74,1144.35,1664Z"/><path class="cls-10" d="M1151.83,1672.18a7,7,0,0,0-1.19,1.4c13.07-7.58,50.61,16.12,86,54.72s55.65,78.06,47,90.42a7.47,7.47,0,0,0,1.51-1.07c11.5-10.54-9-51.64-45.77-91.81S1163.34,1661.64,1151.83,1672.18Z"/><path class="cls-8" d="M1150.64,1673.58c-8.67,12.39,11.62,51.85,47,90.44s72.85,62.25,86,54.7c8.7-12.36-11.6-51.82-47-90.42S1163.71,1666,1150.64,1673.58Z"/><path class="cls-8" d="M1053.13,1202c13.38-35.88,61.44-71.86,124.53-89.09s122.76-10.68,152.53,13.42l10.09-2.76,8,29.11c12.12,44.39-44.59,98.55-126.68,121s-158.45,4.61-170.58-39.78l-8-29.11Z"/><path class="cls-8" d="M1151.28,1224.56l4.56-1.24,16.15,59.12q-2.41.21-4.8.36Z"/><path class="cls-8" d="M1178.87,1281.78,1163,1223.54l4.56-1.24,16.1,58.93C1182,1281.44,1180.45,1281.61,1178.87,1281.78Z"/><path class="cls-8" d="M1261.38,1259.43q-2.16,1-4.37,1.91l-15-55,4.56-1.24Z"/><path class="cls-8" d="M1272.3,1254.27c-1.42.72-2.87,1.42-4.32,2.11l-15.64-57.25,4.55-1.24Z"/><path class="cls-8" d="M1251.64,1263.56c-1.46.58-2.94,1.14-4.43,1.7l-15.35-56.19,4.56-1.24Z"/><path class="cls-8" d="M1043,1204.72c12.12,44.39,88.49,62.19,170.58,39.77s138.8-76.57,126.67-121-88.49-62.2-170.57-39.78S1030.9,1160.33,1043,1204.72Z"/><path class="cls-8" d="M1058.55,1200.49c.26,1,.59,2,.94,2.92-6.59-36.28,44-80.45,115.61-100s137.57-7.23,150.34,27.36c-.18-1-.41-2-.68-3-10-36.8-77.77-50.36-151.28-30.28S1048.5,1163.69,1058.55,1200.49Z"/><path class="cls-8" d="M1059.49,1203.41c12.76,34.55,78.8,46.85,150.37,27.3S1332,1167,1325.44,1130.77c-12.77-34.59-78.82-46.9-150.34-27.36S1052.9,1167.13,1059.49,1203.41Z"/><path class="cls-8" d="M1349.87,1114.34a127.79,127.79,0,0,1,18.47,3.07c4.89,1.15,9.7,2.52,14.48,4,1.62-4.72,3.36-9.42,5.32-14a128.27,128.27,0,0,1,8.42-16.72,128,128,0,0,1-3.07,18.47c-1.15,4.88-2.51,9.7-4,14.47,4.73,1.62,9.42,3.36,14,5.32a127.71,127.71,0,0,1,16.72,8.43,127.78,127.78,0,0,1-18.47-3.06c-4.89-1.15-9.7-2.52-14.47-4-1.62,4.73-3.36,9.42-5.32,14a126.48,126.48,0,0,1-8.43,16.72,127.78,127.78,0,0,1,3.06-18.47c1.15-4.89,2.52-9.7,4-14.48-4.73-1.62-9.42-3.36-14-5.32A127.76,127.76,0,0,1,1349.87,1114.34Z"/><path class="cls-8" d="M1792.51,651c.54-26.38,23.61-60.69,60.72-86.24s77.39-34.85,102.23-25.95l5.94-4.08,11.79,17.12c18,26.11-6.6,74.21-54.88,107.45s-102,39-120,12.91l-11.79-17.12Z"/><path class="cls-8" d="M1861.47,643.39l2.67-1.84,23.95,34.77c-1,.45-2,.9-3,1.33Z"/><path class="cls-8" d="M1892.41,674.33l-23.58-34.26,2.68-1.84,23.86,34.66C1894.38,673.39,1893.4,673.85,1892.41,674.33Z"/><path class="cls-8" d="M1941,641c-.79.75-1.59,1.5-2.4,2.24l-22.29-32.37,2.68-1.84Z"/><path class="cls-8" d="M1946.91,635.21c-.76.78-1.55,1.57-2.33,2.35l-23.18-33.67,2.67-1.85Z"/><path class="cls-8" d="M1935.58,645.94c-.81.71-1.65,1.41-2.49,2.11l-22.75-33,2.68-1.85Z"/><path class="cls-8" d="M1786.57,655.1c18,26.1,71.68,20.32,120-12.92s72.85-81.34,54.88-107.44-71.68-20.33-120,12.91S1768.59,629,1786.57,655.1Z"/><path class="cls-1" d="M1795.7,648.82c.39.57.83,1.15,1.27,1.68-12.53-22.09,10.35-62.31,52.44-91.3s87.81-36,104-16.38c-.34-.61-.73-1.22-1.12-1.79-14.9-21.65-62-15.07-105.25,14.7S1780.79,627.17,1795.7,648.82Z"/><path class="cls-8" d="M1797,650.5c16.15,19.57,61.89,12.56,104-16.42s65-69.19,52.44-91.26c-16.17-19.59-61.91-12.58-104,16.38S1784.44,628.41,1797,650.5Z"/></g><path class="cls-4" d="M1731.87,1472.93H1435.63a15,15,0,0,1-15-15h0a15,15,0,0,1,15-15h296.24a15,15,0,0,1,15,15h0A15,15,0,0,1,1731.87,1472.93Z"/><path class="cls-4" d="M1731.87,1533.76H1435.63a15,15,0,0,1-15-15h0a15,15,0,0,1,15-15h296.24a15,15,0,0,1,15,15h0A15,15,0,0,1,1731.87,1533.76Z"/><path class="cls-4" d="M1731.87,1597.32H1435.63a15,15,0,0,1-15-15h0a15,15,0,0,1,15-15h296.24a15,15,0,0,1,15,15h0A15,15,0,0,1,1731.87,1597.32Z"/><path class="cls-4" d="M1717.76,753.54v453.32a7.18,7.18,0,0,0,7.18,7.19h0a7.18,7.18,0,0,0,7.18-7.19V753.54a7.18,7.18,0,0,0-7.18-7.18h0A7.18,7.18,0,0,0,1717.76,753.54Z"/><path class="cls-4" d="M1435.38,1093v113.89a7.19,7.19,0,0,0,7.19,7.19h0a7.18,7.18,0,0,0,7.18-7.19V1093a7.17,7.17,0,0,0-7.18-7.18h0A7.18,7.18,0,0,0,1435.38,1093Z"/><path class="cls-4" d="M1556.31,716.18v453.31a7.19,7.19,0,0,0,7.19,7.19h0a7.18,7.18,0,0,0,7.18-7.19V716.18a7.18,7.18,0,0,0-7.18-7.19h0A7.19,7.19,0,0,0,1556.31,716.18Z"/><path class="cls-4" d="M1522.78,927.78v241.71a7.18,7.18,0,0,0,7.18,7.19h0a7.19,7.19,0,0,0,7.19-7.19V927.78a7.19,7.19,0,0,0-7.19-7.18h0A7.18,7.18,0,0,0,1522.78,927.78Z"/><path class="cls-4" d="M1689,792.83v332.59a7.19,7.19,0,0,0,7.19,7.19h0a7.19,7.19,0,0,0,7.18-7.19V792.83a7.18,7.18,0,0,0-7.18-7.18h0A7.18,7.18,0,0,0,1689,792.83Z"/><path class="cls-4" d="M1660.27,792.83v332.59a7.18,7.18,0,0,0,7.18,7.19h0a7.19,7.19,0,0,0,7.19-7.19V792.83a7.18,7.18,0,0,0-7.19-7.18h0A7.17,7.17,0,0,0,1660.27,792.83Z"/><path class="cls-4" d="M1629.61,792.83v332.59a7.18,7.18,0,0,0,7.18,7.19h0a7.19,7.19,0,0,0,7.19-7.19V792.83a7.18,7.18,0,0,0-7.19-7.18h0A7.17,7.17,0,0,0,1629.61,792.83Z"/><path class="cls-4" d="M1495.86,792.83v332.59a7.19,7.19,0,0,0,7.19,7.19h0a7.18,7.18,0,0,0,7.18-7.19V792.83a7.17,7.17,0,0,0-7.18-7.18h0A7.18,7.18,0,0,0,1495.86,792.83Z"/><path class="cls-4" d="M1465.2,792.83v332.59a7.19,7.19,0,0,0,7.19,7.19h0a7.19,7.19,0,0,0,7.19-7.19V792.83a7.18,7.18,0,0,0-7.19-7.18h0A7.18,7.18,0,0,0,1465.2,792.83Z"/><path class="cls-4" d="M1594.15,836v332.59a7.19,7.19,0,0,0,7.19,7.18h0a7.19,7.19,0,0,0,7.19-7.18V836a7.18,7.18,0,0,0-7.19-7.19h0A7.18,7.18,0,0,0,1594.15,836Z"/><line class="cls-11" x1="2926.07" y1="843.7" x2="2926.07" y2="1289.34"/><line class="cls-11" x1="3002.84" y1="845.81" x2="3002.84" y2="1291.44"/><line class="cls-11" x1="3086.98" y1="845.81" x2="3086.98" y2="1291.44"/><line class="cls-11" x1="3159.55" y1="846.86" x2="3159.55" y2="1292.49"/><line class="cls-11" x1="3236.32" y1="848.96" x2="3236.32" y2="1294.59"/><line class="cls-11" x1="3320.45" y1="848.96" x2="3320.45" y2="1294.59"/><line class="cls-11" x1="2874.68" y1="894.04" x2="3471.85" y2="894.04"/><line class="cls-11" x1="2874.68" y1="965.56" x2="3471.85" y2="965.56"/><line class="cls-11" x1="2874.68" y1="1031.81" x2="3471.85" y2="1031.81"/><line class="cls-11" x1="2874.68" y1="1166.43" x2="3471.85" y2="1166.43"/><line class="cls-11" x1="2874.68" y1="1237.94" x2="3471.85" y2="1237.94"/><line class="cls-11" x1="3403.54" y1="848.96" x2="3403.54" y2="1294.59"/><line class="cls-12" x1="2854.11" y1="827.57" x2="2854.11" y2="1325.56"/><line class="cls-12" x1="3497.04" y1="1302.07" x2="2828.09" y2="1296.49"/><path class="cls-4" d="M2847.11,1268.94h0a3.18,3.18,0,0,1-3.18,3.13l-20.33-.17a3.17,3.17,0,0,1-3.14-3.18h0a3.18,3.18,0,0,1,3.19-3.13l20.33.16A3.18,3.18,0,0,1,2847.11,1268.94Z"/><path class="cls-4" d="M2845.53,1214.51h0a3.15,3.15,0,0,1-3.18,3.13l-20.33-.16a3.16,3.16,0,0,1-3.13-3.18h0a3.15,3.15,0,0,1,3.18-3.13l20.33.16A3.17,3.17,0,0,1,2845.53,1214.51Z"/><path class="cls-4" d="M2847.9,1165.61h0a3.17,3.17,0,0,1-3.18,3.13l-20.34-.16a3.18,3.18,0,0,1-3.13-3.18h0a3.16,3.16,0,0,1,3.18-3.13l20.34.16A3.18,3.18,0,0,1,2847.9,1165.61Z"/><path class="cls-4" d="M2846.32,1111.19h0a3.17,3.17,0,0,1-3.18,3.13l-20.33-.17a3.15,3.15,0,0,1-3.13-3.18h0a3.15,3.15,0,0,1,3.18-3.12l20.33.16A3.16,3.16,0,0,1,2846.32,1111.19Z"/><path class="cls-4" d="M2844.81,1062.21h0a3.18,3.18,0,0,1-3.19,3.13l-20.33-.17a3.16,3.16,0,0,1-3.13-3.18h0a3.17,3.17,0,0,1,3.18-3.13l20.33.17A3.17,3.17,0,0,1,2844.81,1062.21Z"/><path class="cls-4" d="M2843.23,1007.78h0a3.16,3.16,0,0,1-3.18,3.13l-20.34-.16a3.17,3.17,0,0,1-3.13-3.18h0a3.17,3.17,0,0,1,3.18-3.13l20.34.16A3.18,3.18,0,0,1,2843.23,1007.78Z"/><path class="cls-4" d="M2845.59,958.88h0a3.15,3.15,0,0,1-3.18,3.13l-20.33-.16a3.18,3.18,0,0,1-3.13-3.18h0a3.16,3.16,0,0,1,3.18-3.13l20.33.16A3.16,3.16,0,0,1,2845.59,958.88Z"/><path class="cls-4" d="M2844,904.46h0a3.17,3.17,0,0,1-3.18,3.13l-20.34-.16a3.18,3.18,0,0,1-3.13-3.19h0a3.16,3.16,0,0,1,3.19-3.12l20.32.16A3.17,3.17,0,0,1,2844,904.46Z"/><path class="cls-4" d="M2876.49,1332.73h0a3.16,3.16,0,0,1-3.13-3.18l.16-20.33a3.17,3.17,0,0,1,3.18-3.13h0a3.15,3.15,0,0,1,3.13,3.18l-.16,20.33A3.16,3.16,0,0,1,2876.49,1332.73Z"/><path class="cls-4" d="M2894.42,1325.51h0a3.15,3.15,0,0,1-3.12-3.18l.09-12.09a3.16,3.16,0,0,1,3.18-3.13h0a3.15,3.15,0,0,1,3.13,3.18l-.09,12.09A3.17,3.17,0,0,1,2894.42,1325.51Z"/><path class="cls-4" d="M2911.72,1333h0a3.16,3.16,0,0,1-3.13-3.18l.16-20.33a3.18,3.18,0,0,1,3.18-3.13h0a3.16,3.16,0,0,1,3.13,3.18l-.16,20.34A3.16,3.16,0,0,1,2911.72,1333Z"/><path class="cls-4" d="M2929.66,1325.8h0a3.16,3.16,0,0,1-3.13-3.18l.09-12.1a3.18,3.18,0,0,1,3.19-3.13h0a3.16,3.16,0,0,1,3.12,3.18l-.09,12.1A3.18,3.18,0,0,1,2929.66,1325.8Z"/><path class="cls-4" d="M2944.85,1333.28h0a3.15,3.15,0,0,1-3.13-3.18l.16-20.33a3.16,3.16,0,0,1,3.18-3.13h0a3.16,3.16,0,0,1,3.13,3.18l-.16,20.33A3.17,3.17,0,0,1,2944.85,1333.28Z"/><path class="cls-4" d="M2962.78,1326.06h0a3.16,3.16,0,0,1-3.13-3.18l.1-12.09a3.16,3.16,0,0,1,3.18-3.13h0a3.16,3.16,0,0,1,3.13,3.18l-.1,12.09A3.15,3.15,0,0,1,2962.78,1326.06Z"/><path class="cls-4" d="M2980.08,1333.56h0a3.15,3.15,0,0,1-3.13-3.18l.16-20.33a3.18,3.18,0,0,1,3.18-3.13h0a3.17,3.17,0,0,1,3.13,3.18l-.16,20.34A3.16,3.16,0,0,1,2980.08,1333.56Z"/><path class="cls-4" d="M2998,1326.35h0a3.18,3.18,0,0,1-3.13-3.18l.1-12.1a3.17,3.17,0,0,1,3.18-3.13h0a3.16,3.16,0,0,1,3.13,3.18l-.09,12.1A3.18,3.18,0,0,1,2998,1326.35Z"/><path class="cls-4" d="M3012.68,1333.83h0a3.16,3.16,0,0,1-3.13-3.18l.16-20.33a3.16,3.16,0,0,1,3.18-3.13h0a3.15,3.15,0,0,1,3.13,3.18l-.16,20.33A3.18,3.18,0,0,1,3012.68,1333.83Z"/><path class="cls-4" d="M3030.62,1326.61h0a3.15,3.15,0,0,1-3.13-3.18l.09-12.09a3.16,3.16,0,0,1,3.18-3.13h0a3.15,3.15,0,0,1,3.13,3.18l-.09,12.09A3.16,3.16,0,0,1,3030.62,1326.61Z"/><path class="cls-4" d="M3047.91,1334.11h0a3.16,3.16,0,0,1-3.13-3.18l.16-20.33a3.17,3.17,0,0,1,3.18-3.13h0a3.15,3.15,0,0,1,3.13,3.18l-.16,20.33A3.15,3.15,0,0,1,3047.91,1334.11Z"/><path class="cls-4" d="M3065.85,1326.89h0a3.15,3.15,0,0,1-3.13-3.18l.09-12.09a3.17,3.17,0,0,1,3.18-3.13h0a3.15,3.15,0,0,1,3.13,3.18l-.09,12.09A3.16,3.16,0,0,1,3065.85,1326.89Z"/><path class="cls-4" d="M3081,1334.38h0a3.16,3.16,0,0,1-3.13-3.18l.16-20.33a3.16,3.16,0,0,1,3.18-3.13h0a3.16,3.16,0,0,1,3.13,3.18l-.16,20.33A3.18,3.18,0,0,1,3081,1334.38Z"/><path class="cls-4" d="M3099,1327.16h0a3.17,3.17,0,0,1-3.14-3.18l.1-12.09a3.16,3.16,0,0,1,3.18-3.13h0a3.15,3.15,0,0,1,3.13,3.18l-.1,12.09A3.15,3.15,0,0,1,3099,1327.16Z"/><path class="cls-4" d="M3116.27,1334.66h0a3.15,3.15,0,0,1-3.13-3.18l.16-20.33a3.18,3.18,0,0,1,3.18-3.13h0a3.16,3.16,0,0,1,3.13,3.18l-.16,20.33A3.16,3.16,0,0,1,3116.27,1334.66Z"/><path class="cls-4" d="M3134.2,1327.44h0a3.15,3.15,0,0,1-3.12-3.17l.09-12.1a3.17,3.17,0,0,1,3.18-3.13h0a3.16,3.16,0,0,1,3.13,3.18l-.1,12.09A3.15,3.15,0,0,1,3134.2,1327.44Z"/><path class="cls-4" d="M3148.34,1334.92h0a3.16,3.16,0,0,1-3.13-3.18l.17-20.33a3.16,3.16,0,0,1,3.18-3.13h0a3.16,3.16,0,0,1,3.13,3.18l-.17,20.33A3.15,3.15,0,0,1,3148.34,1334.92Z"/><path class="cls-4" d="M3166.28,1327.7h0a3.16,3.16,0,0,1-3.13-3.18l.1-12.09a3.15,3.15,0,0,1,3.18-3.13h0a3.16,3.16,0,0,1,3.13,3.18l-.1,12.09A3.16,3.16,0,0,1,3166.28,1327.7Z"/><path class="cls-4" d="M3183.57,1335.2h0a3.16,3.16,0,0,1-3.13-3.18l.17-20.33a3.16,3.16,0,0,1,3.18-3.13h0a3.18,3.18,0,0,1,3.13,3.18l-.17,20.34A3.15,3.15,0,0,1,3183.57,1335.2Z"/><path class="cls-4" d="M3201.51,1328h0a3.18,3.18,0,0,1-3.13-3.18l.1-12.1a3.16,3.16,0,0,1,3.18-3.13h0a3.18,3.18,0,0,1,3.13,3.18l-.1,12.1A3.16,3.16,0,0,1,3201.51,1328Z"/><path class="cls-4" d="M3216.7,1335.47h0a3.16,3.16,0,0,1-3.13-3.18l.16-20.33a3.17,3.17,0,0,1,3.18-3.13h0A3.15,3.15,0,0,1,3220,1312l-.16,20.33A3.15,3.15,0,0,1,3216.7,1335.47Z"/><path class="cls-4" d="M3234.64,1328.25h0a3.15,3.15,0,0,1-3.13-3.18l.1-12.09a3.16,3.16,0,0,1,3.18-3.13h0a3.17,3.17,0,0,1,3.13,3.18l-.1,12.09A3.16,3.16,0,0,1,3234.64,1328.25Z"/><path class="cls-4" d="M3251.93,1335.75h0a3.16,3.16,0,0,1-3.13-3.18l.17-20.33a3.16,3.16,0,0,1,3.18-3.13h0a3.18,3.18,0,0,1,3.13,3.18l-.17,20.34A3.15,3.15,0,0,1,3251.93,1335.75Z"/><path class="cls-4" d="M3269.87,1328.54h0a3.17,3.17,0,0,1-3.13-3.18l.1-12.1a3.16,3.16,0,0,1,3.18-3.13h0a3.18,3.18,0,0,1,3.13,3.18l-.1,12.1A3.17,3.17,0,0,1,3269.87,1328.54Z"/><path class="cls-4" d="M3284.53,1336h0a3.17,3.17,0,0,1-3.13-3.18l.17-20.33a3.15,3.15,0,0,1,3.18-3.13h0a3.16,3.16,0,0,1,3.13,3.18l-.17,20.33A3.16,3.16,0,0,1,3284.53,1336Z"/><path class="cls-4" d="M3302.47,1328.8h0a3.16,3.16,0,0,1-3.13-3.18l.1-12.09a3.15,3.15,0,0,1,3.18-3.13h0a3.16,3.16,0,0,1,3.13,3.18l-.1,12.09A3.15,3.15,0,0,1,3302.47,1328.8Z"/><path class="cls-4" d="M3319.76,1336.3h0a3.16,3.16,0,0,1-3.13-3.18l.17-20.33a3.16,3.16,0,0,1,3.18-3.13h0a3.16,3.16,0,0,1,3.13,3.18l-.17,20.33A3.15,3.15,0,0,1,3319.76,1336.3Z"/><path class="cls-4" d="M3337.7,1329.08h0a3.16,3.16,0,0,1-3.13-3.18l.1-12.09a3.17,3.17,0,0,1,3.18-3.13h0a3.16,3.16,0,0,1,3.13,3.18l-.1,12.09A3.15,3.15,0,0,1,3337.7,1329.08Z"/><path class="cls-4" d="M3352.89,1336.57h0a3.16,3.16,0,0,1-3.13-3.18l.16-20.33a3.16,3.16,0,0,1,3.18-3.13h0a3.17,3.17,0,0,1,3.14,3.18l-.17,20.33A3.16,3.16,0,0,1,3352.89,1336.57Z"/><path class="cls-4" d="M3370.83,1329.35h0a3.16,3.16,0,0,1-3.13-3.18l.09-12.09A3.17,3.17,0,0,1,3371,1311h0a3.16,3.16,0,0,1,3.13,3.18l-.1,12.09A3.16,3.16,0,0,1,3370.83,1329.35Z"/><path class="cls-4" d="M3388.12,1336.85h0a3.16,3.16,0,0,1-3.13-3.18l.17-20.33a3.16,3.16,0,0,1,3.18-3.13h0a3.17,3.17,0,0,1,3.13,3.18l-.17,20.33A3.15,3.15,0,0,1,3388.12,1336.85Z"/><path class="cls-4" d="M3406.06,1329.64h0a3.18,3.18,0,0,1-3.13-3.18l.1-12.1a3.16,3.16,0,0,1,3.18-3.13h0a3.18,3.18,0,0,1,3.13,3.18l-.1,12.09A3.18,3.18,0,0,1,3406.06,1329.64Z"/><path class="cls-4" d="M3423.36,1336.3h0a3.16,3.16,0,0,1-3.13-3.18l.17-20.33a3.16,3.16,0,0,1,3.17-3.13h0a3.17,3.17,0,0,1,3.14,3.18l-.17,20.33A3.15,3.15,0,0,1,3423.36,1336.3Z"/><path class="cls-4" d="M3441.3,1329.08h0a3.16,3.16,0,0,1-3.13-3.18l.1-12.09a3.16,3.16,0,0,1,3.18-3.13h0a3.16,3.16,0,0,1,3.13,3.18l-.1,12.09A3.16,3.16,0,0,1,3441.3,1329.08Z"/><path class="cls-4" d="M3456.49,1336.57h0a3.16,3.16,0,0,1-3.13-3.18l.16-20.33a3.16,3.16,0,0,1,3.18-3.13h0a3.15,3.15,0,0,1,3.13,3.18l-.16,20.33A3.17,3.17,0,0,1,3456.49,1336.57Z"/><path class="cls-4" d="M3474.43,1329.35h0a3.15,3.15,0,0,1-3.13-3.18l.09-12.09a3.16,3.16,0,0,1,3.18-3.13h0a3.15,3.15,0,0,1,3.13,3.18l-.09,12.09A3.16,3.16,0,0,1,3474.43,1329.35Z"/><path class="cls-4" d="M3491.72,1336.85h0a3.16,3.16,0,0,1-3.13-3.18l.16-20.33a3.18,3.18,0,0,1,3.18-3.13h0a3.16,3.16,0,0,1,3.13,3.18l-.16,20.33A3.16,3.16,0,0,1,3491.72,1336.85Z"/><path class="cls-4" d="M3430.43,810.77,3209.06,1109l-84.66,114-92.46-58.88-113.15,150.14h-1.64a20.35,20.35,0,0,1-17.57-10l127.15-168.75,92.4,58.81,63.31-85.3,230.81-310.9Z"/><polygon class="cls-4" points="3374.25 814.55 3455.64 765.21 3433.13 850.53 3418.78 811.06 3374.25 814.55"/><path class="cls-1" d="M3131.43,1203.85c0,5.83-5.29,10.56-11.82,10.56s-11.82-4.73-11.82-10.56,5.29-10.56,11.82-10.56S3131.43,1198,3131.43,1203.85Z"/><path class="cls-1" d="M3331.69,938.64c0,5.83-5.29,10.56-11.82,10.56s-11.82-4.73-11.82-10.56,5.29-10.56,11.82-10.56S3331.69,932.81,3331.69,938.64Z"/><path class="cls-1" d="M3042.51,1153.59c0,5.83-5.29,10.56-11.82,10.56s-11.82-4.73-11.82-10.56,5.29-10.56,11.82-10.56S3042.51,1147.76,3042.51,1153.59Z"/><path class="cls-6" d="M3048.09,2592c0,12.27,111.11,22.23,248.17,22.23s248.17-10,248.17-22.23-111.11-22.24-248.17-22.24S3048.09,2579.68,3048.09,2592Z"/><path class="cls-13" d="M3217.5,2559.16c6.71-10.83,66.89-68.54,66.89-68.54s12.3,9.64,11.7,20.25c-.57,10.11-.14,63.33.2,74.16H3289l-4.6-29.5s-16.64,26.61-29.13,35.72-54.69,7.48-64.81,6.13S3210.79,2570,3217.5,2559.16Z"/><path class="cls-14" d="M3398.73,1973.2l-91.62-42.66c-20.65,72.12-33.16,165.25-35.41,264.09l-1.12,10.48-.49,4.63L3247.69,2462l-.44,0s-.53,10.7-1.43,21.11l-.13,1.46c-.47,5.21-1,10.23-1.69,13.63-1.94,10.24-4.28,21.91-10,34.07s-25.31,35.44-18.56,38.47,29.31-8.59,39.83-20.25c12.2-13.51,25-31.73,28.35-43.2s0-19.24,0-19.24l1.14-3.38h0l6.85-20.36h-.14c10.12-27.37,25.22-59.74,33.69-90.15,28.45-96.54,13.33-163.27,13.33-163.27C3362.89,2138.79,3394.33,2081.86,3398.73,1973.2Z"/><path class="cls-13" d="M3362,2477.57s-13.95,5.68-14.47,25.31-.24,76.36-.24,76.36h7.12l4.1-24s2.46,19.4,12.27,31.8,31,12.91,44.93,10.84,3.62-27.89-2.06-42.35S3396,2506.5,3396,2506.5Z"/><path class="cls-14" d="M3413.51,1915.91l-103.24,55.19c1.51,47.9,21.94,232.45,21.94,232.45s-16.74,35.75-1.07,129.43c8.83,52.77,22.11,111.63,28.21,148.18-3.43,6.09-6.38,17.31-3.08,30.5,4.13,16.53,6.88,40.64,16.52,51s34.79,10.67,36.85,2.4-12.74-38.9-13.43-54.75c-.33-7.55-1.13-21.21-1.87-33.43l.22,0,17.07-263.92q.3-8.45.55-16.69l.15-5C3437.51,1998.71,3413.51,1915.91,3413.51,1915.91Z"/><path class="cls-15" d="M3205.1,1714.26c-54.48-13.87-114.36-98.38-114.36-98.38l15.34-13.3c15.88,18.72,81.91,51,81.91,51-.36-17.14.09-32.77,1.17-47,7.33-96.67,43.78-128.88,53.72-136a24.16,24.16,0,0,1,2.53-1.63s0,.71.09,2c.15,2.87.41,8.66.68,16.6C3248.2,1546.79,3250.62,1725.85,3205.1,1714.26Z"/><path class="cls-14" d="M3075.72,1619.73s45.23,6.52,25.83-33.2C3093.11,1572.45,3075.72,1619.73,3075.72,1619.73Z"/><path class="cls-14" d="M3085.1,1578.67s-11.62-1.31-19-4.07c-6.43-2.4-28.72-11.9-33.21-7.9-7.28,6.49,12.82,8.09,23.08,14.8s2.14,17.25,9.83,21.43,13.92,4.11,17.81-3.29S3085.1,1578.67,3085.1,1578.67Z"/><path class="cls-15" d="M3087.09,1606.07s13.86-14.11,14.46-19.54-16.49-23-16.49-23,1.2-10.86-1.63-12.35-7.33,4.4-7.7,11.78c-.25,5.08,4.1,10.27,6.83,13a3.39,3.39,0,0,1,.41,4.33c-2,2.92-5,7.86-5,11.07C3078,1596.07,3087.09,1606.07,3087.09,1606.07Z"/><path class="cls-16" d="M3050.56,1583.72a8.42,8.42,0,0,0,.2,2.14,25.65,25.65,0,0,0,.71,2.66,8,8,0,0,0,1.18,10.62,6.56,6.56,0,0,0-.36,5.18c1,3.45,4,6.91,6.21,9.14.2.21.4.4.58.58,3.29,3.22,18.73,8.5,22.81,3.9s5.94-14.37,5.94-14.37-14.83-8.1-22.39-5.21l.07-.07c4.44-4.52.51-6.84.14-7h0a3.84,3.84,0,0,0,1.39-1.18,3.68,3.68,0,0,0,.52-1.11,5.19,5.19,0,0,0-.71-3.83c-2.42-4.54-8.31-7.73-12.85-5.73C3051.52,1580.47,3050.66,1582,3050.56,1583.72Z"/><path class="cls-14" d="M3052.29,1604.32c.7-1.4,1-3.35,2.93-4.3a13.1,13.1,0,0,1,7.75-.84c1.74.31,8.52,3,8.52,3a12.71,12.71,0,0,0-6-3.77s-7.74-4.21-12.79.78A6.56,6.56,0,0,0,3052.29,1604.32Z"/><path class="cls-15" d="M3081.89,1617.94c-4.08,4.6-19.52-.68-22.81-3.9-.18-.18-.38-.37-.58-.58a11.37,11.37,0,0,1-.33-4.35c.28-2.3,2-3.26,5.47-2s5.93,1.26,7.06-.18c3.16-4-5.26-8.58-5.26-8.58,7.57-2.89,22.39,5.21,22.39,5.21S3086,1613.35,3081.89,1617.94Z"/><path class="cls-14" d="M3050.76,1585.86a25.65,25.65,0,0,0,.71,2.66c4.05-.91,14.16,2.72,14.16,2.72a3.84,3.84,0,0,0,1.39-1.18C3062.09,1587.43,3056,1585.44,3050.76,1585.86Z"/><path class="cls-17" d="M3248.24,1598.24c-2.83,69-13.14,137.25-43.17,132.86-36.8-5.37-46.39-39.72-48.35-65.26a146.68,146.68,0,0,1,.54-28.37s18.11-.09,21-2.79c13.91-12.85,9.78-138.88,16.66-152s51.57-21.49,51.57-21.49S3251.05,1530.07,3248.24,1598.24Z"/><path class="cls-18" d="M3248.24,1598.24c-2.83,69-13.14,137.25-43.17,132.86-36.8-5.37-46.39-39.72-48.35-65.26,9-.46,25-2.66,31.27-12.3,9.05-13.8,37.28-102.64,37.28-102.64S3236.38,1570.84,3248.24,1598.24Z"/><path class="cls-19" d="M3207.86,1693.6s72.69,17.67,139.95-4.73c0,0,40.92,80,51.08,113.58S3484.45,2435,3484.45,2435s-168.92,48.85-281.18,6.66c0,0-31.72-628.65-17-676.83S3207.86,1693.6,3207.86,1693.6Z"/><path class="cls-20" d="M3236.92,2441.66s-31.73-628.65-17-676.83c10.61-34.75,17.15-56.42,20-65.81a275.77,275.77,0,0,1-32-5.42s-6.88,23.05-21.6,71.23,17,676.83,17,676.83c39,14.64,84.74,18.32,127.92,16.87C3298.58,2457.36,3265.87,2452.54,3236.92,2441.66Z"/><path class="cls-19" d="M3268.49,1701.14c-34.81-1.06-60.63-7.54-60.63-7.54s-.34,1.15-1,3.45A331,331,0,0,0,3268.49,1701.14Z"/><path class="cls-20" d="M3398.89,1802.45c-10.16-33.6-50.48-112.31-50.48-112.31-5.49,1.83-7.66,3.67-13.24,5,8.08,17.37,36.24,78.66,44.91,107.33,10.16,33.61,85.55,632.55,85.55,632.55s-76.53,22.13-160.81,23.73c91.34,1.8,179.63-23.73,179.63-23.73S3409.05,1836.06,3398.89,1802.45Z"/><path class="cls-21" d="M3367.44,1448.4H3197.6c5.17-7.24,7.68-15.76,10-30,2.39-14.72.55-43.92-1.66-67.77-4.23-45.8,32.94-85,78.88-82.79l2.09.12c70.09,4.46,75.25,64.51,68.72,100.88C3349.68,1401.91,3345.62,1427.29,3367.44,1448.4Z"/><path class="cls-13" d="M3215.85,1317.89s-9.44,37-3.39,43.52,15-7.42,15-7.42S3223,1319.38,3215.85,1317.89Z"/><path class="cls-14" d="M3226.26,1367s-9.76-11.53-15.27,0-1.27,34.86,13.58,31Z"/><path class="cls-19" d="M3234.82,1395.63a15.89,15.89,0,1,1-13.59.09,15.68,15.68,0,0,1,5.95-1.54c.38-1,.71-2,1.13-3h-.19a18.82,18.82,0,1,0,9.32,2.47Z"/><path class="cls-14" d="M3250.91,1426.11v31.79s16.76,27.45,66.78-5.8c-9.48-10.58-9.76-31-5.93-43.22a69.62,69.62,0,0,1-9.73,5.17c-1.24.56-2.57,1.13-4,1.73C3285.54,1421,3266.74,1427.34,3250.91,1426.11Z"/><path class="cls-16" d="M3250.91,1426.11V1441c13.59-3,37.44-10.45,51.12-27-1.24.56-2.57,1.13-4,1.73C3285.54,1421,3266.74,1427.34,3250.91,1426.11Z"/><path class="cls-15" d="M3223.73,1415.72c26.71,27.62,86-5.35,87.89-6.42l.05,0c.55-2.47,1-4.93,1.49-7.35a194.06,194.06,0,0,0,1.92-57.78,43.76,43.76,0,0,0-28.38-43.5c-18.64-6.79-35.36,1.41-45.41,4.51-15.16,4.67-24.7,24.27-24.79,52.19C3216.4,1391.61,3217.1,1408.85,3223.73,1415.72Z"/><path class="cls-21" d="M3259.25,1332s-5.54.54-3.59,5.63,13.06-.52,21,8.84C3276.68,1346.42,3280.07,1334.23,3259.25,1332Z"/><path class="cls-21" d="M3234.14,1332s5.54.54,3.59,5.63-13.07-.52-21,8.84C3216.71,1346.42,3213.32,1334.23,3234.14,1332Z"/><path class="cls-14" d="M3300.07,1394.89c.17.4,4.84,11.23,11.55,14.41h0l0,0c.55-2.47,1-4.93,1.49-7.35A27.3,27.3,0,0,1,3300.07,1394.89Z"/><path class="cls-14" d="M3306.58,1370.22s14.2-19.07,24.6-4.08c8.57,12.35-7.57,45.24-24.93,33.22Z"/><path class="cls-19" d="M3321.29,1399.58a16.14,16.14,0,1,1-7.63-1.39c.37-1,.7-2,1.12-2.94h-.18a18.57,18.57,0,0,0-7.35,1.5,18.81,18.81,0,1,0,26.16,17.32,19.11,19.11,0,0,0-9.61-16.46A20,20,0,0,1,3321.29,1399.58Z"/><path class="cls-16" d="M3308.52,1393.91h-.17a1.47,1.47,0,0,1-1.29-1.61,27.31,27.31,0,0,1,16-22.07,1.46,1.46,0,1,1,1.08,2.71,24.4,24.4,0,0,0-14.18,19.68A1.46,1.46,0,0,1,3308.52,1393.91Z"/><path class="cls-16" d="M3322.15,1385.05a1.46,1.46,0,0,1-.92-.33h0c-1.27-1-5.12-3.56-7.64-2.91a1.46,1.46,0,1,1-.72-2.83c4.39-1.13,9.62,3,10.21,3.48a1.46,1.46,0,0,1-.93,2.59Z"/><path class="cls-16" d="M3245,1355.23s2.1,11.69,0,15-9.87,4.44-9.87,4.44,4.91-3.51,6.63-6.42S3245,1355.23,3245,1355.23Z"/><path d="M3257.68,1356.14a8.64,8.64,0,0,1,3.61-6.79,11.59,11.59,0,0,1,7.7-2.06,8.2,8.2,0,0,1,3.93,1.42,9.86,9.86,0,0,1,2.77,3,9.62,9.62,0,0,1,1.18,7.61,11.36,11.36,0,0,0-2.28-6.87,8.06,8.06,0,0,0-5.74-3.45,11.63,11.63,0,0,0-6.83,1.46A9.76,9.76,0,0,0,3257.68,1356.14Z"/><path d="M3260.9,1356.67c.61-3.71,3.93-5.56,7.42-5.32s5.86,4.22,5.33,7.43c-.61,3.71-3.94,5.56-7.43,5.32S3260.37,1359.88,3260.9,1356.67Z"/><path d="M3220.83,1354.54a8.69,8.69,0,0,1,3.6-6.8,11.68,11.68,0,0,1,7.71-2,8.2,8.2,0,0,1,3.93,1.42,9.86,9.86,0,0,1,2.77,3,9.62,9.62,0,0,1,1.18,7.61,11.36,11.36,0,0,0-2.28-6.87,8.11,8.11,0,0,0-5.74-3.46,11.69,11.69,0,0,0-6.83,1.47A9.76,9.76,0,0,0,3220.83,1354.54Z"/><path d="M3224.05,1355.07c.61-3.71,3.94-5.56,7.42-5.32s5.85,4.22,5.33,7.43c-.61,3.71-3.94,5.56-7.43,5.32S3223.53,1358.28,3224.05,1355.07Z"/><path class="cls-16" d="M3269,1387.74c.48-.21-4.66,10.06-15.84,11.14-15.65,1.5-20.74-9.92-20.74-9.92S3247.61,1396.61,3269,1387.74Z"/><path class="cls-13" d="M3245.42,1286.37a51.24,51.24,0,0,0-31.84,25.71c-4.06,7.94-8.06,18.61,3.9,18.93,32.61.88,54.7-29.81,54.7-29.81s1.67,31.56,27.4,31.56,27.73-19.09,15-32C3304.26,1290.33,3275.8,1277.78,3245.42,1286.37Z"/><path class="cls-13" d="M3302.61,1326.93s-9.1,39.08,2,44.88,20.66-26.58,15.59-53.85Z"/><path class="cls-15" d="M3469.6,1828.45l-20,6s-66.09-109.65-72.1-138.18c-2-9.29-6.76-27.88-12.37-48.7-11.61-43.13-26.58-95.91-26.58-95.91l-4.93-21.36-16.83-72.86s32.21,3.29,51.05,11.17c6.25,2.6,11,5.71,12.67,9.36,13.84,30.43,27.66,107.24,37.37,162,5.41,30.54,9.54,54.24,11.69,59.26C3435.55,1713.29,3453.91,1790.4,3469.6,1828.45Z"/><path class="cls-22" d="M3476.88,1726.51c0,17.33-17.67,28-36.63,33.16-18.24,5-37.67,4.91-43.74.85-10.48-7-27.56-85.12-32.55-108.89-.89-4.31-1.4-6.84-1.4-6.84s-13.62,32.51-14,35.54c-.19,1.36-.36,3.24-.48,4.89-.14,2-.22,3.65-.22,3.65s-73.93,37.31-138.64,3c0,0-26.3-152-14.89-178.2,5.68-13,35.28-39.84,47.12-51.41,2.66-2.6,2.4-7.75,1.37-12.46a5.44,5.44,0,0,1,6.66-6.46c7.62,2,21.32,1.64,36-3.18a87.07,87.07,0,0,0,22-10.76,3.36,3.36,0,0,1,5.22,2.38c1.12,9.07,3.86,25.62,8.86,25.62,6.88,0,53.88,5.73,57.32,11.54,1.2,2,13.42,29.67,28.84,66.3a.25.25,0,0,1,0,.09C3436.68,1604.08,3476.88,1704.35,3476.88,1726.51Z"/><path class="cls-18" d="M3362.56,1644.79s-13.62,32.51-14,35.54c-.19,1.36-.36,3.24-.48,4.89a67.15,67.15,0,0,1-22.66,11.91c-23,7-33.06-37.18-31.68-59.22s34-84.94,44.82-86.25S3362.56,1644.79,3362.56,1644.79Z"/><path class="cls-23" d="M3364,1651.63c-.89-4.31-1.4-6.84-1.4-6.84A34.66,34.66,0,0,1,3364,1651.63Z"/><path class="cls-24" d="M3269.47,1708.67c-42.06,0-59.4-14.47-60.68-15.46l-2.73-19.81c.41.3,56.85,34.19,144.2,1.73l-1.85,15C3314.82,1702.62,3291.32,1708.67,3269.47,1708.67Z"/><path class="cls-18" d="M3476.88,1726.51c0,17.33-17.67,28-36.63,33.16,26.14-31.13-31.07-219.49-32.53-224.3C3436.68,1604.08,3476.88,1704.35,3476.88,1726.51Z"/><path class="cls-18" d="M3321.53,1457.44s-35.19,22.29-61.82,17c0,0-6.39-4,2.42-8.1,8.28-3.8,27.54-15,23.31-26.15a87.07,87.07,0,0,0,22-10.76,3.36,3.36,0,0,1,5.22,2.38C3313.79,1440.89,3316.53,1457.44,3321.53,1457.44Z"/><path class="cls-14" d="M3449.46,1834.29c-1.47,2-.41,6.12-.78,9.35a38.08,38.08,0,0,0,1.42,14.39c2,5.4,8.58,21,13,22.83s-.27-12.07-1.17-14.94a11.33,11.33,0,0,1-.46-5.14s13.2,31,16.86,32.1-2.08-17.36-3.53-21.91c0,0,11.24,22.85,13.78,22.79,5.08-.13-6.67-25.85-6.67-25.85s10.43,18.73,13.46,16.93c3.21-1.91-8-21.94-8-21.94s8.59,11.21,11.91,10.85-12.89-25.31-15.84-28.84-10.13-13.72-14.72-17.63C3465.58,1824.63,3454.12,1828,3449.46,1834.29Z"/><rect class="cls-4" x="2892.76" y="577.34" width="31.96" height="31.96"/><rect class="cls-4" x="2945.93" y="589.32" width="115.21" height="8.01" rx="0.35"/><rect class="cls-4" x="2892.76" y="520.38" width="31.96" height="31.96"/><rect class="cls-4" x="2945.93" y="532.36" width="115.21" height="8.01" rx="0.35"/><rect class="cls-4" x="2892.76" y="634.28" width="31.96" height="31.96"/><path class="cls-4" d="M3060.78,654.26H2946.27a.35.35,0,0,1-.34-.35V646.6a.34.34,0,0,1,.34-.34h114.51a.35.35,0,0,1,.36.34v7.31A.36.36,0,0,1,3060.78,654.26Z"/><path class="cls-13" d="M1889.58,2522l-43.22-2.83-2.48,72.12,19.66-.53-1.07-8.14,25.76,9.3,104.14,1.17s-23-22.06-55.61-30.55c-20.41-5.31-37.49-20.39-47.18-40.54Z"/><path class="cls-13" d="M1647,2517.7l-35.46-2.9-11.34,73.85,20.13-.54,3.3-8.34,30.78,9.53,97.83,1.19s-23.75-22.79-57.39-31.39c-20.63-5.28-37.85-20.61-47.65-41Z"/><path class="cls-25" d="M1796.15,1706.64s-112,64.23-203.67,7.09c0,0-36.1,93.22-5.55,222.52s70.06,356.6,6.2,591.16c0,0,48.36,27.56,91.62,11,0,0,96.54-250.34,91-412.73,0,0,77.74,147.35,44.42,406,0,0,50,21.05,94.4,3,0,0,33.32-120.28,36.1-249.58s-25-273.65-66.64-366.86S1806.37,1734.58,1796.15,1706.64Z"/><path class="cls-26" d="M1801.42,1720.63c-2.17-5.63-3.94-10.34-5.27-14,0,0-43.59,25-98.62,29.92C1737.91,1740.42,1776.06,1730.17,1801.42,1720.63Z"/><path class="cls-26" d="M1629.37,2527.41c63.86-234.56,24.34-461.85-6.2-591.16-23.31-98.68-7.81-176.33.84-207.58a152.06,152.06,0,0,1-31.53-14.94s-36.1,93.22-5.55,222.52,70.06,356.6,6.2,591.16c0,0,39.45,22.47,78.95,14.64A144.76,144.76,0,0,1,1629.37,2527.41Z"/><path d="M1612.52,1731.09c-11.77,59.63-5.35,120.83,5.11,180.14,11.08,62.78,27,124.74,34.7,188.09,4.91,40.2,8.66,80.72,9.9,121.21a835.26,835.26,0,0,1-5.88,126.77c-6.76,55.2-18.43,109.72-32.29,163.54q-3.12,12.16-6.41,24.27a.4.4,0,0,0,.77.21c15.07-55.78,28.12-112.25,36.27-169.5a847.4,847.4,0,0,0,8.67-129c-.45-39.47-3.85-78.8-8-118-6.49-60.52-19.94-119.66-31.59-179.31-11.83-60.53-21.69-122.89-14.2-184.62,1-7.91,2.22-15.77,3.76-23.58.1-.5-.67-.71-.76-.21Z"/><path class="cls-26" d="M1830.15,2387.92s24.29-298.11-89.87-496.27c0,0,33.2,87.68,37.25,238.49,0,0,8.27,22.49,17,45.59C1823.67,2252.89,1830.15,2387.92,1830.15,2387.92Z"/><path d="M1670.64,1736.63a74.29,74.29,0,0,1-9,11.85,75.75,75.75,0,0,1-10.91,9.72,74.89,74.89,0,0,1-12.42,7.33,70.56,70.56,0,0,1-13.46,4.67,65.6,65.6,0,0,1-14,1.74h-1.76a.4.4,0,0,0,0,.79,65.16,65.16,0,0,0,14.27-1.39,69.86,69.86,0,0,0,13.66-4.36,73.89,73.89,0,0,0,12.74-7.11,76,76,0,0,0,20.55-21.26c.33-.52.66-1,1-1.58s-.42-.83-.68-.4Z"/><path d="M1689.6,1740.23a89.94,89.94,0,0,1-11.37,18.13,84.55,84.55,0,0,1-14.3,13.87,86,86,0,0,1-16.6,9.89,91.25,91.25,0,0,1-18.14,6,98.59,98.59,0,0,1-18.9,2.27l-2.37,0a.4.4,0,0,0,0,.8,101,101,0,0,0,19.16-1.84,93.25,93.25,0,0,0,18.42-5.6,86.59,86.59,0,0,0,17-9.49,85,85,0,0,0,14.77-13.52,89.26,89.26,0,0,0,11.83-17.67c.42-.82.82-1.64,1.22-2.47.22-.46-.47-.86-.69-.4Z"/><path d="M1584.39,1746.63a22.07,22.07,0,0,0,11.39,5.09c.21,0,.39-.2.4-.39a.41.41,0,0,0-.4-.4,21.12,21.12,0,0,1-10.83-4.86c-.39-.33-1,.23-.56.56Z"/><path d="M1592.13,1765.57a21,21,0,0,1-11.87-4.14c-.41-.3-.81.39-.4.69a21.74,21.74,0,0,0,12.27,4.24.4.4,0,0,0,0-.79Z"/><path d="M1738.44,1731.17q1.43,9.55,2.26,19.18t1.09,19.12q.26,9.62,0,19.25t-1.19,19.11q-.88,9.62-2.36,19.16c-.12.79-.24,1.58-.37,2.36-.08.5.68.72.77.21q1.53-9.49,2.49-19.06t1.36-19.29q.39-9.68.19-19.35t-1-19.41q-.78-9.59-2.12-19.12c-.11-.79-.23-1.58-.34-2.37-.08-.5-.84-.29-.77.21Z"/><path class="cls-1" d="M1804.67,1731.91c-10,.86-20-4.5-26-13.06"/><path d="M1804.67,1731.51a26,26,0,0,1-11.29-1.62,30.35,30.35,0,0,1-9.93-6.15,32.35,32.35,0,0,1-4.47-5.09c-.29-.41-1,0-.69.41a33,33,0,0,0,8.74,8.48,29.33,29.33,0,0,0,11,4.45,25.83,25.83,0,0,0,6.63.31c.5,0,.51-.83,0-.79Z"/><path class="cls-1" d="M1812.19,1747.56c-18.92,2.6-38.86-7.37-49.29-24.67"/><path d="M1812.09,1747.18a44.82,44.82,0,0,1-11,.11,48.4,48.4,0,0,1-10.75-2.5,52.29,52.29,0,0,1-19-11.92,50.78,50.78,0,0,1-7.3-9c-.26-.4-.51-.8-.76-1.21a.4.4,0,0,0-.69.4,53,53,0,0,0,7.2,9.35,53.85,53.85,0,0,0,8.89,7.39,52.71,52.71,0,0,0,10.12,5.23,49.28,49.28,0,0,0,10.93,2.85,46.64,46.64,0,0,0,11.2.21l1.41-.18a.4.4,0,0,0,.28-.48.41.41,0,0,0-.49-.28Z"/><path class="cls-14" d="M2010.69,1819.07q10,13,18.55,24c68.93,88.28,72.93,83.15,72.93,83.15,26-2,35.61-27.42,35.61-27.42l-51.33-89.51-18.09-31.55C2050,1784.22,2028.31,1797.65,2010.69,1819.07Z"/><path class="cls-16" d="M2010.69,1819.07q10,13,18.55,24c16.53-11.7,39.65-24.52,57.21-33.78l-18.09-31.55C2050,1784.22,2028.31,1797.65,2010.69,1819.07Z"/><path class="cls-22" d="M1898.89,1566.27c5.6,54.59,9.45,125.88,61.23,198.67,13,18.3,29.42,39,46.66,59.75,17.64-21.42,52.65-35.89,71-42.36l-64.27-119.22s-20.39-237.37-31.59-255.57-39.09-21.94-61.58-2.8C1899.59,1422.42,1893.28,1511.67,1898.89,1566.27Z"/><path class="cls-15" d="M2101.68,1926.22c7.84,3.74,42,3.76,42,3.76s30.51,5.86,42.77,6.39c4.69.21,10.62.57,16.28.69,3.39.08,6.68.07,9.55-.1,4.85-.3,8.52-1.07,9.46-2.73,2.46-4.27-40.82-48.59-49.51-48.59-13.72,0-56.37,4.27-56.37,4.27C2090.4,1897.38,2093.83,1922.48,2101.68,1926.22Z"/><path class="cls-14" d="M2202.76,1937.06c3.39.08,6.68.07,9.55-.1-11.12-13.67-35.32-35.89-36.12-33.7C2175.51,1905.1,2192.26,1924.9,2202.76,1937.06Z"/><path class="cls-14" d="M2151.75,1933s34.18,9.12,42,3.31-29.66-19-42.19-21.18-57.48-6.47-49.37,11.13S2151.75,1933,2151.75,1933Z"/><path class="cls-27" d="M1584.49,1718.85c19.38,26.17,100.29,34.61,123.55,40.43s64.72,10.45,124.83,4.63c.6-11.89,3.35-62,16.92-100.46,8.55-24.25,18.35-44.23,21.72-49.47,8.25-12.84,81-124.58,81-124.58s39.6-73.72,29.91-84.38-60.68-34.83-60.68-34.83-41.14-9.31-60.15-7.68c-5.52.48-19.34.79-36.6,2-42.14,3-104.85,11.63-117.91,41.89C1688.66,1449.08,1592.13,1652.82,1584.49,1718.85Z"/><path class="cls-28" d="M1737.81,1759.28c-23.26-5.82-104.17-14.26-123.55-40.43,7.64-66,104.17-269.77,122.58-312.42,13.06-30.26,75.78-38.86,117.91-41.89,9.83-.71,18.53-1.11,25.23-1.42a104.51,104.51,0,0,0-18.4-.61c-5.52.48-19.34.79-36.6,2-42.14,3-104.85,11.63-117.91,41.89-18.41,42.65-114.94,246.39-122.58,312.42,19.38,26.17,100.29,34.61,123.55,40.43,18.06,4.51,47.09,8.31,87.29,7.07C1770.21,1765.51,1751.06,1762.58,1737.81,1759.28Z"/><path class="cls-28" d="M1686.53,1653.89c6.53,4.89,104,16,163.26,11.49,8.55-24.25,16.5-44.7,19.87-50,0,0-42.14,21.37-84.87,25.64S1678,1647.48,1686.53,1653.89Z"/><path class="cls-14" d="M1814,1810.54q8.49,11,15.93,20.62c71.48,91.84,75.58,86.55,75.58,86.55,26-2,35.58-27.42,35.58-27.42l-49.61-86.51-19.78-34.55C1853.29,1775.73,1831.64,1789.12,1814,1810.54Z"/><path class="cls-16" d="M1814,1810.54q8.49,11,15.93,20.62a352.47,352.47,0,0,1,61.55-27.38l-19.78-34.55C1853.29,1775.73,1831.64,1789.12,1814,1810.54Z"/><path class="cls-22" d="M1702.2,1557.76c5.59,54.59-1.62,119.29,50.17,192.08,13,18.29,40.48,45.6,57.72,66.34,17.64-21.42,52.65-35.89,71-42.36l-64.28-119.21s-20.38-237.38-31.57-255.58-39.11-21.94-61.6-2.79C1702.91,1413.92,1696.59,1503.17,1702.2,1557.76Z"/><path class="cls-14" d="M1975.57,1877.13s15.44,1.87,18.38,3.21,28.68,26.7,31.62,29.37,16.42,6.41,17.9,9.08-5.65,10.94-18.39,6.94S1980.23,1885.94,1975.57,1877.13Z"/><path class="cls-15" d="M1905,1917.72c7.84,3.74,42,3.76,42,3.76s30.51,5.85,42.76,6.39c4.7.21,10.62.56,16.28.69,3.39.08,6.69.06,9.56-.11,4.85-.3,8.51-1.07,9.46-2.72,2.45-4.27-40.82-48.6-49.51-48.6-13.72,0-56.37,4.27-56.37,4.27C1893.71,1888.88,1897.14,1914,1905,1917.72Z"/><path class="cls-14" d="M2006.06,1928.56c3.39.08,6.69.06,9.56-.11-11.13-13.67-35.32-35.89-36.13-33.7C1978.81,1896.59,1995.56,1916.39,2006.06,1928.56Z"/><path class="cls-25" d="M1970.59,1292.88s5.68-30.57-9.24-46.3c-11.2-11.81-51.58-42.77-97.19-12.5-40.83,27.1-36.7,71.38-9.68,113.32C1917.39,1360.3,1970.59,1292.88,1970.59,1292.88Z"/><path class="cls-14" d="M1835.19,1371.54l38.85-67.41,60.8,30.07-33.61,79.91S1837.82,1428.29,1835.19,1371.54Z"/><path class="cls-16" d="M1855.74,1337.65c4.29,14.29,9.72,22.13,22.91,32.89,9.37,7.65,24.17,14.46,33.69,18.4a77.28,77.28,0,0,1,8-18c5.71-27.05-53.87-54.62-58.58-46.18C1860.59,1326.85,1858.39,1331.64,1855.74,1337.65Z"/><path class="cls-14" d="M1990.37,1308.51c0,7-9.28,23.19-18.72,26.88-8.69,3.4-14,2.62-14,2.62s.17-1.4.55-3.7c.13-.81.3-1.74.49-2.77,2.36-12.91,9.08-40.39,23-37.8C1989.13,1295.12,1990.37,1301.55,1990.37,1308.51Z"/><path class="cls-14" d="M1831.54,1299.54c0,7.47,10,24.91,20.1,28.87,9.34,3.66,15,2.83,15,2.83s-.19-1.51-.6-4c-.14-.87-.32-1.88-.52-3-2.54-13.87-9.75-43.38-24.69-40.6C1832.87,1285.16,1831.54,1292.07,1831.54,1299.54Z"/><path class="cls-16" d="M1837.79,1304.24s1.4-6.83,7-7.31c5.9-.5,11.11,9.51,11.11,9.51s-9.91-1.7-10.78,6c-.66,9,16.46,13.78,21,14.87-.14-.87-.32-1.88-.52-3-3-.19-11.63-5.46-12.8-9.34-1.21-4.08,1.92-6,7.65-4.76-3.47-11.38-11.12-20-16.85-20C1834.05,1290.14,1837.79,1304.24,1837.79,1304.24Z"/><path class="cls-15" d="M1860.82,1310.15c.27,4.47.58,9.39,1,14.58,1.37,19,12.9,28.8,26.31,37,12.18,7.44,43.69,22.59,59.08,13.9,11.91-6.73,20.4-57.9,23.43-82.74l-8.2-7.45-1.56-17.2s-14.71.2-22-.67c-15.38-1.83-45.35-5.44-45.35-5.44l-3,20.83-18.62,2.23Z"/><path class="cls-16" d="M1941.31,1343.3s-7.31,7-21.54,3.59c-18.26-4.38-21-21.41-21-21.41S1915.3,1345.92,1941.31,1343.3Z"/><path class="cls-16" d="M1935.74,1300.91s-6.45,10.42-4.71,18.36,10.17,13.16,10.17,13.16S1933.76,1322,1935.74,1300.91Z"/><path class="cls-25" d="M1924.26,1295.69s-7.08-2.61-12.29-2.23a100.44,100.44,0,0,0-12.47,2,14.78,14.78,0,0,1,13.59-7.45C1919.42,1288.18,1924.26,1295.69,1924.26,1295.69Z"/><path d="M1960.19,1308a8.64,8.64,0,0,0-2.76-5.06,7.67,7.67,0,0,0-10.11,0,8.59,8.59,0,0,0-2.76,5.06,7.23,7.23,0,0,1,1.82-6,8,8,0,0,1,2.69-2,8.35,8.35,0,0,1,3.3-.7,8.08,8.08,0,0,1,6,2.67A7.27,7.27,0,0,1,1960.19,1308Z"/><path d="M1947.06,1307.54a5.42,5.42,0,0,1,1.86-3.57l1.17-.75a5.33,5.33,0,0,1,6.35,1.37,5.33,5.33,0,0,1-.61,7.52l-1.17.75a5.33,5.33,0,0,1-6.35-1.37A5.46,5.46,0,0,1,1947.06,1307.54Z"/><path class="cls-25" d="M1965.41,1297s-7.07-2.61-12.29-2.24a100.37,100.37,0,0,0-12.48,2,14.81,14.81,0,0,1,13.59-7.45C1960.57,1289.48,1965.41,1297,1965.41,1297Z"/><path d="M1919.69,1306.85a8.63,8.63,0,0,0-2.75-5.06,7.69,7.69,0,0,0-10.12,0,8.63,8.63,0,0,0-2.75,5.06,7.26,7.26,0,0,1,1.81-6,8.09,8.09,0,0,1,2.7-2,8.32,8.32,0,0,1,3.3-.7,8.06,8.06,0,0,1,6,2.67A7.23,7.23,0,0,1,1919.69,1306.85Z"/><path d="M1906.57,1306.35a5.42,5.42,0,0,1,1.86-3.57l1.16-.75a5.35,5.35,0,0,1,6.36,1.37,5.5,5.5,0,0,1,1.24,3.95,5.42,5.42,0,0,1-1.86,3.57l-1.16.75a5.33,5.33,0,0,1-7.6-5.32Z"/><path class="cls-29" d="M2414.38,2338.43h30.36a7.8,7.8,0,0,1,7.8,7.8V2583a0,0,0,0,1,0,0h-46a0,0,0,0,1,0,0V2346.24A7.81,7.81,0,0,1,2414.38,2338.43Z" transform="translate(4859.11 4921.46) rotate(180)"/><polygon class="cls-30" points="2428.73 2544.22 2656.63 2557.64 2656.63 2598.2 2428.73 2598.2 2200.84 2598.2 2200.84 2557.64 2428.73 2544.22"/><path class="cls-30" d="M2402,2259.42h55a14.15,14.15,0,0,1,14.15,14.15v110.81a0,0,0,0,1,0,0h-83.3a0,0,0,0,1,0,0V2273.56A14.15,14.15,0,0,1,2402,2259.42Z" transform="translate(4859.1 4643.79) rotate(180)"/><path class="cls-29" d="M2498.54,2223.4v40.67a17,17,0,0,1-17.05,17H2376a17,17,0,0,1-17.05-17V2223.4Z"/><path class="cls-31" d="M2073,1605.92c0,32.21,32.22,463.11,44.3,516.8s51,99.33,87.25,112.75,473.85,4,494,4c16.84,0,31.8-11.26,37-32.21a65.54,65.54,0,0,0,1.91-13.42c1.36-29.54.91-64.88-16.1-73.83-25.51-13.42-248.34-4-248.34-4s-67.11-455-68.91-511.43a105.05,105.05,0,0,0-3.4-24.44c-9.78-35.71-39-44.68-72.65-48.05-40.29-4-159.75-1.35-202.71,4S2073,1573.7,2073,1605.92Z"/><path class="cls-19" d="M2109.25,1646.19c4,38.91,28.19,426.86,60.41,490s68.46,71.14,132.89,71.14h433a65.54,65.54,0,0,0,1.91-13.42c1.36-29.54.91-64.88-16.1-73.83-25.51-13.42-248.34-4-248.34-4s-67.11-455-68.91-511.43a105.05,105.05,0,0,0-3.4-24.44c-10.15-9.28-26-16.63-50.89-18.07-76.81-4.48-197.56,2-217.75,10.29C2109.25,1581.75,2105.23,1607.25,2109.25,1646.19Z"/><path class="cls-32" d="M2468.78,1997.57s230,55.1,268.21,78.32,131.47,454,131.47,454-90.17,31.42-117.49,68.3c-45.08-196.72-109.61-404.82-109.61-404.82s-181.69-50.54-218.57-64.2-95.63-56-110.66-110.66S2454.67,1988.93,2468.78,1997.57Z"/><path class="cls-33" d="M2751,2598.2h61.24l16.43.06h146.55a163,163,0,0,0-11.57-13.38c-7.39-7.63-17.3-16.31-26.74-19.47-18.24-6.07-45.91-24.59-55.79-33.58s-48.8-30.25-64-26.61c-12.51,3-51.1,42.12-62.81,73.89-.71,1.95-1.33,3.89-1.83,5.77A38.64,38.64,0,0,0,2751,2598.2Z"/><path d="M2751,2598.2h61.24l16.43.06h146.55a245.89,245.89,0,0,0-21.07-13.38H2752.44A38.64,38.64,0,0,0,2751,2598.2Z"/><path class="cls-26" d="M2901.61,2552.35c16.62,11.35,43.37,19.05,47.83,24.32l4.47,5.28-96.9-1.22S2875.66,2550.73,2901.61,2552.35Z"/><path class="cls-26" d="M2789.71,2532.28s31,21,48.95,27.37,33.75,10.94,36.8,27.06l3.64.61s3.65-8.51-12.76-20.38-26.15-9.42-41.66-18.85-32.53-20.37-32.53-20.37Z"/><path class="cls-34" d="M2169.37,2079.32c9.23,23.55,183.4,111.67,183.4,111.67l58.42,407.21s10.28-6.15,25.12-14.41c2.44-1.36,5-2.78,7.66-4.23,30.17-16.51,81-46.65,99.29-47.27-17.42-96.32-40.91-302.36-50.12-364.87s-126-130.11-126-130.11l-24.6-41-93.64,22.58-49.81,12-30.72,7.41S2160.15,2055.74,2169.37,2079.32Z"/><path class="cls-32" d="M2386.55,2176.41s-174.17-93.86-183.4-119a68.84,68.84,0,0,1-4.33-26.47l-30.47,7.35s-8.2,17.41,1,41S2352.77,2191,2352.77,2191l58.42,407.21s10.28-6.15,25.12-14.41l4.75-2.63Z"/><path class="cls-26" d="M2199.07,2030.92c8.8,22.16,21.95,41.31,28.37,46.35,6.57,5.16,72.89,44.88,113.69,69.2a76.88,76.88,0,0,1,36.83,55.62l58.35,381.7c2.44-1.36,5-2.78,7.66-4.23l-59.19-382.83a76.89,76.89,0,0,0-36.08-55c-23.51-14.37-58.75-36-100.09-61.7,10.38-23.07,6-45.71.27-61.09Z"/><path class="cls-33" d="M2411.19,2598.2h61.25l16.42.06h146.55a161.55,161.55,0,0,0-11.56-13.38c-7.4-7.63-17.31-16.31-26.75-19.47-18.24-6.07-45.91-24.59-55.79-33.58s-48.8-30.25-64-26.61c-12.52,3-51.11,42.12-62.81,73.89-.72,1.95-1.34,3.89-1.84,5.77A38.88,38.88,0,0,0,2411.19,2598.2Z"/><path d="M2411.19,2598.2h61.25l16.42.06h146.55a243.92,243.92,0,0,0-21.07-13.38H2412.66A38.88,38.88,0,0,0,2411.19,2598.2Z"/><path class="cls-26" d="M2561.83,2552.35c16.62,11.35,43.38,19.05,47.84,24.32l4.46,5.28-96.9-1.22S2535.88,2550.73,2561.83,2552.35Z"/><path class="cls-26" d="M2449.93,2532.28s31,21,49,27.37,33.76,10.94,36.79,27.06l3.65.61s3.65-8.51-12.77-20.38-26.15-9.42-41.66-18.85-32.53-20.37-32.53-20.37Z"/><path class="cls-16" d="M2780.7,1827.27l-41,20.48s-32.1,2.74-32.56-10,39.16-52.14,44.85-53.28,29.15,7.29,31.2,9.79,7.51,30.51,7.51,30.51Z"/><path class="cls-15" d="M2778.2,1832.39c-.48,5.73,3.19,9.22,8,6.71,3.18,7.29,9.36,4.39,15.93-3.18,7.52-8.65,8.61-14.76,8-19.36-1.13-8.19-4.77-9.79-4.77-9.79a73.91,73.91,0,0,0-5.09-10.7,15.18,15.18,0,0,0-2.65-3.41c-3.65-3.19-35.64,4.45-35.64,4.45l22,2.66-2.93,18.64C2779.45,1825.44,2778.43,1829.66,2778.2,1832.39Z"/><path class="cls-14" d="M2786.17,1839.1c15.71-12.74,19.13-32.33,19.13-32.33a73.91,73.91,0,0,0-5.09-10.7C2798.74,1815.58,2794.06,1825.64,2786.17,1839.1Z"/><path class="cls-14" d="M2757.48,1781.5s24.59-5.23,31.42,1.6,17.76,48.26,10.93,53.73-21.17-37.57-21.17-37.57l-20.73-.23Z"/><path class="cls-14" d="M2728.32,1849.59s-133.9,85.54-220.06,40.91c-35.34-45.87-68.19-109.1-67.57-111s76.86-32.85,76.86-32.85l50.84,73.76,144.43.62S2740.09,1831.61,2728.32,1849.59Z"/><path class="cls-15" d="M2754.75,1766.7c11.83,2.28,12.3,22.31,11.83,31.42s-1.82,36.89-6.83,37.8c-3.76.69-6.76-26.22-8-39.59a2.93,2.93,0,0,0-5.22-1.53c-4.25,5.42-8.46,10.87-12.5,16.45s-8.39,10.61-6.76,18c3.23,14.74,20.76,12.16,27.94,22.79,5.69,8.42,3.31,19.55-3.41,16.39-3.87-1.82-10.93-9.34-16.85-10.25-9.14-1.4-18.41-2.72-27.12-6-4.83-1.83-9.47-4.15-11.8-9-7.37-15.31,7.55-30.55,16.76-41.29s19.39-21.61,30.95-30.06C2746.41,1769.93,2751.06,1766,2754.75,1766.7Z"/><path class="cls-35" d="M2473.56,1645.12c23.66,8.89,83.1,141.16,83.1,141.16s-77.18,29.38-98.35,53.28c-25.28-61.47-48.5-103.14-47.13-136.61S2434.17,1630.32,2473.56,1645.12Z"/><path class="cls-36" d="M2443.83,1690.42c1.56-17.06,7.9-35.22,18.43-48.17-32.22-4.13-49.86,30.59-51.08,60.7-1.37,33.47,21.85,75.14,47.13,136.61,4.88-5.51,12.74-11.31,22-17C2458.87,1764.91,2440.79,1723.54,2443.83,1690.42Z"/><path class="cls-1" d="M2157.31,2052.9l311.47-55.33-29.37-96.3,4.08-31.53,12.31-94.84s23.9-118.85,17.76-129.78-68.31-45.76-68.31-45.76c-8.19-6.83-54-12.3-66.93-9.57s-107.93,30.75-125,46.46-64.2,195.35-66.26,261.6S2157.31,2052.9,2157.31,2052.9Z"/><path class="cls-37" d="M2172.08,1915.34c2.06-66.25,49.17-245.9,66.25-261.6s112-43.71,125-46.45,58.75,2.74,66.94,9.56c0,0,19.59,11,37.87,22.55-16.67-14.14-62.89-40-62.89-40-8.19-6.83-54-12.3-66.93-9.57s-107.93,30.75-125,46.46-64.2,195.35-66.26,261.6,10.25,155.05,10.25,155.05l22.36-4C2176.18,2018.52,2170.65,1961.47,2172.08,1915.34Z"/><path class="cls-37" d="M2255.43,1922.55c2.06,9.22,184-21.28,184-21.28l4.08-31.53C2398.83,1876.4,2253.67,1914.62,2255.43,1922.55Z"/><path class="cls-14" d="M2111,1873.71c-1-2.11-.54-38.7,24.05-91.53,28.22.92,72.4,24.6,72.4,24.6l-13.66,51.91s-9.11,29.59-15.48,34.15S2132.91,1920.16,2111,1873.71Z"/><path class="cls-35" d="M2222,1630.55c-4.62-5.38-59.2,43.26-77,83.79-17.09,39-25.5,65.57-25.5,65.57s17.76,20.49,54.19,31,51.46,6.83,51.46,6.83S2269.33,1685.65,2222,1630.55Z"/><path class="cls-36" d="M2204.86,1810.87c-36.43-10.47-54.19-31-54.19-31s8.41-26.56,25.51-65.57c11-25.22,36.34-53.56,55-70.1a72.87,72.87,0,0,0-9.2-13.69c-4.62-5.38-59.2,43.26-77,83.79-17.09,39-25.5,65.57-25.5,65.57s17.76,20.49,54.19,31,51.46,6.83,51.46,6.83.21-.63.58-1.8C2219.76,1814.78,2212.82,1813.16,2204.86,1810.87Z"/><path class="cls-15" d="M2314.07,1910.8s-65.62,7.42-92.24,8.66-66,2.62-89.55-22.86-23.86-38.3-16.06-51.56,35.91-16.12,57.72-8.5,54.87,24.79,72.53,28.94,48.26,6.45,48.26,6.45Z"/><path class="cls-14" d="M2287.09,1881s-9.5,12.39-5.55,30.76,37.28,5,44.31-16C2315.66,1874.7,2287.09,1881,2287.09,1881Z"/><path class="cls-16" d="M2367.59,1889.33c1.94.25,21.23-4.26,23.3-2.4s.13,12.6-17.59,15.8-21.88-6.58-21.88-6.58-8,6.9-14.23,9.17c-8.83,3.24-15.47.81-15.47.81s-18.31,12.7-22.79,9.54-7.85-17.57.3-30.7,22.9-20.08,30.84-19.14S2365.67,1889.08,2367.59,1889.33Z"/><path class="cls-15" d="M2287.09,1881c1-5.84,8.7-1.8,8.7-1.8s-2.59-7.1,3.48-11.1c2.32-1.52,8.31,2.51,8.31,2.51s-2.88-8.8.36-11,10.63,0,10.63,0,2.19-1.31,5.33-2.88c3-1.49,11.11.12,14.51,1.76,12.12,5.82,20.87,19.21,24.4,26.33l0,.06a4.42,4.42,0,0,1-2.71,6.23l-.63.18A4.45,4.45,0,0,1,2355,1890c-7.16-7.77-20.95-18.59-23-17.87l-5.3,1.87,0,0c.47.82,18,31.87,15.25,35.76s-4.8,4-9-.48c-5.6-5.94-19.28-28.46-19.28-28.46s11.44,31.94,9.3,34.77-3.48,4.1-7.31,1.71-14.37-28.44-14.37-28.44,6.13,32.24.37,33.59S2286.12,1886.87,2287.09,1881Z"/><path class="cls-14" d="M2318.57,1859.63s2.19.9,8.15,14.41l5.3-1.87-8.12-15.42C2320.76,1858.32,2318.57,1859.63,2318.57,1859.63Z"/><path class="cls-13" d="M2338.79,1466.24c-13.13,8-20.16,22-22.22,30.67s22.27,36.85,22.27,36.85-15,3.91-11.49,9.73,37.61,25.89,80.83,22.18,56.63-20,60.43-53.57c7.37-65.17-20.33-89.31-49.33-89.41S2345.22,1449.76,2338.79,1466.24Z"/><path class="cls-21" d="M2355.68,1455.79c-2.25,2.79-25.39,19.83-24,32.41s24.16,39.56,24.16,39.56-12.6,6.93-7.1,12.47,89.1,10.64,100.72-3.18,18.52-58.56,10.93-69.39S2373.22,1434.09,2355.68,1455.79Z"/><path class="cls-14" d="M2344.47,1612.7c8,9.57,38,26.64,52.82,28.69,11.16-3.64,24.82-20.49,23.45-20.72s-13.66-12.06-15-18.68a47.38,47.38,0,0,1,1.3-5.77,70.64,70.64,0,0,1,7.35-16.53c5.24-24.81-49.41-50.1-53.73-42.36-1.08,2-3.1,6.34-5.53,11.85-7.26,16.48-18.22,43-19.07,44.4C2334.91,1595.4,2336.5,1603.14,2344.47,1612.7Z"/><path class="cls-16" d="M2355.11,1549.18c3.94,13.11,8.91,20.3,21,30.17,8.6,7,22.17,13.26,30.9,16.87a70.64,70.64,0,0,1,7.35-16.53c5.24-24.81-49.41-50.1-53.73-42.36C2359.56,1539.28,2357.54,1543.67,2355.11,1549.18Z"/><path class="cls-14" d="M2478.59,1522.45c0,6.38-8.51,21.27-17.17,24.66-8,3.12-12.81,2.41-12.81,2.41s.16-1.29.51-3.4q.18-1.12.45-2.55c2.16-11.83,8.32-37,21.08-34.66C2477.45,1510.18,2478.59,1516.07,2478.59,1522.45Z"/><path class="cls-14" d="M2332.92,1514.23c0,6.85,9.13,22.85,18.43,26.48,8.56,3.35,13.75,2.59,13.75,2.59s-.17-1.38-.54-3.65c-.13-.8-.29-1.72-.48-2.73-2.33-12.72-8.94-39.79-22.65-37.24C2334.14,1501,2332.92,1507.37,2332.92,1514.23Z"/><path class="cls-15" d="M2359.77,1524c.24,4.1.53,8.62.87,13.37,1.26,17.42,11.83,26.41,24.13,33.93,11.18,6.82,40.08,20.72,54.19,12.75,10.92-6.18,18.7-53.1,21.48-75.89,0,0-6.62-4.45-7.51-6.83-1.39-3.71,1.51-13.12-1.43-15.77-3.75-3.39-13.49.18-20.2-.63-14.11-1.67-33.27-11.35-41.59-5-3.84,2.93.29,15.39-2.8,19.1-2.75,3.31-17.08,2-17.08,2Z"/><path class="cls-16" d="M2433.59,1554.37s-6.7,6.42-19.76,3.29a25.54,25.54,0,0,1-19.27-19.64S2409.74,1556.77,2433.59,1554.37Z"/><path class="cls-16" d="M2428.48,1515.48s-5.92,9.56-4.32,16.85,9.33,12.07,9.33,12.07S2426.66,1534.84,2428.48,1515.48Z"/><path class="cls-21" d="M2418,1510.7s-6.49-2.39-11.27-2a94.41,94.41,0,0,0-11.44,1.88,13.56,13.56,0,0,1,12.47-6.83C2413.52,1503.81,2418,1510.7,2418,1510.7Z"/><path d="M2436.23,1521.6a7.78,7.78,0,0,1,.47-3,6.44,6.44,0,0,1,1.76-2.59l.05,0c.52-.4,1-.78,1.58-1.15h0l.08,0a8,8,0,0,1,4.34-.86h-.07a6.63,6.63,0,0,1,3.19,1,8.05,8.05,0,0,1,2.41,2.13,7.71,7.71,0,0,1,1.28,2.89,6.16,6.16,0,0,1-.08,3,7.67,7.67,0,0,0-.72-2.79,8.46,8.46,0,0,0-1.5-2.3,8.34,8.34,0,0,0-2.17-1.58,5.36,5.36,0,0,0-2.41-.69h-.08a7.29,7.29,0,0,0-3.54.54l.09,0c-.56.34-1.13.66-1.7,1l0,0a6.47,6.47,0,0,0-1.83,1.92A11.65,11.65,0,0,0,2436.23,1521.6Z"/><path d="M2439.61,1521.92a4.22,4.22,0,0,1,1.45-2.77l.9-.58a4.12,4.12,0,0,1,4.94,1.06,4.24,4.24,0,0,1,1,3.07,4.18,4.18,0,0,1-1.45,2.77l-.9.59a4.19,4.19,0,0,1-2.18.38,4.13,4.13,0,0,1-2.76-1.45A4.22,4.22,0,0,1,2439.61,1521.92Z"/><path class="cls-21" d="M2455.69,1511.9s-6.49-2.39-11.27-2.05a93.13,93.13,0,0,0-11.44,1.87,13.58,13.58,0,0,1,12.47-6.83C2451.25,1505,2455.69,1511.9,2455.69,1511.9Z"/><path d="M2397.77,1520.05a9.27,9.27,0,0,1,.61-3.43,7.35,7.35,0,0,1,2.07-3l0,0c.62-.45,1.24-.9,1.88-1.33h0l.08,0a9.22,9.22,0,0,1,5-1h-.07a7.77,7.77,0,0,1,3.68,1.13,9.69,9.69,0,0,1,2.8,2.46,8.92,8.92,0,0,1,1.51,3.34,7.11,7.11,0,0,1,0,3.55,8.91,8.91,0,0,0-.77-3.3,9.69,9.69,0,0,0-1.74-2.74,9.58,9.58,0,0,0-2.56-1.9,6.44,6.44,0,0,0-2.9-.84h-.08a8.63,8.63,0,0,0-4.22.65l.09,0c-.65.4-1.31.79-2,1.16l0,0a7.66,7.66,0,0,0-2.14,2.31A13.22,13.22,0,0,0,2397.77,1520.05Z"/><path d="M2401.73,1520.43a4.92,4.92,0,0,1,1.69-3.25l1.06-.68a4.86,4.86,0,0,1,5.79,1.24,5,5,0,0,1,1.14,3.6,4.88,4.88,0,0,1-1.7,3.25l-1.06.69a5,5,0,0,1-2.54.45,4.89,4.89,0,0,1-3.25-1.7A5,5,0,0,1,2401.73,1520.43Z"/><path class="cls-33" d="M2501.86,1893.16c0,5.29,2.86,9.58,6.39,9.58H2943c3.52,0,6.38-4.29,6.38-9.58h0c0-5.29-2.86-9.58-6.38-9.58H2508.25c-3.53,0-6.39,4.29-6.39,9.58Z"/><path class="cls-33" d="M2617.8,1843.9h318.93a34.9,34.9,0,0,0,34.19-28.88l41.59-229.6c3.92-21.66-12.47-41.61-34.19-41.61H2659.39a34.89,34.89,0,0,0-34.19,28.87l-41.59,229.61C2579.68,1823.94,2596.08,1843.9,2617.8,1843.9Z"/><path class="cls-25" d="M2602.9,1803.15l42.45-224.85c3.09-16.39,17.77-28.28,34.89-28.28h324.11a35.79,35.79,0,0,1,8.14,30l-43.06,234.41A36,36,0,0,1,2934,1843.9H2637.79C2615.63,1843.9,2598.89,1824.35,2602.9,1803.15Z"/><path class="cls-33" d="M2739,1878.47a26.18,26.18,0,0,0,26.18,26.18h43.51a26.19,26.19,0,0,0,26.19-26.18l19.35-110.36a26.18,26.18,0,0,0-26.18-26.18h-43.51a26.18,26.18,0,0,0-26.18,26.18Z"/><path class="cls-38" d="M2750.12,1878.47a26.18,26.18,0,0,0,26.18,26.18h43.52a26.18,26.18,0,0,0,26.18-26.18l16.45-100.79a26.18,26.18,0,0,0-26.18-26.18h-43.52a26.18,26.18,0,0,0-26.18,26.18Z"/><path class="cls-13" d="M1362.28,1940.83c0-15.6,7.28-28.24,16.26-28.24h2005c9,0,16.25,12.64,16.25,28.24h0c0,15.6-7.27,28.25-16.25,28.25h-2005c-9,0-16.26-12.65-16.26-28.25Z"/><path class="cls-39" d="M1490.91,1940.83c0-15.6,5.65-28.24,12.62-28.24h1557.3c7,0,12.63,12.64,12.63,28.24h0c0,15.6-5.65,28.25-12.63,28.25H1503.53c-7,0-12.62-12.65-12.62-28.25Z"/><polygon class="cls-39" points="1631.49 1969.08 1511.63 2606.25 1488 2606.25 1561.99 1969.08 1631.49 1969.08"/><polygon class="cls-13" points="1631.47 1969.08 1620.03 2036.35 1554.9 2036.35 1561.98 1969.08 1631.47 1969.08"/><polygon class="cls-39" points="1837.29 1969.08 1717.43 2606.25 1693.81 2606.25 1767.79 1969.08 1837.29 1969.08"/><polygon class="cls-13" points="1837.28 1969.08 1825.83 2036.35 1760.71 2036.35 1767.79 1969.08 1837.28 1969.08"/><polygon class="cls-39" points="3143.86 1969.08 3263.72 2606.25 3287.34 2606.25 3213.36 1969.08 3143.86 1969.08"/><polygon class="cls-13" points="3143.88 1969.08 3155.32 2036.35 3220.45 2036.35 3213.37 1969.08 3143.88 1969.08"/><polygon class="cls-39" points="2961.24 1969.08 3081.1 2606.25 3104.72 2606.25 3030.74 1969.08 2961.24 1969.08"/><polygon class="cls-13" points="2961.26 1969.08 2972.7 2036.35 3037.82 2036.35 3030.75 1969.08 2961.26 1969.08"/></g></svg>