<?xml version="1.0" encoding="utf-8"?>
<!-- Generator: Adobe Illustrator 24.0.1, SVG Export Plug-In . SVG Version: 6.00 Build 0)  -->
<svg version="1.1" id="Customer_Service" xmlns="http://www.w3.org/2000/svg" xmlns:xlink="http://www.w3.org/1999/xlink" x="0px"
	 y="0px" viewBox="0 0 1600 1200" style="enable-background:new 0 0 1600 1200;" xml:space="preserve">
<style type="text/css">
	.st0{fill:#FFFFFF;}
	.st1{fill:#F9FAFF;}
	.st2{fill:#41449F;}
	.st3{fill:#FFC92C;}
	.st4{fill:#FF5AA0;}
	.st5{fill:#FFCACA;}
	.st6{fill:#686BFF;}
	.st7{fill:#DCE2FF;}
	.st8{fill:#EDBCBC;}
	.st9{fill:#ED4A98;}
	.st10{fill:#575FEA;}
</style>
<g id="Background">
	<rect id="Shape_5_" class="st0" width="1600" height="1200"/>
	<path id="Shape_4_" class="st1" d="M103.23,657c0,0-13.76-84.33,25.63-113.95c39.39-29.61,95.97-49.97,105.26-12.81
		S151.36,579.31,103.23,657z"/>
	<path id="Shape_3_" class="st1" d="M1310.88,912.97c0,0-12.25-13.79-16.85-50.55c-4.6-36.76,12.25-55.91,32.93-71.23
		c20.68-15.32,39.06,6.89,39.83,32.17C1367.56,848.63,1369.09,929.82,1310.88,912.97z"/>
	<path id="Shape_2_" class="st1" d="M848.58,425.6c0,0-24.64,138.23-160.54,141.87c-83.63,2.24-13.44-19.41,9.71-23.15
		c23.15-3.73,63.47-12.69,133.65-124.69C831.4,419.63,862.02,383.04,848.58,425.6z"/>
	<path id="Shape_1_" class="st1" d="M273,1098c0,0-161.45-57.47-167.22-243.23S209.43,592.39,301.72,558.7
		s173.99,32.34,345.64,48.32C819,623,869,537,914,435s90-199,334-199c131,0,210,264,122,420s-133,112-115,210s51.34,232-171.83,232
		S273,1098,273,1098z"/>
	<path id="Shape" class="st1" d="M1065.4,210.18c0,0,49.27-30.8,90.08-15.4c40.8,15.4-8.47,7.7-37.72,16.94
		S1034.61,235.58,1065.4,210.18z"/>
</g>
<g id="Woman">
	<path id="Shape_30_" class="st2" d="M307.54,833.63c0,0-100.7,4.45-110.09,46.71s4.69,84.02,25.82,128.62s50.44,88.59,50.44,88.59
		h110.81c0,0-11.48-18.15-19.22-43.41S307.54,833.63,307.54,833.63z"/>
	<path id="Shape_29_" class="st3" d="M384.52,1097.55h-58.2c0,0-84.82-184.05-93.82-211.05s15.21-43.16,15.21-43.16l0.02-0.01
		c29.09-8.34,59.81-9.7,59.81-9.7s50.02,195.25,57.76,220.51C373.04,1079.4,384.52,1097.55,384.52,1097.55z"/>
	<path id="Shape_28_" class="st4" d="M326.32,748.78c0,0-89.2,11.74-100.94,37.56c-11.74,25.82,0.9,64.68,0.9,64.68l17.45-6.98
		c0,0-11.3-50.66,2.78-57.7c14.08-7.04,65.73-18.78,65.73-18.78L326.32,748.78z"/>
	<path id="Shape_27_" class="st3" d="M1136.02,993.25c0,0-20.99-8.79-29.39-28.45c-8.4-19.66-11.76-41.5-10.08-58.97
		c1.68-17.47-15.12-45.87,0-52.42c15.12-6.55,26.87,24.02,25.19,45.87C1120.06,921.12,1158.69,993.3,1136.02,993.25z"/>
	<path id="Shape_26_" class="st3" d="M1126.79,1005.17c0,0-10.92-19.66-8.74-34.95s6.55-32.76,8.74-45.87
		c2.18-13.1,0-50.23,8.74-48.05c8.74,2.18,17.47,28.39,15.29,39.31c-2.18,10.92,2.18,32.76,0,48.05
		C1148.63,978.96,1150.81,1007.35,1126.79,1005.17z"/>
	<ellipse id="Shape_25_" class="st2" cx="465.27" cy="598.19" rx="38.78" ry="44.75"/>
	<path id="Shape_24_" class="st2" d="M519,727c0,0,146.53,56.34,152.32,45.08s55.11-121.11,55.11-121.11l76.18,22.54
		c0,0-33.51,129.84-61.31,170.1c-27.8,40.27-108.15,53.54-124.18,52.42C601.09,894.91,490.94,786.69,519,727z"/>
	<path id="Shape_23_" class="st5" d="M741.81,655.52c0,0,6.53-24.12-1.68-49.69s-6.88-60.46,10.76-34.79
		c17.64,25.67,18.56,28.51,50.92,2.45c32.37-26.06,67.36-34.17,75.68-18.04c8.31,16.13-3.15,29.21-27.8,40.27
		s-56.78,58.45-57.67,74.66L741.81,655.52z"/>
	<path id="Shape_22_" class="st6" d="M521.34,728.66c-22.52-17.51-202.26,9.75-211.21,33.62c-8.95,23.87,2.69,259.4,68.83,336.56
		h269.22c0,0-36.24-106.14-33.65-178.62C614.54,920.22,637.84,819.26,521.34,728.66z"/>
	<path id="Shape_21_" class="st2" d="M470.44,517.38c0,0-20.08,27.11-43.95,30.09c-23.87,2.98-17.9,50.72-32.82,56.69
		c-14.92,5.97-11.93,29.83-2.98,50.72s23.87,74.59-2.98,80.55c-26.85,5.97-48.02,8.93-48.02,8.93s-23.59-2.96-35.52-20.86
		s0-50.72,2.98-80.55s-2.98-56.69-14.92-74.59s-14.92-41.77,2.98-65.64c17.9-23.87,40.41-44.17,63.46-38.49
		c23.06,5.67,43.94-0.29,67.81-12.23C450.36,440.06,502.45,472.36,470.44,517.38z"/>
	<path id="Shape_20_" class="st5" d="M471.24,517.63l-77.57,8.95l-35.8,86.52L386,735c12.92,22.26,41.72,27.01,58,23
		c20.6-5.08,11.72-20.53,3-33l-11.56-40.29c20.88-2.98,38.78-23.87,50.72-50.72C498.09,607.14,471.24,517.63,471.24,517.63z"/>
	<path id="Shape_19_" class="st1" d="M372.79,738.41c0,0,107.4,83.54,125.31,116.35c0,0-22.1-101.49-26.09-131.77l-25,2
		c0,0,18.27,28.33-5.59,31.31c-27.29,3.41-50.4-12.2-55.03-21.02L372.79,738.41z"/>
	<path id="Shape_18_" class="st4" d="M453.51,747.4c-5.79,14.96-29.97,8.58-29.97,8.58l-0.04,15.25l17.9,8.95l10.66,24.71
		c0,0,31.1,28.99,46.02,49.88l-11.1-52.51l-18.73-31.03v-14.92L453.51,747.4z"/>
	<path id="Shape_17_" class="st3" d="M365.29,465.52c0,0-50.95,10.39-60.79,40.98c-9,28,2.1,71.18,20,104l19.95-27.89
		c0,0-19.4-56.03-19.4-70.94s14.53-34.25,56.49-45.47C381.55,466.2,375.77,463.93,365.29,465.52z"/>
	<ellipse id="Shape_16_" class="st2" cx="360.85" cy="625.04" rx="38.78" ry="44.75"/>
	<ellipse id="Shape_15_" class="st6" cx="354.89" cy="625.04" rx="32.82" ry="44.75"/>
	<path id="Shape_14_" class="st0" d="M385.5,655.5c0,0,11.33,11.74,35.15,8.37c23.82-3.37,23.77-6.35,23.77-6.35
		s-3.13-8.9,5.77-12.03s14.77-9.19,20.93,2.65c4.36,8.37,3.18,11.88-8.66,17.63c-15.85,7.7-14.97-2.33-14.97-2.33
		s-24.36,19.83-69.99,0.06L385.5,655.5z"/>
	<path id="Shape_13_" class="st5" d="M629.15,953.12c0,0,119.33-5.52,155.13,39.24c35.8,44.75-12.79,32.94-25.79,37.35
		c-13,4.41-30.9-10.5-48.8-10.5s-67-3.59-67-3.59L629.15,953.12z"/>
	<path id="Shape_12_" class="st2" d="M328.66,747.4c0,0-39.41,17.86-30.46,65.6s21.59,197.44,152.4,215.25
		c130.81,17.81,193.46-3.07,193.46-3.07l-11.93-83.54c0,0-164.09,11.93-181.99-29.83c-17.9-41.77-50.5-152.51-77.35-173.39
		L328.66,747.4z"/>
	<rect id="Shape_11_" x="630.07" y="1059.76" class="st7" width="626.46" height="38.83"/>
	<path id="Shape_10_" class="st3" d="M1141.02,991.07c0,0,20.99-8.79,29.39-28.45c8.4-19.66,11.76-41.5,10.08-58.97
		c-1.68-17.47,15.12-45.87,0-52.42s-26.87,24.02-25.19,45.87C1156.98,918.93,1118.35,991.12,1141.02,991.07z"/>
	<rect id="Shape_9_" x="1107.13" y="980.09" class="st2" width="54.6" height="78.63"/>
	<polygon id="Shape_8_" class="st6" points="923.89,1030.24 714.2,1030.24 714.2,1058.72 947.18,1058.72 1061.09,784.31 
		1027.43,784.31 	"/>
	<path id="Shape_7_" class="st4" d="M295.8,1024.3c0,0,156.09-9.33,193.49,13.58c25.58,15.67,41.11,36.37,47.32,62.26h-42.49
		c0,0-7.04-37.11-56.34-37.11s-130.25,0-130.25,0s-11.74-2.42-16.43-19.36C286.41,1026.72,295.8,1024.3,295.8,1024.3z"/>
	<path id="Shape_6_" class="st8" d="M435.44,684.71l4.55,15.86C391,702,380,672,380,672C413,687,423,685,435.44,684.71z"/>
</g>
<g id="Man">
	<path id="Shape_46_" class="st7" d="M1071.36,718.81c0,0,24.02-20.27,18.68-52.11h-86.54V362.72h402.01V666.7h-243.42
		C1162.09,666.7,1135.41,718.81,1071.36,718.81z"/>
	<path id="Shape_45_" class="st4" d="M1189,436c0,0-70.51,59.82-75.94,54.38c-5.43-5.43-54.33-59.76-54.33-59.76l-39.84,27.16
		c0,0,43.46,68.81,67,86.92c23.54,18.11,72.43,10.87,81.49,7.24C1176.44,548.33,1216.29,465.29,1189,436z"/>
	<path id="Shape_44_" class="st5" d="M1050.69,436.11c0,0-8.25-12.73-8.25-29.03c0-16.3-7.24-36.22-12.68-18.11
		c-5.43,18.11-5.43,19.92-28.97,10.87c-23.54-9.05-45.27-7.24-47.08,3.62c-1.81,10.87,7.24,16.3,23.54,18.11
		s43.66,23.24,47.18,32.44L1050.69,436.11z"/>
	<path id="Shape_43_" class="st4" d="M1355.71,666.04c3.62-18.11-10.87-119.52-10.87-128.57S1326.72,430.63,1324,423
		c-5-14-39.73-8.23-39.73-8.23L1210.84,427c0,0-28.97,3.62-30.78,23.54c-2.3,25.25-13.06,105.46,0,215.49H1355.71z"/>
	<path id="Shape_42_" class="st9" d="M1258.65,465.61c0,0-1.15,74.89,10.85,97.89s31,35,58,33s23.82-6.05,23.82-6.05l-6.82-52.95
		L1258.65,465.61z"/>
	<path id="Shape_41_" class="st5" d="M1181.87,300.24c0,0-3.62,36.22,0,54.33c3.62,18.11,10.87,43.46,50.7,41.65l1.81,27.16
		l-23.54,3.62c0,0,9.05,43.46,36.22,39.84c27.16-3.62,41.65-34.41,41.65-52.51l-18.11,1.81l-5.43-39.84l1.81-32.6l5.43-28.97
		l-30.78-32.6l-65.19,3.62L1181.87,300.24z"/>
	<path id="Shape_40_" class="st8" d="M1232,396c0,0,25-2,35-8c0,0-8,21-33.45,22.92L1232,396z"/>
	<path id="Shape_39_" class="st2" d="M1190.02,273.99c0,0-30.78-12.68-28.97,9.05c1.81,21.73,20.82,28.07,20.82,28.07v-10.87
		c0,0,14.49,9.05,56.14,1.81c0,0,3.62,25.35,5.43,30.78c1.81,5.43,7.24,3.62,7.24,0c0-3.62-1.81-14.49,5.43-16.3
		s12.68,3.62,9.05,16.3s-3.62,12.68-3.62,12.68l3.62,30.78c0,0,14.49,0,12.68-10.87c-1.81-10.87-5.43-10.87-1.81-27.16
		s10.87-39.84,7.24-48.89c-3.62-9.05-14.49-9.05-18.11-9.05s-7.24-10.87-21.73-21.73c-14.49-10.87-36.22-10.87-43.46-9.05
		C1192.74,251.35,1183.68,260.4,1190.02,273.99z"/>
	<polygon id="Shape_38_" class="st6" points="1212.65,361.81 1262.87,301.01 1294.14,327.41 1247.06,388.98 	"/>
	<path id="Shape_37_" class="st10" d="M1255.51,377.93v0.01L1252,382c0,0-11-17-15-21c-2.73-2.73-8.24-10.31-11.15-15.17
		l16.07-19.46L1255.51,377.93z"/>
	<path id="Shape_36_" class="st8" d="M1241.92,326.37l-16.07,19.46c-1.37-2.27-2.17-4.6-1.85-6.83c1-7,15.63-21.31,15.63-21.31
		L1241.92,326.37z"/>
	<polygon id="Shape_35_" class="st8" points="1254.88,377.93 1252.08,382.41 1253.57,386.53 1257.91,384.9 	"/>
	<path id="Shape_34_" class="st5" d="M1292.33,383.54c0,0,1.11-38.21-5.43-47.08c0,0-3.6,10.59-12.68,3.62
		c-9.07-6.97-16.08-27.15-24.34-27.16s-31.8,19.91-19.12,34.4s26.01,29.51,27.49,39.2L1292.33,383.54z"/>
	<path id="Shape_33_" class="st4" d="M1304.07,413.52c0,0,20.07-0.4,36.1,28.72C1356,471,1382,573,1341.41,580.93
		c-23.71,4.63-65.78-0.37-74.63-47.27s-13.27-148.42-13.27-148.42l46.07-3.5L1304.07,413.52z"/>
	<path id="Shape_32_" class="st9" d="M1310.15,449.71c0,0,31.52,82.06,23.69,83.67C1326,535,1310.15,449.71,1310.15,449.71z"/>
	<path id="Shape_31_" class="st9" d="M1184.44,439.83c0,0-10.44,8.17-12.44,23.17s-11.41,90.85-11.41,90.85s9.41-2.85,11.91-6.28
		L1184.44,439.83z"/>
</g>
<g id="Mail">
	<polygon id="Shape_54_" class="st6" points="844.1,176.94 775.48,245.55 844.1,284.15 910.57,245.55 	"/>
	<polygon id="Shape_53_" class="st1" points="891.27,301.3 790.49,301.3 790.49,187.66 859.84,187.66 891.27,213.92 	"/>
	<polygon id="Shape_52_" class="st7" points="860.53,187.66 860.53,214.46 891.27,214.46 	"/>
	<rect id="Shape_51_" x="801.21" y="218.09" class="st2" width="42.88" height="5.6"/>
	<rect id="Shape_50_" x="801.21" y="235.24" class="st2" width="80.41" height="5.6"/>
	<rect id="Shape_49_" x="801.21" y="252.4" class="st2" width="80.41" height="5.6"/>
	<rect id="Shape_48_" x="801.21" y="269.55" class="st2" width="80.41" height="5.6"/>
	<polygon id="Shape_47_" class="st7" points="775.48,245.55 775.48,324.89 910.57,324.89 910.57,245.55 841.95,284.15 	"/>
</g>
<g id="Message">
	<path id="Shape_58_" class="st7" d="M564.84,525.01c0,0,20.47-13.02,20.47-26.05h-40.93V387.32h178.62v111.64h-96.75
		C626.24,498.96,603.91,525.01,564.84,525.01z"/>
	<circle id="Shape_57_" class="st4" cx="680.19" cy="441.28" r="13.02"/>
	<circle id="Shape_56_" class="st4" cx="633.68" cy="441.28" r="13.02"/>
	<circle id="Shape_55_" class="st4" cx="587.16" cy="441.28" r="13.02"/>
</g>
<g id="Question_Mark">
	<path id="Shape_61_" class="st7" d="M1340.39,289.62c0,0,24.39-15.52,24.39-31.04H1316V125.55h182v133.03h-84.44
		C1413.56,258.58,1386.95,289.62,1340.39,289.62z"/>
	<path id="Shape_60_" class="st1" d="M1407.58,215.84h-7.71V201.1c0-7.93,7.63-13.99,13.75-18.86c2.28-1.81,5.72-4.54,6.16-5.67
		c0.49-2.14,0.99-8.95-2.79-13.7c-2.68-3.37-7.15-5.09-13.27-5.09c-16.87,0-18.75,13.88-18.91,15.46l-7.68-0.7
		c0.69-7.77,7.14-22.47,26.58-22.47c8.59,0,15.08,2.69,19.3,8c5.47,6.88,5.24,16.01,4.25,20.31c-0.81,3.5-4.36,6.32-8.86,9.9
		c-4.83,3.84-10.84,8.61-10.84,12.82V215.84z"/>
	<circle id="Shape_59_" class="st1" cx="1403.72" cy="229.45" r="5.48"/>
</g>
<g id="Rating">
	<rect id="Shape_67_" x="100" y="244.87" class="st7" width="326.18" height="95.78"/>
	<polygon id="Shape_66_" class="st3" points="153.07,270.41 160.4,285.26 176.79,287.65 164.93,299.2 167.73,315.53 153.07,307.82 
		138.41,315.53 141.21,299.2 129.35,287.65 145.74,285.26 	"/>
	<polygon id="Shape_65_" class="st3" points="207.43,270.41 214.76,285.26 231.15,287.65 219.29,299.2 222.09,315.53 207.43,307.82 
		192.77,315.53 195.57,299.2 183.71,287.65 200.1,285.26 	"/>
	<polygon id="Shape_64_" class="st3" points="261.79,270.41 269.12,285.26 285.51,287.65 273.65,299.2 276.45,315.53 261.79,307.82 
		247.13,315.53 249.93,299.2 238.08,287.65 254.46,285.26 	"/>
	<polygon id="Shape_63_" class="st3" points="316.16,270.41 323.49,285.26 339.87,287.65 328.01,299.2 330.81,315.53 316.16,307.82 
		301.5,315.53 304.3,299.2 292.44,287.65 308.83,285.26 	"/>
	<polygon id="Shape_62_" class="st3" points="370.52,270.41 377.85,285.26 394.24,287.65 382.38,299.2 385.18,315.53 370.52,307.82 
		355.86,315.53 358.66,299.2 346.8,287.65 363.19,285.26 	"/>
</g>
</svg>
