<svg id="_01" data-name="01" xmlns="http://www.w3.org/2000/svg" xmlns:xlink="http://www.w3.org/1999/xlink" viewBox="0 0 4680 3120"><defs><style>.cls-1{fill:#1b3d9e;}.cls-11,.cls-2{fill:#fff;}.cls-2{opacity:0;}.cls-3{fill:#5ebce0;}.cls-4{fill:#ade4ff;}.cls-5{fill:#5d1609;}.cls-6{fill:#ae3d31;}.cls-7{fill:#2d6fab;}.cls-8{fill:#78d2f7;}.cls-9{fill:#4288d7;}.cls-10{fill:#fcce4d;}.cls-12{fill:#772419;}.cls-13{fill:#0068b4;}.cls-14{fill:#005d9d;}.cls-15{fill:#368ad9;}.cls-16{fill:#ddf1f4;}.cls-17{fill:#fff3a0;}.cls-18{fill:#ff5847;}.cls-19{fill:#3b89d9;}.cls-20{fill:#ffde6f;}.cls-21{fill:#004b82;}.cls-22{fill:#5a5a67;}.cls-23{fill:#3b3b44;}.cls-24{fill:#ef4b49;}.cls-25{fill:#f58c7d;}.cls-26{fill:#cf343d;}.cls-27{fill:#fc8aa8;}.cls-28{fill:#ffcad3;}.cls-29{fill:#71122a;}.cls-30{fill:#9c2447;}.cls-31{fill:#f7727e;}.cls-32{fill:#47110d;}.cls-33{fill:#f16077;}.cls-34{clip-path:url(#clip-path);}.cls-35{fill:#1c056d;}.cls-36{fill:#68a9fd;}.cls-37{fill:#79b2fd;}.cls-38{fill:#5682da;}.cls-39{clip-path:url(#clip-path-2);}.cls-40{fill:#adafb2;}.cls-41{fill:#feb447;}.cls-42{fill:#a6aeff;}.cls-43{fill:#8396ff;}.cls-44{fill:#c7d6ee;}.cls-45{fill:#d13364;}.cls-46{fill:#f7b3d1;}.cls-47{fill:#f39137;}.cls-48{fill:#5f061f;}.cls-49{fill:#fcdadd;}.cls-50{fill:#fdc576;}.cls-51{fill:#6100e3;}.cls-52{fill:#5200c1;}.cls-53{fill:#717dff;}.cls-54{opacity:0.46;}.cls-55{fill:#8ed8f8;}.cls-56{opacity:0.4;}.cls-57{fill:#f8bd3f;}.cls-58{fill:#2c5bf2;}.cls-59{fill:#397cf1;}</style><clipPath id="clip-path"><path class="cls-1" d="M2517.86,825.18S2368,931.65,2384.94,956.41s45.44,41.26,53.38,34,125.24-142.11,125.24-142.11Z"/></clipPath><clipPath id="clip-path-2"><ellipse class="cls-1" cx="2301.78" cy="622.7" rx="147.55" ry="52.53" transform="translate(396.47 2056.49) rotate(-52.1)"/></clipPath></defs><title>01</title><rect id="_01-2" data-name="01" class="cls-2" width="4680" height="3120"/><path class="cls-3" d="M976.77,2347.2s38.28,160.08,213.47,175.87c114.06,10.29,622.17,62.67,462.08,128.25-90.37,37,46.14,87.29,486.3,105.8s1195.46-54,941.46-161.33,715.81,8.34,720.62-248.59Z"/><path class="cls-4" d="M3805,2344.74c-.11.74-.21,1.46-.32,2.2l-46.84-.21-726.16-3.08-479.17-2-14.58-.07-33.73-.15-438.35-1.85L976.4,2347s-22.45-56.7-31.21-82.64q-3.41-10.05-7.05-21.41-2.89-9-5.88-18.82-1-3.26-2-6.61c-.7-2.29-1.39-4.6-2.09-6.94Q922.66,2191.9,917,2171h0q-5.52-20.6-10.94-43.25c-.07-.33-.15-.66-.24-1q-3-12.67-5.92-25.93-4.29-19.44-8.26-40.09-3.79-19.73-7.24-40.4c-4-24.42-7.65-49.82-10.61-76.07a1354.22,1354.22,0,0,1-8.75-167,1156.9,1156.9,0,0,1,13.48-165.67c22-140.67,73.38-285.51,173.07-418,366.63-487.32,682-217.31,841.93-230.86,28.68-2.42,53.86-18.13,78.62-43,45.36-45.61,89.24-122,150.48-204.09,91.78-123,222.51-258.6,455.5-322,288.3-78.42,631.45-25.61,777.1,226.76,46.07,79.83,178.42,288.32,69.26,639.86-6.32,20.37-16.92,39.79-26.27,60.27q-11.78,25.8-20.57,49.29c-14.78,39.38-23.54,74.1-27.23,105-8.88,74.35,11.5,127,48,170.28a326.33,326.33,0,0,0,35.2,35.38c42.65,37.18,96.55,69.1,150.29,106.54,29.67,20.68,59.29,43,86.94,68.85,25.68,24,49.67,51,70.41,82.46a409.13,409.13,0,0,1,36.1,67.74c.59,1.39,1.16,2.78,1.73,4.18,13.37,32.93,23.58,69.9,29.63,111.83.3,2.13.6,4.27.88,6.43C3817.7,2189.29,3817.14,2260.51,3805,2344.74Z"/><rect class="cls-5" x="1021.9" y="2116.37" width="367.59" height="29.11" rx="11.74"/><rect class="cls-6" x="1027.94" y="1793.76" width="356.24" height="61.51" rx="10.11"/><path class="cls-7" d="M1202.71,1633.78h-32.66s-161.82-332.88-117.89-384.27C1108.78,1183.27,1182.3,1372.41,1202.71,1633.78Z"/><path class="cls-8" d="M1192.43,1633.78h-5.34l-102.85-337a2.55,2.55,0,1,1,4.88-1.49Z"/><path class="cls-8" d="M1222,1633.78h32.65s161.82-332.88,117.9-384.27C1315.87,1183.27,1242.35,1372.41,1222,1633.78Z"/><path class="cls-7" d="M1232.22,1633.78h5.34l102.86-337a2.55,2.55,0,1,0-4.88-1.49Z"/><path class="cls-9" d="M1231.61,1633.78h-28.9c-63.89-306-38.36-562.39,26.35-514.29S1231.61,1633.78,1231.61,1633.78Z"/><path class="cls-7" d="M1214.67,1181.77l-3.46,452h-5.1l3.46-452a2.58,2.58,0,0,1,2.57-2.53A2.55,2.55,0,0,1,1214.67,1181.77Z"/><path class="cls-10" d="M1359.89,1630.3l-4.23,11.22-2.67,7.1-7.67,20.36-2.68,7.1-7.87,20.9-2.67,7.1-33.78,89.68H1113.81L1080,1704.08l-2.67-7.1-7.87-20.9-2.68-7.1-7.67-20.36-2.67-7.1-4.23-11.22a11.74,11.74,0,0,1,11-15.89h285.65A11.76,11.76,0,0,1,1359.89,1630.3Z"/><polygon class="cls-11" points="1355.66 1641.52 1352.99 1648.62 1059.14 1648.62 1056.47 1641.52 1355.66 1641.52"/><polygon class="cls-11" points="1345.32 1668.98 1342.64 1676.08 1069.49 1676.08 1066.81 1668.98 1345.32 1668.98"/><polygon class="cls-11" points="1334.77 1696.98 1332.1 1704.08 1080.03 1704.08 1077.36 1696.98 1334.77 1696.98"/><polygon class="cls-12" points="1156.64 1855.27 1146.4 1888.26 1003.97 2347.39 976.13 2347.39 1066.46 1897.63 1074.97 1855.27 1156.64 1855.27"/><polygon class="cls-5" points="1074.97 1855.27 1156.64 1855.27 1146.4 1888.26 1066.46 1897.63 1074.97 1855.27"/><polygon class="cls-12" points="1436.83 2347.39 1408.99 2347.39 1262.34 1874.67 1256.32 1855.27 1337.98 1855.27 1340.04 1865.56 1340.05 1865.56 1436.83 2347.39"/><polygon class="cls-5" points="1340.04 1865.56 1262.34 1874.67 1256.32 1855.27 1337.98 1855.27 1340.04 1865.56"/><rect class="cls-12" x="1021.9" y="2053.06" width="367.59" height="29.11" rx="11.74"/><rect class="cls-13" x="2239.27" y="2124.81" width="535.02" height="143.93"/><path class="cls-14" d="M2774.29,2124.81v143.92h-535v-44.66c109.42-11.05,404.07,10.1,450.29-15.64,31.06-17.29,21.52-54.56,7.42-83.62Z"/><rect class="cls-14" x="1582.26" y="837.48" width="1854.68" height="1334.32" rx="100.27"/><rect class="cls-15" x="1631.95" y="886.55" width="1745.43" height="1157.64" rx="61.61"/><path class="cls-16" d="M3353.39,948.16V1982.59a37.65,37.65,0,0,1-37.61,37.61H1693.56a37.65,37.65,0,0,1-37.61-37.61V948.16a37.65,37.65,0,0,1,37.61-37.61H3315.78A37.65,37.65,0,0,1,3353.39,948.16Z"/><rect class="cls-15" x="1733.36" y="984.73" width="921.16" height="630.02"/><rect class="cls-17" x="1749.73" y="1026.46" width="888.43" height="478.23"/><circle class="cls-18" cx="2193.94" cy="1265.57" r="83.42" transform="translate(-252.31 1922.03) rotate(-45)"/><path class="cls-11" d="M2240.2,1257.23,2178,1221.34a9.63,9.63,0,0,0-14.44,8.34v71.79a9.63,9.63,0,0,0,14.44,8.34l62.17-35.9A9.63,9.63,0,0,0,2240.2,1257.23Z"/><rect class="cls-15" x="1764.38" y="1481.09" width="856.8" height="6"/><rect class="cls-11" x="2063.83" y="1481.55" width="557.35" height="5.09"/><path class="cls-19" d="M2072.33,1484.09a8.5,8.5,0,1,1-8.5-8.49A8.5,8.5,0,0,1,2072.33,1484.09Z"/><rect class="cls-11" x="2614.06" y="992.15" width="24.09" height="24.09"/><rect class="cls-11" x="2580.07" y="992.15" width="24.09" height="24.09"/><rect class="cls-11" x="2546.08" y="992.15" width="24.09" height="24.09"/><rect class="cls-20" x="1887.44" y="1677.77" width="335.43" height="29.72"/><rect class="cls-20" x="1887.44" y="1745.17" width="209.12" height="29.72"/><rect class="cls-18" x="1746.8" y="1677.77" width="97.12" height="97.12"/><rect class="cls-20" x="2418" y="1677.77" width="236.52" height="29.72"/><rect class="cls-20" x="2418" y="1745.17" width="164.49" height="29.72"/><rect class="cls-19" x="2277.36" y="1677.77" width="97.12" height="97.12"/><path class="cls-21" d="M3004.25,2334.43V2347H2009.31v-12.53a78.21,78.21,0,0,1,78.21-78.21H2926a78.2,78.2,0,0,1,78.21,78.21Z"/><path class="cls-14" d="M3004.25,2334.43V2347H2068.12c-.84-19.08,4.7-42.67,36.43-45.37,45.91-3.92,670.7-28.47,886.08-11.27A77.88,77.88,0,0,1,3004.25,2334.43Z"/><path class="cls-22" d="M3113.94,2020.19H2880.46c-14.5-110-27.67-219.68-28.72-262.85v262.85h-218.3c-.07-16.88-.42-33.75-1.12-50.36-6.6-156,24.16-529.65,70.32-597.78h287.9s68.13,129.66,76.91,340.64C3071.05,1799.22,3091.3,1914.42,3113.94,2020.19Z"/><path class="cls-23" d="M2851.74,1779.09v241.1h-48.43c12.33-141.22,31.51-375.93,31.51-375.93l16.92,103.59C2851.21,1754.23,2851.28,1765.39,2851.74,1779.09Z"/><path class="cls-24" d="M3444.13,1385.35s-92,93-94,96.06-220.43-100.09-259.86-124.81a73.38,73.38,0,0,1-10.42-8c-34.44-31.45-64.83-104.9-66.37-108.65l-.06-.15c1,14.15-9.1,38.43-9.1,38.43L2990.54,1372h-287.9l-28.47-137.36v0c-4.94,6.76-54.16,64.53-102.9,63.37h0c-12.56-.29-25.09-4.5-36.82-14.52-57.27-48.87-102.32-266.5-102.32-266.5l126-38.95,52.69,97.75s51.17-72.54,77.9-99.27c4.57-4.58,11.74-8.74,20.49-12.46,0,0,0,0,0,0,42.34-18.08,120.86-29.55,120.86-29.55l100.64-12.16,97,46.55c100.81,36.66,189.61,290.94,189.61,290.94l198.08,109.59Z"/><path class="cls-25" d="M2709.18,964.12c-7.71,5.3-29.2,36.1-43.48,67.83-24.95,55.45-36.15,132.67-37.28,115.75-1.9-28.5-17.63-71.85-17.63-71.85s51.17-72.54,77.9-99.27C2693.26,972,2700.43,967.84,2709.18,964.12Z"/><path class="cls-26" d="M3444.13,1385.35s-92,93-94,96.06-220.43-100.09-259.86-124.81c-38.51-24.14-75.1-112.57-76.79-116.7l-.06-.15s-3.55-92.7,3.53-89.68,49.53,150.64,89,180,172.9,108.19,230.53,91,61.76-33.87,79-51.56Z"/><path class="cls-11" d="M3054.91,1318.5c-1.85-2.74-3.67-5.52-5.43-8.33C3051.25,1313,3053.07,1315.76,3054.91,1318.5Z"/><path d="M3052.8,1319.93c-1.85-2.73-3.69-5.55-5.48-8.4l4.31-2.72c1.77,2.8,3.58,5.58,5.39,8.26Z"/><path class="cls-25" d="M3415.42,1369.47s-199.86-84.79-220.94-85.55c-19.93-.72,22.86-24,22.86-24Z"/><path class="cls-25" d="M3009.64,1010.68c-11.23-14.23,107.49,42.39,147.83,209.82C3157.47,1220.5,3032.12,1039.18,3009.64,1010.68Z"/><path class="cls-26" d="M2571.25,1298.07c-12.56-.29-25.09-4.5-36.82-14.52-57.27-48.87-102.32-266.5-102.32-266.5l126-38.95s-76.79,42.79-63.59,123.93S2527.25,1279,2571.25,1298.07Z"/><path class="cls-27" d="M3545.3,1521.23c-4.5,5.37-16.11,5.79-35.64,3.31-21.57-2.75-109.36-47.31-140.26-63.27,9.9-10.14,22.34-22.8,34.21-34.85l28.32-28.72c40.56,1.29,94.53,35.54,95.9,45.53,1.44,10.51-39.22,0-39.22,0s58.35,58.35,58.83,70.53A10.56,10.56,0,0,1,3545.3,1521.23Z"/><path class="cls-28" d="M3545.3,1521.23c-4.5,5.37-16.11,5.79-35.64,3.31-21.57-2.75-109.36-47.31-140.26-63.27,9.9-10.14,22.34-22.8,34.21-34.85,19.31,4.15,54.66,17.49,68.26,60.33C3471.87,1486.75,3521.92,1515.69,3545.3,1521.23Z"/><path class="cls-29" d="M3063.1,961.92c-.07.13-.13.26-.19.39a24.89,24.89,0,0,1-33,11.75L2959,940.91s-12.33-7.63-28.25-18.52-4.19-76.87-4.19-76.87a71.26,71.26,0,0,0,26.72-6.14c27.39-12.52,38.39-41.51,23.05-64.47a34.91,34.91,0,0,0-3.92-4.9c-20.27-21-53,4.18-53,4.18-24.49.78-51.53-27.22-51.53-27.22,4.32,29,35.94,33.09,35.94,33.09-47.79,18.42-92.89-25.23-85.5-57.82s-17.08-55.31-38-46.45-38.74,65.12-25.25,135.84a114.6,114.6,0,0,0,3.49,13.71c18.26,56.14,71.32,50.56,71.32,50.56s.73,13.19-4.24,36.57S2794,942.66,2794,942.66c-102.64,11.3-117.37,58.31-118.17,58.53S2673,978.9,2686.25,958s20.81-39.36,5.7-55.8c-6-6.55-10.71-13.8-11.41-21.92-1.06-12.31,7.05-26.63,33.7-43.57C2758.5,808.6,2724,759,2739,683.36s67.36-67.22,126.36-75.84S2940.4,634,2940.4,634c23.64-10.41,46.42,0,46.42,0,71.92,40,42.28,115.51,25.33,148.35s-19.94,51.83,33.2,100.53C3077.27,912.13,3072.22,942.41,3063.1,961.92Z"/><path class="cls-30" d="M3063.1,961.92c-58.2,11.48-67-12.33-44.76-39.89,22.79-28.18-2.42-36.76-41.43-59.27-11.52-6.65-19.16-14.73-23.68-23.38,27.39-12.52,38.39-41.51,23.05-64.47a34.91,34.91,0,0,0-3.92-4.9c13.7-14.47,20.25-22.71,25.8-59.44,6.64-43.94-42.5-58.88-42.5-58.88,15.22,23.86,5.38,42.24-4.7,40.56s-9.76-22.2-17.93-22.64,1.48,9.42,5,23.19-38.22,23.83-38.22,23.83l-24.15-17.7,52.2-46.87s-34.74-32.8-59.94-19.28-64.69,8.42-64.69,8.42c-31.52,1.49-22.93,34.59-22.93,34.59-20.91,8.88-38.74,65.12-25.25,135.84a114.6,114.6,0,0,0,3.49,13.71c-11.68,19.36-40.93,34-59.54,41.16-9.6,3.69-15.21,9-18.48,13.79-1.06-12.31,7.05-26.63,33.7-43.57C2758.5,808.6,2724,759,2739,683.36s67.36-67.22,126.36-75.84S2940.4,634,2940.4,634c23.64-10.41,46.42,0,46.42,0,71.92,40,42.28,115.51,25.33,148.35s-19.94,51.83,33.2,100.53C3077.27,912.13,3072.22,942.41,3063.1,961.92Z"/><path class="cls-28" d="M2926.81,845.41s-11.73,66,4.18,76.86,28.25,18.52,28.25,18.52c-12.12,17.93-6.95,53.34-8.93,77.08s-148.81-4.1-157.43-9.75,1.42-65.57,1.42-65.57,19.07-4.88,28-20.52a33.45,33.45,0,0,0,3.67-9.68c5-23.38,4.24-36.56,4.24-36.56s-52.89,5.55-71.22-50.33a2.34,2.34,0,0,1-.09-.24,110.29,110.29,0,0,1-3.49-13.7c-1.6-8.41-2.77-16.61-3.53-24.54-5.69-58.88,10.35-103.48,28.77-111.3,20.92-8.87,45.4,13.86,38,46.44s37.7,76.24,85.5,57.83c0,0-31.62-4.12-35.94-33.09,0,0,27,28,51.52,27.21,0,0,32.69-25.16,53-4.18a36.26,36.26,0,0,1,3.92,4.9c15.33,23,4.33,52-23.06,64.47A71,71,0,0,1,2926.81,845.41Z"/><circle class="cls-31" cx="2888.07" cy="807.26" r="19.68" transform="translate(1743.19 3578.88) rotate(-83.17)"/><path class="cls-31" d="M2776.94,808.13a19.68,19.68,0,0,1-18,17.33,2.34,2.34,0,0,1-.09-.24,110.29,110.29,0,0,1-3.49-13.7c-1.6-8.41-2.77-16.61-3.53-24.54a19.43,19.43,0,0,1,7.82-.67A19.68,19.68,0,0,1,2776.94,808.13Z"/><path class="cls-32" d="M2796.3,778.2a9,9,0,1,1-7.91-10A9,9,0,0,1,2796.3,778.2Z"/><path class="cls-32" d="M2874,783.59a9,9,0,1,1-7.92-10A9,9,0,0,1,2874,783.59Z"/><path class="cls-32" d="M2767.21,749.54a4.29,4.29,0,0,1-1.16-.17,4,4,0,0,1-2.68-5c.13-.44,3.38-10.77,17.49-11.14,13.19-.35,18.28,6.65,18.81,7.44l-6.64,4.46c-.08-.1-3.18-4.13-12-3.9-8,.21-9.87,5-10.05,5.5A4,4,0,0,1,2767.21,749.54Z"/><path class="cls-33" d="M2802.64,835.47s25.23,7.18,41.85-.47c0,0,.54,24.32-22,24.9S2802.64,835.47,2802.64,835.47Z"/><path class="cls-27" d="M2813.18,778.76s-15.43,23.35-9.68,33.65,21.48,7.5,22.82-7.37,1-27.24-4.94-28.9S2813.18,778.76,2813.18,778.76Z"/><path class="cls-11" d="M2939.28,832.3a10.59,10.59,0,1,1-9.3-11.73A10.59,10.59,0,0,1,2939.28,832.3Z"/><path class="cls-27" d="M2923.77,815.32s-1.3-19.08,11.07-24.67,19.8,3.63,19.8,3.63-13.75-5.26-17.93,1.73c0,0,16,3.9,7,19.42,0,0,.23-10.16-6.42-12.34a7.65,7.65,0,0,0-7.59,1.86C2927.35,807.18,2924.07,811,2923.77,815.32Z"/><path class="cls-27" d="M2907.45,854.46S2883.55,920,2822.26,922a33.45,33.45,0,0,0,3.67-9.68c5-23.38,4.24-36.57,4.24-36.57S2876.71,873,2907.45,854.46Z"/><path class="cls-1" d="M2517.86,825.18S2368,931.65,2384.94,956.41s45.44,41.26,53.38,34,125.24-142.11,125.24-142.11Z"/><g class="cls-34"><path class="cls-35" d="M2466.41,854.31s80.62,39.5,86.31,33.65,23.67-29.64,23.67-29.64S2496.73,800,2490.48,807,2466.41,854.31,2466.41,854.31Z"/></g><path class="cls-36" d="M2647.69,872.67c-5.72,7.34-18.33,23.51-32.54,20.34-13-2.88-33.08-8.66-57.58-16.4q-4.82-1.51-9.85-3.15c-121.32-39.07-332.57-119.69-335.61-144.17-1.33-10.64,12.9-36.14,33.73-66.17,41.49-59.86,109.19-137.77,132.32-152.3,2.51-1.58,4.51-2.41,5.87-2.39,15.08.28,165.14,183.34,240,279.43,13.81,17.73,25.05,32.5,32.42,42.62,2.13,2.93,2.92,7.29,2.6,12.36C2658.44,851.92,2654.24,863.25,2647.69,872.67Z"/><path class="cls-37" d="M2659,842.84c-59.35-5.68-162.27-139.3-196.26-194.22-36.57-59.1-84.74-95.67-88.68-97.83a139.91,139.91,0,0,1,4.06-40c2.51-1.58,4.51-2.41,5.87-2.39,15.08.28,165.14,183.34,240,279.43,13.81,17.73,25.05,32.5,32.42,42.62C2658.57,833.41,2659.36,837.77,2659,842.84Z"/><path class="cls-38" d="M2614.65,855.92l-22.18,28.65s-17.42-4.23-44.75-11.11c-121.32-39.07-332.57-119.69-335.61-144.17-1.33-10.64,12.9-36.14,33.73-66.17,25.93,6,94.47,26.67,144.09,84.85C2452.3,821.09,2614.65,855.92,2614.65,855.92Z"/><ellipse class="cls-1" cx="2301.78" cy="622.7" rx="147.55" ry="52.53" transform="translate(396.47 2056.49) rotate(-52.1)"/><g class="cls-39"><path class="cls-11" d="M2377.43,656.22s-62.14-79.75-88-48.41c-21.8,26.4-22.77,39.27,68.41,93Z"/><path class="cls-35" d="M2366.2,499.07s21.85,19.61,7.27,57.52c-12.62,32.8-107.09,185.21-180.55,168.36,0,0,9.83,29.34,30.92,37.92s99.8-23.29,120.92-58.81,91.86-128.49,93.16-149S2383.78,487.55,2366.2,499.07Z"/></g><path class="cls-1" d="M2647.69,872.67c-5.72,7.34-18.33,23.51-32.54,20.34-13-2.88-33.08-8.66-57.58-16.4,41.71-30.6,59.19-66.21,66.45-88.75,13.81,17.73,25.05,32.5,32.42,42.62C2662.39,838.65,2657.9,858,2647.69,872.67Z"/><path class="cls-36" d="M2271.39,529.73a6.13,6.13,0,0,1-5.82-4.22l-19.4-58.86a6.13,6.13,0,1,1,11.64-3.84l19.4,58.87a6.13,6.13,0,0,1-5.82,8.05Z"/><path class="cls-36" d="M2229.89,583.25a6.11,6.11,0,0,1-4.13-1.59l-62.68-57.06a6.13,6.13,0,0,1,8.25-9.07L2234,572.6a6.12,6.12,0,0,1-4.12,10.65Z"/><path class="cls-36" d="M2194.14,639.4a6.48,6.48,0,0,1-1.38-.15L2131,625.06a6.13,6.13,0,1,1,2.74-11.94l61.8,14.18a6.13,6.13,0,0,1-1.36,12.1Z"/><path class="cls-28" d="M2550.29,1003l-94.61,25.56s-13.42-29.35-16.81-41.54c0-.1-.06-.19-.08-.29-3.27-12,31.46-33.6,30.21-53.41s25.75-44.85,25.75-44.85-30.45-49.3-19.48-51,45,23.23,58.14,44.7-1.84,84.29-1.84,84.29Z"/><path class="cls-27" d="M2485.65,936.41c-1.39,19.14-19.39,53.65-46.78,50.65,0-.1-.06-.19-.08-.29-3.27-12,31.46-33.6,30.21-53.41s25.75-44.85,25.75-44.85-30.45-49.3-19.48-51c0,0,28.41,42.23,35.37,51.25S2487.07,916.72,2485.65,936.41Z"/><path class="cls-28" d="M2466.65,907.55c-5.87,4.61-15-3.15-15.32-3.42.11.38,2.56,8.58-4.85,17.48-7.61,9.1-18.79,1-18.79,1s-1.71,13.36-8.63,19.46-16.49,1.58-25.1-4.06c-4.65-3-6.74-6.27-7.13-10-.34-3.14.54-6.62,2.12-10.63,3.42-8.74,10.18-11.2,10.18-11.2a156.84,156.84,0,0,1,6-15.42c4.12-9.21,16.36-7.68,16.36-7.68s2.07-8.5,5.56-14.18,10.23-6.81,10.23-6.81-3.37-3.6,2.38-15.69,16.43-9.16,16.43-9.16a70.72,70.72,0,0,1,12.64,5.36h0c6.5,3.59,13.07,8.92,13.05,15.78a25,25,0,0,1-10.19,20.18C2479.84,886.61,2477.85,898.74,2466.65,907.55Z"/><path class="cls-27" d="M2466.65,907.55c-5.87,4.61-15-3.15-15.32-3.42.11.38,2.56,8.58-4.85,17.48-7.61,9.1-18.79,1-18.79,1s-1.71,13.36-8.63,19.46-16.49,1.58-25.1-4.06c-4.65-3-6.74-6.27-7.13-10,4.54,3.58,12.26,8.88,18.88,9.6,10.12,1.12,15.45-11.55,15.52-22.76,0,0,18,7.43,20.41-3.6s-2.87-17.61-2.87-17.61,17.52,9.05,24.23,4.91,3.71-19.05,3.71-19.05l-21.36-12.71s20.19,7.54,25.18.1,5.69-16.36-1.74-24.28c6.5,3.59,13.07,8.92,13.05,15.78a25,25,0,0,1-10.19,20.18C2479.84,886.61,2477.85,898.74,2466.65,907.55Z"/><path class="cls-26" d="M3013.39,1239.75c1,14.15-9.1,38.43-9.1,38.43L2990.54,1372h-287.9l-28.47-137.36s-3.85-96.59,18.33-125c0,0-14.5,111.83,41.42,117.77s94.45-30.4,121-7,131,57.86,157.64-19.24C3012.69,1221.37,3013.39,1239.75,3013.39,1239.75Z"/><path class="cls-40" d="M2836.32,1548.53l-17-17.06a60.91,60.91,0,0,1-17.88-43.27V1374.83h3V1488.2a57.89,57.89,0,0,0,17,41.15l11.87,11.92V1374.83h3Z"/><path class="cls-40" d="M3012.86,1468c-18.48,0-34-5.48-46.21-16.36-15.93-14.17-23.25-35.07-26.58-50.11a139.88,139.88,0,0,1-3.45-29.47l3,0c0,.51-.37,51.16,29,77.31,14.46,12.86,33.83,17.8,57.54,14.68l.4,3A106.26,106.26,0,0,1,3012.86,1468Z"/><path class="cls-40" d="M2672.45,1468l-.08-3c31.63-.82,54.86-16.67,69-47.1a139.08,139.08,0,0,0,11.91-45.89l3,.15a142.59,142.59,0,0,1-12.18,47C2734,1440.82,2713.38,1466.89,2672.45,1468Z"/><rect class="cls-40" x="2833.32" y="1542.11" width="3" height="102.15"/><path class="cls-40" d="M3076.89,2018c-27.74-142-38.58-275-40.41-314.19-3.22-68.69-40-235.33-40.35-237l2.93-.64c.37,1.67,37.19,168.57,40.41,237.51,1.84,39.17,12.66,171.88,40.36,313.75Z"/><path class="cls-40" d="M2662,2017.71c-.73-65.08-3.37-121.41-5.67-148.37-6-70.64,39.91-404.34,40.37-407.7l3,.41c-.47,3.36-46.34,336.72-40.36,407,2.3,27,5,83.44,5.68,148.59Z"/><path class="cls-41" d="M1817.07,2020s-30,17.74-72.92,45.42c-98.05,63.21-263.72,178.31-294.41,252.59,0,0-43.67-78-54.59-108,0,0-58.46-60.41-66.86-146.41s2-244.09,57-317.42c0,0-2.17-34.48,92-56.82q8.38-2,17.82-3.85c6.47-1.26,13.31-2.47,20.57-3.62L1618,1689s10.66,3.06,26.12,8.93c6.6,2.51,14.08,5.53,22,9,34.08,15.15,76,39.44,88.93,71.19C1778.05,1834.49,1804.9,1941.68,1817.07,2020Z"/><path class="cls-11" d="M1666.11,1707c3.85,24.43-6.8,50.49-66.33,55.07-97.57,7.5-118.35-52.75-122.53-72.69q8.38-2,17.82-3.85c6.47-1.26,13.31-2.47,20.57-3.62L1618,1689s10.66,3.06,26.12,8.93C1650.73,1700.43,1658.21,1703.45,1666.11,1707Z"/><path class="cls-42" d="M1449.74,2318C1594,2521.64,1820,2252.48,1820,2252.48l9.34,115.25,3,37.15,7,86.91,255.45-35.66-4.92-95.56-2.3-44.69-2.13-41.36-2.55-49.46-10.88-148.93s-4-98.27-126.14-128l-53.81,27.12-9.76,4.91,0,0-127.65,78.64-10.54,6.57,0,0c-71.53,46.12-179,119.82-243.84,185.16-8.71,8.79-16.66,17.41-23.64,25.81Z"/><path class="cls-42" d="M2072.09,2076.13,2083,2225.06l48.12,69.58,22.53,32.59,53.59,77.5L2424.08,2251s-22.76-32.83-54.85-78.25c-9.1-12.89-18.95-26.78-29.23-41.23l-13.55-19c-58.07-81.17-125.39-172.9-151.75-199.61-50.23-50.92-132.39-30.16-132.39-30.16L1946,1948.11C2068.13,1977.86,2072.09,2076.13,2072.09,2076.13Z"/><path class="cls-43" d="M1449.74,2318C1594,2521.64,1820,2252.48,1820,2252.48l9.34,115.25,258.29-51.85-2.13-41.36c-25.08,10.84-98.14,38.25-158.23,19.39-73.34-23-78.83-196-78.9-198.34-.61,1.54-39.7,100.21-141.93,177-81,60.84-171.31,4.76-206.18-22-8.71,8.79-26.9,27.43-33.84,35.86C1455.36,2299.85,1449.74,2318,1449.74,2318Z"/><path class="cls-43" d="M2072.09,2076.13,2083,2225.06l48.12,69.58L2340,2131.55l-13.55-19c-47,24.24-160.18,79.81-184.72,66.83-31.17-16.49-34.11-130.1-74.06-189.43S1946,1948.11,1946,1948.11C2068.13,1977.86,2072.09,2076.13,2072.09,2076.13Z"/><path class="cls-28" d="M2052.41,2462.06l.52,28.92,1.44,81.44s-107.57,48.93-167.33,4c-.72-.53-1.41-1.08-2.11-1.63l3-89.81Z"/><path class="cls-27" d="M2052.41,2462.06l.52,28.92c-25.92,1.06-88.95,6-116.59,28.55-26,21.28-31.83,44.27-49.3,56.93-.72-.53-1.41-1.08-2.11-1.63l3-89.81Z"/><path class="cls-28" d="M2421.45,2376.36s15.38,78.54-40.28,95.78-87.21.87-88.47-2a7.64,7.64,0,0,0-.55-.86c-5.06-7.21-42.52-55-62.49-80.5l135.92-96.32,13.74,20.63Z"/><path class="cls-27" d="M2379.32,2313.12c-29,18.66-83.84,57.93-85.29,89.49-.91,20,.39,44.77-1.88,66.7-5.06-7.21-42.52-55-62.49-80.5l135.92-96.32Z"/><polygon class="cls-44" points="1839.42 2491.79 2094.87 2456.13 2087.65 2315.88 1829.36 2367.73 1839.42 2491.79"/><path class="cls-44" d="M2131.09,2294.64l76.12,110.09L2424.08,2251s-37.51-54.09-84.08-119.48Z"/><path class="cls-45" d="M1861.5,2662.94l406,63.38a105.51,105.51,0,0,0,5.39-26.7c.09-1.19.15-2.4.19-3.63.68-18.27-3.58-41-24.11-56.72-39.73-30.49-197.55-111.93-197.55-111.93s-39.61,50.38-75.81,38.78-76.92-30.56-76.92-30.56-9.1-7.19-16.45,1.58l-17.82,99.41-.42,3.79Z"/><path class="cls-46" d="M1861.5,2662.94l406,63.38a105.51,105.51,0,0,0,5.39-26.7c.09-1.19.15-2.4.19-3.63l-187-25.52-54.11-7.39-167.88-22.92-.12.18Z"/><rect class="cls-11" x="2017.22" y="2632.35" width="68.39" height="5.09" transform="translate(-1282.02 2832.9) rotate(-55.5)"/><rect class="cls-11" x="2075.64" y="2647.66" width="49.55" height="5.09" transform="translate(-1275.82 2840.88) rotate(-54.83)"/><path class="cls-45" d="M2344.06,2583.1l365.16-188.53a105.53,105.53,0,0,0-11.41-24.73c-.63-1-1.3-2-2-3-10.24-15.15-27.07-31-52.94-31.55-50.07-1.16-225.54,26.27-225.54,26.27s-2.23,64.05-38.3,76.05-80.13,20.74-80.13,20.74-11.58-.43-12.34,11l44.3,90.75,1.9,3.31Z"/><path class="cls-46" d="M2344.06,2583.1l365.16-188.53a105.53,105.53,0,0,0-11.41-24.73c-.63-1-1.3-2-2-3l-166,89.77-48,26-149,80.6v.22Z"/><rect class="cls-11" x="2478.26" y="2414.16" width="5.09" height="68.39" transform="translate(-70.6 73.66) rotate(-1.68)"/><rect class="cls-11" x="2526.84" y="2407.02" width="5.09" height="49.55" transform="translate(-42.55 45.04) rotate(-1.01)"/><path class="cls-28" d="M1629.5,1728.51c24.82-24.17,14.63-30.58,14.63-30.58h0c-15.45-5.86-26.1-8.94-26.1-8.94l-95.62-9.46-6.76,2.35c-7.26,1.15-14.1,2.36-20.57,3.62C1513.26,1753.06,1604.68,1752.69,1629.5,1728.51Z"/><path class="cls-47" d="M1701.05,1802.88s41.15,65.46,16.74,106.52,18.61,64.06,18.61,64.06l-21.61,17.44s-33.41-39.88-9.6-87.6S1701.05,1802.88,1701.05,1802.88Z"/><path class="cls-29" d="M1450.6,1643.51c17.57,35.77,67.1,21.39,67.1,21.39-8.35-3.64-14.42-23.45-14.79-24.68a8.69,8.69,0,0,0,1.15,2c5.29,7.06,22.17,11.71,22.17,11.71l4.56-19.49c32.07,21.54,51,10,51,10-48.6-45.23-13.4-123.06-13.4-123.06,25.32,13.17,42.14-23.57,42.14-23.57a68.24,68.24,0,0,1-7.65,29c49.76,11.57,71.61-39.94,72.24-41.46-6.46,18-.31,22.17-.31,22.17,27.69-31.05,49.91-21.35,49.91-21.35s10,36.93-3,99.53c-.89,4.36-1.9,8.83-3,13.44-3.47,14.12-9,24.94-15.62,33.22-26.54,33.2-70.66,25.52-70.66,25.52l-5.66,36.21,19.24,4.91s22.67,5.72,28.59,5.09c19.21-2,31.93-16.59,31.93-16.59.64,9.67-8.87,19.36-8.87,19.36,43.47,15.44,60.2-55.56,51.2-92.09s-1-58.24,11.17-108.31-37-85.82-93.19-113.93q-2.78-1.38-5.47-2.6c-52.64-23.77-80.16,1.21-80.16,1.21-59-16-84.66,23.31-95.82,60.18a214.71,214.71,0,0,0-8.61,54.36C1449.87,1530.55,1433,1607.74,1450.6,1643.51Z"/><path class="cls-28" d="M1501.76,1682.76s25.16,52.81,85.89,54.89,58.41-38.51,58.41-38.51l-19.25-4.92,5.66-36.2s64.72,11.26,84.54-52.47q.93-3,1.74-6.27a346,346,0,0,0,7.14-37.67c6.29-47.78-1.14-75.3-1.14-75.3s-22.22-9.7-49.91,21.35c0,0-6.15-4.14.31-22.18-.63,1.53-22.48,53-72.24,41.47a68.4,68.4,0,0,0,7.65-29s-16.82,36.74-42.14,23.57c0,0-35.2,77.83,13.4,123.06,0,0-19,11.48-51-10.06l-4.57,19.5a30.11,30.11,0,0,1-1.63,6.88.06.06,0,0,0,0,0l-1.48,6.29C1517.8,1679.59,1501.76,1682.76,1501.76,1682.76Z"/><path class="cls-27" d="M1558.09,1646.62s41.51,48.52,70.28,48l-1.56-.4,5.66-36.21s-47.23-.63-60.77-50.86-3.28-85.69-3.28-85.69h0c-.45,1-34.87,78.12,13.41,123C1581.82,1644.53,1573.33,1649.67,1558.09,1646.62Z"/><path class="cls-30" d="M1502.91,1640.22c.38.69.77,1.37,1.15,2,5.29,7.06,22.17,11.71,22.17,11.71l4.56-19.49s-32.44-34-32-75.71C1498.83,1558.77,1480.57,1599.92,1502.91,1640.22Z"/><path class="cls-30" d="M1556.71,1519.89s-17.66,17.88-20.34,63.15a88.07,88.07,0,0,0,21.72,63.58c15.24,3.05,23.73-2.09,23.73-2.09-48.6-45.23-13.4-123.06-13.4-123.06,25.32,13.17,42.14-23.57,42.14-23.57a68.24,68.24,0,0,1-7.65,29c49.76,11.57,71.61-39.94,72.24-41.46-6.46,18-.31,22.17-.31,22.17,27.69-31.05,49.91-21.35,49.91-21.35s3.87,14.34,3.66,40.31c0,0,10.36-45.74-8.32-53.1s-38,11.58-38,11.58c4.58-16.16-1.65-25.31-1.65-25.31-9.33,33.86-51.91,44-51.91,44,4.88-10.16,4.32-39.75,4.32-39.75-45,58.27-109.64,20.15-109.64,20.15C1524,1502.53,1556.71,1519.89,1556.71,1519.89Z"/><path class="cls-30" d="M1697.7,1707c60.78-10.41,24.09-121.16,24.09-121.16h0c-.89,4.36-1.9,8.83-3,13.44-3.47,14.12-9,24.94-15.62,33.22,7.73,25,3.44,55.14,3.44,55.14C1707.21,1697.31,1697.7,1707,1697.7,1707Z"/><path class="cls-48" d="M1626.81,1694.23l19.24,4.91c38.37-12.58,57.08-66.64,57.08-66.64-26.54,33.2-70.66,25.52-70.66,25.52Z"/><path class="cls-30" d="M1485.43,1451.46c47.65-68.14,103.79-37.93,103.79-37.93,14.39-14.62,50.13-20.89,72.19-23.46-52.64-23.77-80.16,1.21-80.16,1.21C1522.26,1375.25,1496.59,1414.59,1485.43,1451.46Z"/><path class="cls-48" d="M1601.87,1437s9.85-28.16,54.47-17.71c0,0-40.58-1.45-46.29,34.83,0,0-37.79-24.47-62.28-10.89C1547.77,1443.24,1559.83,1421.82,1601.87,1437Z"/><circle class="cls-31" cx="1597.85" cy="1570.84" r="23.58" transform="translate(-624.82 1287.29) rotate(-37.24)"/><path class="cls-31" d="M1705.19,1582.49a23.56,23.56,0,0,0,11.82,23.06q.93-3,1.74-6.27a346,346,0,0,0,7.14-37.67A23.57,23.57,0,0,0,1705.19,1582.49Z"/><circle class="cls-32" cx="1636.59" cy="1547.9" r="9.79" transform="translate(-608.82 1367.42) rotate(-38.81)"/><path class="cls-32" d="M1686.15,1550.28a9.79,9.79,0,1,0,10.79-8.68A9.78,9.78,0,0,0,1686.15,1550.28Z"/><path class="cls-32" d="M1625.4,1525.84h-.32a4,4,0,0,1-3.67-4.33c0-.47,1-11.51,13.48-14.47s18.55,5.5,20,10.39a4,4,0,0,1-7.63,2.38c-.39-1.17-2.72-6.86-10.57-5-6.55,1.56-7.3,6.79-7.36,7.38A4,4,0,0,1,1625.4,1525.84Z"/><path class="cls-32" d="M1685.82,1531.22h-.33a4,4,0,0,1-3.67-4.33c0-.47,1.06-11.52,13.49-14.47s18.55,5.5,20,10.39a4,4,0,0,1-7.64,2.38c-.39-1.18-2.71-6.86-10.56-5-6.56,1.56-7.3,6.79-7.36,7.38A4,4,0,0,1,1685.82,1531.22Z"/><path class="cls-27" d="M1670.13,1558.39a8,8,0,0,1,6.53-6.14c5.51-.8,14.64,20.57,13.76,28.63-.93,8.62-5.56,11.46-15.41,11S1665.58,1570.55,1670.13,1558.39Z"/><path class="cls-33" d="M1658.46,1618.86c-5,0-11.35-.89-16.68-4.51s-8.61-9.21-9.74-16.65a2.5,2.5,0,1,1,4.94-.75c.92,6,3.47,10.45,7.58,13.25,8.47,5.76,21,3,21.15,3a2.5,2.5,0,0,1,1.12,4.87A40.66,40.66,0,0,1,1658.46,1618.86Z"/><path class="cls-49" d="M1535.13,1680.78s8.56,47.29,80,33.91C1615.09,1714.69,1554.92,1708.4,1535.13,1680.78Z"/><path class="cls-28" d="M1800.69,2024.47c-9.1,7-39.37,44.93-54.67,39.69L1674.16,2085l-17.38-51.61,71.69-60.83a61.44,61.44,0,0,1,7-5.88s35.4-35.18,57.8-31.5c20.79,3.41,49,7.39,51.22,15.24a3.69,3.69,0,0,1,0,1.87c-2.08,9-27.08,9.23-27.93,9.24h0c1,.31,18.23,5.41,24.91,11.09,1.56,1.33,2.56,2.69,2.63,4,.35,7-25.67,7-27.26,7l.18,0c2.39.39,20.86,3.68,23.2,9.7a3.51,3.51,0,0,1,.23,1.36c-.21,7.19-26,6.7-27,6.69l.09,0c1.48.55,16.76,6.41,17,11.59a2,2,0,0,1,0,.35C1830.05,2019,1809.78,2017.46,1800.69,2024.47Z"/><path class="cls-27" d="M1816.56,1961.51h0c-9.74-1.41-8.55-6-8.55-6,9.89-8.25,28.43-6.4,36.47-5.1a3.59,3.59,0,0,1,0,1.87C1842.4,1961.22,1817.41,1961.5,1816.56,1961.51Z"/><path class="cls-27" d="M1816.86,1983.69h-.07s-9-.11-8.68-3.89,12.29-4.51,23.86-3.78c5.91.37,8.44-1.49,9.52-3.4,1.56,1.33,2.56,2.69,2.63,4C1844.47,1983.67,1818.46,1983.69,1816.86,1983.69Z"/><path class="cls-27" d="M1813.42,2001.47h0s-9.32-.48-8.65-4,10.72-3.45,23.86-2.78c5.72.29,9.35-.39,11.63-1.25a3.34,3.34,0,0,1,.24,1.36C1840.26,2002,1814.43,2001.48,1813.42,2001.47Z"/><path class="cls-27" d="M1800.69,2024.47c-9.09,7-36.65,30.48-52,25.24a18.29,18.29,0,0,1-2.72-1.22c15.89-1.86,33.67-25.36,42.75-31.4,9.73-6.47,13.67-7,28.92-4.47,6.47,1.08,10.44,1,12.85.48,0,.12,0,.23,0,.35C1830.06,2019,1809.78,2017.46,1800.69,2024.47Z"/><path class="cls-41" d="M1395.15,2210c10.93,30,54.59,108,54.59,108,30.69-74.27,196.32-189.34,294.38-252.57l0,0-25.33-64.25-2.21-5.58-4.3-10.92-210.59,66.85s3.29-145.11,1.39-170.63c-1.53-20.73-6.55-48.37-19.68-80.47a101,101,0,0,0-17.56-29c-32.88-37.26-75.87-37.6-75.87-37.6-55,73.33-70.12,243.81-61.72,329.82S1395.15,2210,1395.15,2210Z"/><path class="cls-47" d="M1395.15,2210c10.93,30,54.59,108,54.59,108,30.69-74.27,196.32-189.34,294.38-252.57-2.38,1.15-124.31,60.87-161.14,88.62C1545.76,2182,1456,2231.25,1395.15,2210Z"/><path class="cls-47" d="M1489,2092.31c30.78-7.32,188.92-73,229.84-91.19l-2.21-5.58-4.3-10.92-210.59,66.85s3.29-145.11,1.39-170.63c-1.53-20.73-6.55-48.37-19.68-80.47a101,101,0,0,0-17.56-29c-4.43-4.43-6.9-6.94-6.9-6.94s48.81,73.24,15.22,200.38C1449,2060.05,1456.41,2100.05,1489,2092.31Z"/><path class="cls-50" d="M1398.13,1791.25S1337,1943.8,1384.66,2081C1384.66,2081,1383.87,1869.25,1398.13,1791.25Z"/><polygon class="cls-51" points="2056.95 1658.7 2115.29 1849.58 1750.88 2065.39 1744.15 2054.03 1846.48 1973.41 1798.38 1799.82 2043.3 1654.78 2056.95 1658.7"/><polygon class="cls-52" points="2056.95 1658.7 1813.47 1802.59 1881.22 1988.2 1750.88 2065.39 1744.15 2054.03 1846.48 1973.41 1798.38 1799.82 2043.3 1654.78 2056.95 1658.7"/><ellipse class="cls-53" cx="1975.97" cy="1829.75" rx="42.36" ry="34.82" transform="translate(-548.1 2768.64) rotate(-63.2)"/><g class="cls-54"><polygon class="cls-55" points="1976.66 1714.95 2051.84 1670.43 2080.18 1762.2 1976.66 1714.95"/></g><g class="cls-54"><polygon class="cls-55" points="1940 1736.66 2091.74 1805.38 2103.52 1843.42 2045.64 1877.7 1868.52 1778.99 1940 1736.66"/></g><path class="cls-11" d="M1630.28,1172.14s21.9-.35,28.77-.79c10.09-.65,27.43-11.81,30.41-16.7,7.11-11.65,6.81-30.68,8.51-39.17.94-4.72,16.85,1.56,17.06,14.3.21,13.67-3.57,34.14,3.53,35,7.64.89,19.21,1.82,25.56,1.82s7.67,17.2.73,19.27c4.75,0,2,19.79-3.76,20.65,3.17,1,.41,15.77-4.44,17.66,0,0,3.09,7.48-4.64,12.08-9,5.39-68.92,0-68.92,0h-32.81Z"/><rect class="cls-11" x="1603.7" y="1168.31" width="53.72" height="71.74"/><g class="cls-56"><path class="cls-11" d="M3353.39,948.16v733.71L2894.2,910.55h421.58A37.65,37.65,0,0,1,3353.39,948.16Z"/></g><g class="cls-56"><polygon class="cls-11" points="3198.3 2020.2 2614.12 2020.2 2068.04 910.55 2510.3 910.55 3198.3 2020.2"/></g><path class="cls-45" d="M1841.14,1087.39H1516.38a8.81,8.81,0,0,0-8.81,8.82V1284a8.81,8.81,0,0,0,8.81,8.82h234.69l-9.87,60.79,73.21-60.79h26.73A8.82,8.82,0,0,0,1850,1284V1096.21A8.82,8.82,0,0,0,1841.14,1087.39Z"/><path class="cls-57" d="M3527.22,483.53H3123.3a11,11,0,0,0-11,11V728.06a11,11,0,0,0,11,11h33.23l-16.45,75.61L3247.59,739h279.63a11,11,0,0,0,11-11V494.5A11,11,0,0,0,3527.22,483.53Z"/><path class="cls-11" d="M3406.12,611.28a25.3,25.3,0,1,0,25.3-25.3A25.3,25.3,0,0,0,3406.12,611.28Z"/><path class="cls-11" d="M3300,611.28a25.3,25.3,0,1,0,25.3-25.3A25.3,25.3,0,0,0,3300,611.28Z"/><path class="cls-11" d="M3193.81,611.28a25.3,25.3,0,1,0,25.3-25.3A25.3,25.3,0,0,0,3193.81,611.28Z"/><rect class="cls-58" x="3219.28" y="1626.8" width="399.11" height="284.6" rx="4.28"/><path class="cls-59" d="M3614.5,1909,3419.4,1785.8a1,1,0,0,0-1.13,0L3223.17,1909a1.35,1.35,0,0,0,.57,2.46h390.19A1.35,1.35,0,0,0,3614.5,1909Z"/><path class="cls-59" d="M3219.28,1626.8l183,141.63a26.62,26.62,0,0,0,33.19,0l183-141.63Z"/><circle class="cls-24" cx="3578.56" cy="1626.8" r="54.06" transform="translate(-102.19 3006.9) rotate(-45)"/><path class="cls-11" d="M3560.35,1644.11l5.65-6.39a12.71,12.71,0,0,0,8.12,3.32c5.9,0,11-4.1,11-16.37,0-11.45-4.32-14.82-8.69-14.82-3.69,0-7,2.21-7,7.42,0,4.69,2.75,6.71,6.84,6.71,2.79,0,5.91-1.35,8.8-5l.48,7c-3.36,3.5-8,5.53-11.6,5.53-8,0-14.27-4.48-14.27-14.25,0-9.59,7.71-15.46,16.55-15.46,9.46,0,18.67,6.67,18.67,22.86,0,17.23-9.68,25-19.85,25A21.25,21.25,0,0,1,3560.35,1644.11Z"/></svg>